<svg width="48" height="48" viewBox="0 0 48 48" fill="none" xmlns="http://www.w3.org/2000/svg">
<path d="M36.6807 9.07584L33.9678 7.49915L33.9676 7.49943C33.7163 7.34437 33.3844 7.35318 33.0204 7.56337L12.479 19.4229C11.6945 19.8758 11.0586 21.0909 11.0586 22.1369V38.672C11.0586 39.2427 11.2482 39.6445 11.5476 39.8189L11.5472 39.8194L14.2836 41.4096L36.6807 9.07584Z" fill="url(#paint0_linear_107_9591)"/>
<path d="M35.7645 9.15824L15.2231 21.0178C14.4386 21.4707 13.8027 22.6858 13.8027 23.7318V40.2668C13.8027 41.3128 14.4386 41.7936 15.2231 41.3406L35.7645 29.4811C36.549 29.0282 37.1849 27.8131 37.1849 26.7671V10.2321C37.1849 9.18609 36.5489 8.70534 35.7645 9.15824Z" fill="url(#paint1_linear_107_9591)"/>
<path d="M26.8334 23.9075C26.0169 23.682 24.9708 24.2859 24.1542 25.4543L13.8027 40.2666C13.8027 41.3126 14.4386 41.7933 15.2231 41.3404L35.7645 29.4809C36.549 29.028 37.1849 27.8129 37.1849 26.7669L26.8334 23.9075Z" fill="url(#paint2_linear_107_9591)"/>
<path d="M35.7644 9.1583L15.2231 21.0179C14.4386 21.4708 13.8027 22.6859 13.8027 23.7318L24.1542 26.5912C24.9708 26.8168 26.0169 26.2128 26.8334 25.0443L37.1849 10.232C37.1849 9.18605 36.5489 8.7053 35.7644 9.1583Z" fill="url(#paint3_linear_107_9591)"/>
<path d="M41.4076 1.94585L38.7763 0.428697C37.7216 -0.204022 36.3368 -0.159397 34.8191 0.716791C31.5147 2.6246 28.8359 7.74279 28.8359 12.1487C28.8359 14.5496 29.6326 16.2413 30.8913 16.977L32.8604 18.1159L32.6426 19.8249C32.6251 19.962 32.6923 20.07 32.7891 20.127L32.7892 20.1271L35.4226 21.6462L41.4076 1.94585Z" fill="url(#paint4_linear_107_9591)"/>
<path d="M43.4291 6.75703C43.4291 2.35115 40.7504 0.32606 37.446 2.23387C34.1416 4.14168 31.4629 9.25987 31.4629 13.6657C31.4629 17.205 33.1916 19.2073 35.5846 18.8693L35.2695 21.3408C35.2296 21.6542 35.6321 21.816 35.8203 21.5622L39.8171 16.1685L39.8159 16.169C41.9413 13.7179 43.4291 10.0401 43.4291 6.75703Z" fill="url(#paint5_linear_107_9591)"/>
<path d="M34.9545 12.7265C35.4059 11.6672 35.286 10.6013 34.6866 10.346C34.0873 10.0906 33.2355 10.7424 32.7841 11.8018C32.3327 12.8612 32.4527 13.927 33.052 14.1824C33.6513 14.4377 34.5031 13.7859 34.9545 12.7265Z" fill="#8B451C"/>
<path d="M38.5463 10.6531C38.9977 9.59367 38.8778 8.52784 38.2784 8.27247C37.6791 8.0171 36.8273 8.66889 36.3759 9.72829C35.9245 10.7877 36.0445 11.8535 36.6438 12.1089C37.2431 12.3642 38.0949 11.7125 38.5463 10.6531Z" fill="#8B451C"/>
<path d="M42.1381 8.58006C42.5895 7.52067 42.4696 6.45485 41.8702 6.19948C41.2709 5.94411 40.4191 6.59589 39.9677 7.65529C39.5163 8.71468 39.6363 9.7805 40.2356 10.0359C40.8349 10.2912 41.6867 9.63946 42.1381 8.58006Z" fill="#8B451C"/>
<path d="M20.4711 38.9188L16.3112 36.4944C16.1099 36.3944 15.9046 36.4652 15.7791 36.7143L14.4466 39.3604C14.2997 39.652 12.0626 35.3639 11.0595 31.0083C10.2756 27.6047 10.6585 23.9212 10.6585 23.9212L6.4708 21.4795L6.47239 21.4839C6.26652 21.3731 6.05436 21.442 5.92592 21.697L5.37186 22.7971C4.14102 25.2412 4.34295 29.2366 5.84933 32.246C8.10336 36.7487 10.715 40.7289 13.5772 44.0239C14.0582 44.5775 14.5638 44.9805 15.0708 45.2351L15.0705 45.2352L18.9885 47.5239L20.4711 38.9188Z" fill="url(#paint6_linear_107_9591)"/>
<path d="M12.6858 34.5746C12.3611 33.9409 12.3145 33.0891 12.5762 32.5695L13.9087 29.9234C14.0965 29.5506 14.0344 28.9217 13.7699 28.5187L10.9282 24.1877C10.6639 23.7847 10.2973 23.7602 10.1095 24.133L9.55545 25.2332C8.32461 27.6773 8.52655 31.6727 10.0329 34.6821C12.287 39.1848 14.8985 43.165 17.7608 46.46C19.6738 48.6622 21.977 48.4849 23.2079 46.0407L23.762 44.9406C23.9497 44.5677 23.8876 43.9388 23.6231 43.5358L20.7815 39.2048C20.5171 38.8018 20.1505 38.7773 19.9627 39.1502L18.6302 41.7963C18.3685 42.3158 17.8771 42.3476 17.4732 41.8711C15.7143 39.7955 14.0999 37.3352 12.6858 34.5746Z" fill="url(#paint7_linear_107_9591)"/>
<defs>
<linearGradient id="paint0_linear_107_9591" x1="17.6368" y1="25.9693" x2="19.4377" y2="22.8501" gradientUnits="userSpaceOnUse">
<stop stop-color="#C5BAEB"/>
<stop offset="1" stop-color="#E9E5F6"/>
</linearGradient>
<linearGradient id="paint1_linear_107_9591" x1="25.4938" y1="29.6628" x2="18.5355" y2="17.611" gradientUnits="userSpaceOnUse">
<stop stop-color="#D7D1EB"/>
<stop offset="1" stop-color="#E7E3F3"/>
</linearGradient>
<linearGradient id="paint2_linear_107_9591" x1="25.4938" y1="44.8244" x2="25.4938" y2="24.7101" gradientUnits="userSpaceOnUse">
<stop stop-color="#E9E5F6"/>
<stop offset="1" stop-color="#E7E3F3"/>
</linearGradient>
<linearGradient id="paint3_linear_107_9591" x1="25.4938" y1="31.3386" x2="17.5696" y2="17.6138" gradientUnits="userSpaceOnUse">
<stop stop-color="#E7E3F3"/>
<stop offset="1" stop-color="white"/>
</linearGradient>
<linearGradient id="paint4_linear_107_9591" x1="30.7497" y1="17.4645" x2="34.8725" y2="10.3237" gradientUnits="userSpaceOnUse">
<stop stop-color="#E37A34"/>
<stop offset="1" stop-color="#FFA538"/>
</linearGradient>
<linearGradient id="paint5_linear_107_9591" x1="37.446" y1="26.7758" x2="37.446" y2="-4.00763" gradientUnits="userSpaceOnUse">
<stop stop-color="#FFC538"/>
<stop offset="1" stop-color="#F7E041"/>
</linearGradient>
<linearGradient id="paint6_linear_107_9591" x1="13.124" y1="33.4544" x2="15.6238" y2="29.1245" gradientUnits="userSpaceOnUse">
<stop stop-color="#594A8E"/>
<stop offset="1" stop-color="#7662BD"/>
</linearGradient>
<linearGradient id="paint7_linear_107_9591" x1="33.9375" y1="65.6674" x2="7.04174" y2="52.1142" gradientUnits="userSpaceOnUse">
<stop stop-color="#594A8E"/>
<stop offset="1" stop-color="#7662BD"/>
</linearGradient>
</defs>
</svg>
