<svg width="40" height="40" viewBox="0 0 40 40" fill="none" xmlns="http://www.w3.org/2000/svg">
<path d="M6.25 16.25C6.62084 16.25 6.98335 16.14 7.29169 15.934C7.60004 15.728 7.84036 15.4351 7.98227 15.0925C8.12419 14.7499 8.16132 14.3729 8.08897 14.0092C8.01663 13.6455 7.83805 13.3114 7.57583 13.0492C7.3136 12.787 6.97951 12.6084 6.61579 12.536C6.25208 12.4637 5.87508 12.5008 5.53247 12.6427C5.18986 12.7846 4.89702 13.025 4.69099 13.3333C4.48497 13.6416 4.375 14.0042 4.375 14.375C4.375 14.8723 4.57254 15.3492 4.92417 15.7008C5.27581 16.0525 5.75272 16.25 6.25 16.25ZM6.25 13.75C6.37361 13.75 6.49445 13.7867 6.59723 13.8553C6.70001 13.924 6.78012 14.0216 6.82742 14.1358C6.87473 14.25 6.88711 14.3757 6.86299 14.4969C6.83888 14.6182 6.77935 14.7295 6.69194 14.8169C6.60453 14.9044 6.49317 14.9639 6.37193 14.988C6.25069 15.0121 6.12503 14.9997 6.01082 14.9524C5.89662 14.9051 5.79901 14.825 5.73033 14.7222C5.66166 14.6195 5.625 14.4986 5.625 14.375C5.625 14.2092 5.69085 14.0503 5.80806 13.9331C5.92527 13.8158 6.08424 13.75 6.25 13.75Z" fill="black"/>
<path d="M4.37505 18.125H8.12505L10 22.7375C10.0499 22.8599 10.1372 22.9633 10.2495 23.0329C10.3618 23.1025 10.4933 23.1348 10.625 23.125H11.25C11.3734 23.1244 11.4939 23.0873 11.5962 23.0183C11.6985 22.9493 11.7782 22.8516 11.825 22.7375L13.75 18.125H17.5L19.375 22.7375C19.4231 22.8502 19.5032 22.9464 19.6054 23.014C19.7077 23.0815 19.8275 23.1176 19.95 23.1176C20.0726 23.1176 20.1924 23.0815 20.2947 23.014C20.3969 22.9464 20.477 22.8502 20.525 22.7375L22.5 18.125H26.25L28.125 22.7375C28.1749 22.8599 28.2622 22.9633 28.3745 23.0329C28.4868 23.1025 28.6183 23.1348 28.75 23.125H29.375C29.4984 23.1244 29.6189 23.0873 29.7212 23.0183C29.8235 22.9493 29.9032 22.8516 29.95 22.7375L31.875 18.125H35.625L37.5 22.7375L38.6501 22.2625L36.5938 17.2625C36.5469 17.1484 36.4673 17.0507 36.365 16.9817C36.2626 16.9127 36.1422 16.8756 36.0188 16.875H31.4313C31.3079 16.8756 31.1875 16.9127 31.0851 16.9817C30.9828 17.0507 30.9032 17.1484 30.8563 17.2625L29.0625 21.6375L27.2688 17.2625C27.2219 17.1484 27.1423 17.0507 27.04 16.9817C26.9376 16.9127 26.8172 16.8756 26.6938 16.875H22.0563C21.9329 16.8756 21.8125 16.9127 21.7101 16.9817C21.6078 17.0507 21.5282 17.1484 21.4813 17.2625L20 20.8562L18.5188 17.2625C18.4719 17.1484 18.3923 17.0507 18.29 16.9817C18.1876 16.9127 18.0672 16.8756 17.9438 16.875H13.3063C13.1829 16.8756 13.0625 16.9127 12.9601 16.9817C12.8578 17.0507 12.7782 17.1484 12.7313 17.2625L10.9375 21.6375L9.1438 17.2625C9.09691 17.1484 9.01729 17.0507 8.91496 16.9817C8.81264 16.9127 8.69219 16.8756 8.5688 16.875H3.9313C3.80791 16.8756 3.68746 16.9127 3.58514 16.9817C3.48281 17.0507 3.40319 17.1484 3.3563 17.2625L1.30005 22.2625L2.45005 22.7375L4.37505 18.125Z" fill="black"/>
<path d="M8.125 21.25H4.375C4.20924 21.25 4.05027 21.3158 3.93306 21.4331C3.81585 21.5503 3.75 21.7092 3.75 21.875V26.9375C3.75 27.1033 3.81585 27.2622 3.93306 27.3794C4.05027 27.4967 4.20924 27.5625 4.375 27.5625H6.25C6.41576 27.5625 6.57473 27.4967 6.69194 27.3794C6.80915 27.2622 6.875 27.1033 6.875 26.9375V23.5625H5.625V26.3125H5V22.5H7.5V27.5H8.75V21.875C8.75 21.7092 8.68415 21.5503 8.56694 21.4331C8.44973 21.3158 8.29076 21.25 8.125 21.25Z" fill="black"/>
<path d="M13.75 14.375C13.75 14.7458 13.86 15.1084 14.066 15.4167C14.272 15.725 14.5649 15.9654 14.9075 16.1073C15.2501 16.2492 15.6271 16.2863 15.9908 16.214C16.3545 16.1416 16.6886 15.963 16.9508 15.7008C17.213 15.4386 17.3916 15.1045 17.464 14.7408C17.5363 14.3771 17.4992 14.0001 17.3573 13.6575C17.2154 13.3149 16.975 13.022 16.6667 12.816C16.3584 12.61 15.9958 12.5 15.625 12.5C15.1277 12.5 14.6508 12.6975 14.2992 13.0492C13.9475 13.4008 13.75 13.8777 13.75 14.375ZM16.25 14.375C16.25 14.4986 16.2133 14.6195 16.1447 14.7222C16.076 14.825 15.9784 14.9051 15.8642 14.9524C15.75 14.9997 15.6243 15.0121 15.5031 14.988C15.3818 14.9639 15.2705 14.9044 15.1831 14.8169C15.0956 14.7295 15.0361 14.6182 15.012 14.4969C14.9879 14.3757 15.0003 14.25 15.0476 14.1358C15.0949 14.0216 15.175 13.924 15.2778 13.8553C15.3805 13.7867 15.5014 13.75 15.625 13.75C15.7908 13.75 15.9497 13.8158 16.0669 13.9331C16.1842 14.0503 16.25 14.2092 16.25 14.375Z" fill="black"/>
<path d="M18.125 27.5V21.875C18.125 21.7092 18.0592 21.5503 17.9419 21.4331C17.8247 21.3158 17.6658 21.25 17.5 21.25H13.75C13.5842 21.25 13.4253 21.3158 13.3081 21.4331C13.1908 21.5503 13.125 21.7092 13.125 21.875V26.9375C13.125 27.1033 13.1908 27.2622 13.3081 27.3794C13.4253 27.4967 13.5842 27.5625 13.75 27.5625H15.625C15.7908 27.5625 15.9497 27.4967 16.0669 27.3794C16.1842 27.2622 16.25 27.1033 16.25 26.9375V23.5625H15V26.3125H14.375V22.5H16.875V27.5H18.125Z" fill="black"/>
<path d="M22.5 14.375C22.5 14.7458 22.61 15.1084 22.816 15.4167C23.022 15.725 23.3149 15.9654 23.6575 16.1073C24.0001 16.2492 24.3771 16.2863 24.7408 16.214C25.1045 16.1416 25.4386 15.963 25.7008 15.7008C25.963 15.4386 26.1416 15.1045 26.214 14.7408C26.2863 14.3771 26.2492 14.0001 26.1073 13.6575C25.9654 13.3149 25.725 13.022 25.4167 12.816C25.1084 12.61 24.7458 12.5 24.375 12.5C23.8777 12.5 23.4008 12.6975 23.0492 13.0492C22.6975 13.4008 22.5 13.8777 22.5 14.375ZM25 14.375C25 14.4986 24.9633 14.6195 24.8947 14.7222C24.826 14.825 24.7284 14.9051 24.6142 14.9524C24.5 14.9997 24.3743 15.0121 24.2531 14.988C24.1318 14.9639 24.0205 14.9044 23.9331 14.8169C23.8456 14.7295 23.7861 14.6182 23.762 14.4969C23.7379 14.3757 23.7503 14.25 23.7976 14.1358C23.8449 14.0216 23.925 13.924 24.0278 13.8553C24.1306 13.7867 24.2514 13.75 24.375 13.75C24.5408 13.75 24.6997 13.8158 24.8169 13.9331C24.9342 14.0503 25 14.2092 25 14.375Z" fill="black"/>
<path d="M26.875 27.5V21.875C26.875 21.7092 26.8092 21.5503 26.6919 21.4331C26.5747 21.3158 26.4158 21.25 26.25 21.25H22.5C22.3342 21.25 22.1753 21.3158 22.0581 21.4331C21.9408 21.5503 21.875 21.7092 21.875 21.875V26.9375C21.875 27.1033 21.9408 27.2622 22.0581 27.3794C22.1753 27.4967 22.3342 27.5625 22.5 27.5625H24.375C24.5408 27.5625 24.6997 27.4967 24.8169 27.3794C24.9342 27.2622 25 27.1033 25 26.9375V23.5625H23.75V26.3125H23.125V22.5H25.625V27.5H26.875Z" fill="black"/>
<path d="M31.875 14.375C31.875 14.7458 31.985 15.1084 32.191 15.4167C32.397 15.725 32.6899 15.9654 33.0325 16.1073C33.3751 16.2492 33.7521 16.2863 34.1158 16.214C34.4795 16.1416 34.8136 15.963 35.0758 15.7008C35.338 15.4386 35.5166 15.1045 35.589 14.7408C35.6613 14.3771 35.6242 14.0001 35.4823 13.6575C35.3404 13.3149 35.1 13.022 34.7917 12.816C34.4834 12.61 34.1208 12.5 33.75 12.5C33.2527 12.5 32.7758 12.6975 32.4242 13.0492C32.0725 13.4008 31.875 13.8777 31.875 14.375ZM34.375 14.375C34.375 14.4986 34.3383 14.6195 34.2697 14.7222C34.201 14.825 34.1034 14.9051 33.9892 14.9524C33.875 14.9997 33.7493 15.0121 33.6281 14.988C33.5068 14.9639 33.3955 14.9044 33.3081 14.8169C33.2206 14.7295 33.1611 14.6182 33.137 14.4969C33.1129 14.3757 33.1253 14.25 33.1726 14.1358C33.2199 14.0216 33.3 13.924 33.4028 13.8553C33.5056 13.7867 33.6264 13.75 33.75 13.75C33.9158 13.75 34.0747 13.8158 34.1919 13.9331C34.3092 14.0503 34.375 14.2092 34.375 14.375Z" fill="black"/>
<path d="M35.625 21.25H31.875C31.7092 21.25 31.5503 21.3158 31.4331 21.4331C31.3158 21.5503 31.25 21.7092 31.25 21.875V26.9375C31.25 27.1033 31.3158 27.2622 31.4331 27.3794C31.5503 27.4967 31.7092 27.5625 31.875 27.5625H33.75C33.9158 27.5625 34.0747 27.4967 34.1919 27.3794C34.3092 27.2622 34.375 27.1033 34.375 26.9375V23.5625H33.125V26.3125H32.5V22.5H35V27.5H36.25V21.875C36.25 21.7092 36.1842 21.5503 36.0669 21.4331C35.9497 21.3158 35.7908 21.25 35.625 21.25Z" fill="black"/>
<path d="M11.875 28.125H6.25C6.08424 28.125 5.92527 28.1908 5.80806 28.3081C5.69085 28.4253 5.625 28.5842 5.625 28.75V37.5C5.625 37.6658 5.69085 37.8247 5.80806 37.9419C5.92527 38.0592 6.08424 38.125 6.25 38.125H11.875C12.0408 38.125 12.1997 38.0592 12.3169 37.9419C12.4342 37.8247 12.5 37.6658 12.5 37.5V36.875H15.7812C15.8371 36.8761 15.8914 36.8935 15.9375 36.925L18.3 38.4937C18.5497 38.6607 18.8433 38.7499 19.1437 38.75H27.8938C28.2827 38.7469 28.6567 38.5999 28.9438 38.3375L34.1438 33.5875C34.2131 33.5314 34.2696 33.4611 34.3094 33.3813C34.3493 33.3015 34.3717 33.2141 34.375 33.125C34.3711 33.0338 34.3472 32.9446 34.3051 32.8636C34.263 32.7826 34.2036 32.7118 34.1313 32.6562L32.4938 31.4062C32.3814 31.3127 32.2399 31.2615 32.0938 31.2615C31.9476 31.2615 31.8061 31.3127 31.6937 31.4062L28.4188 34.375H24.9438L25.525 33.4625C25.5726 33.388 25.6039 33.3042 25.6167 33.2167C25.6296 33.1291 25.6237 33.0399 25.5994 32.9548C25.5752 32.8698 25.5332 32.7908 25.4762 32.7232C25.4192 32.6555 25.3485 32.6008 25.2687 32.5625L18.7063 29.4375C18.6232 29.3949 18.5309 29.3735 18.4375 29.375H12.5V28.75C12.5 28.5842 12.4342 28.4253 12.3169 28.3081C12.1997 28.1908 12.0408 28.125 11.875 28.125ZM11.25 36.875H6.875V29.375H11.25V36.875ZM18.2938 30.625L24.0938 33.3875L23.4688 34.375H23.05L19.1437 32.5563L18.6188 33.6937L22.6437 35.5687C22.7261 35.6063 22.8157 35.6255 22.9062 35.625H28.6625C28.8196 35.6262 28.9713 35.5681 29.0875 35.4625L32.1562 32.6875L32.7812 33.1687L28.125 37.4125C28.0691 37.4657 27.9958 37.4968 27.9187 37.5H19.1687C19.1132 37.497 19.0595 37.4798 19.0125 37.45L16.625 35.8812C16.3756 35.7136 16.0818 35.6243 15.7812 35.625H12.5V30.625H18.2938Z" fill="black"/>
<path d="M7.5 8.61875C7.6123 8.71229 7.75384 8.76352 7.9 8.76352C8.04616 8.76352 8.1877 8.71229 8.3 8.61875L11.5813 5.625H15.0562L14.475 6.5375C14.4274 6.61204 14.3961 6.69583 14.3833 6.78335C14.3704 6.87086 14.3763 6.96011 14.4006 7.04518C14.4248 7.13025 14.4668 7.20921 14.5238 7.27684C14.5808 7.34447 14.6515 7.39923 14.7312 7.4375L21.2937 10.5625C21.3768 10.6051 21.4691 10.6265 21.5625 10.625H27.5V11.25C27.5 11.4158 27.5658 11.5747 27.6831 11.6919C27.8003 11.8092 27.9592 11.875 28.125 11.875H33.75C33.9158 11.875 34.0747 11.8092 34.1919 11.6919C34.3092 11.5747 34.375 11.4158 34.375 11.25V2.5C34.375 2.33424 34.3092 2.17527 34.1919 2.05806C34.0747 1.94085 33.9158 1.875 33.75 1.875H28.125C27.9592 1.875 27.8003 1.94085 27.6831 2.05806C27.5658 2.17527 27.5 2.33424 27.5 2.5V3.125H24.2188C24.1629 3.12386 24.1086 3.10649 24.0625 3.075L21.7 1.50625C21.4503 1.33927 21.1567 1.25009 20.8562 1.25H12.1063C11.7173 1.25314 11.3433 1.40007 11.0563 1.6625L5.85625 6.4125C5.78694 6.46863 5.73044 6.53894 5.69055 6.61871C5.65066 6.69849 5.62831 6.78587 5.625 6.875C5.62894 6.96619 5.6528 7.05542 5.69491 7.1364C5.73702 7.21738 5.79636 7.28816 5.86875 7.34375L7.5 8.61875ZM28.75 3.125H33.125V10.625H28.75V3.125ZM11.875 2.5875C11.9309 2.53434 12.0042 2.50325 12.0813 2.5H20.8313C20.8868 2.50303 20.9406 2.52025 20.9875 2.55L23.375 4.11875C23.6244 4.28642 23.9182 4.37567 24.2188 4.375H27.5V9.375H21.7062L15.9062 6.6125L16.5312 5.625H16.95L20.8562 7.44375L21.3812 6.30625L17.3563 4.43125C17.2758 4.39458 17.1884 4.37541 17.1 4.375H11.3438C11.1867 4.37384 11.035 4.43186 10.9187 4.5375L7.85 7.3125L7.225 6.83125L11.875 2.5875Z" fill="black"/>
</svg>
