<svg width="55" height="55" viewBox="0 0 55 55" fill="none" xmlns="http://www.w3.org/2000/svg">
<path d="M43.4124 13.625H43.9918C44.3541 13.6251 44.7129 13.5538 45.0476 13.4152C45.3823 13.2766 45.6865 13.0734 45.9427 12.8172C46.1989 12.561 46.4021 12.2568 46.5407 11.9221C46.6793 11.5873 46.7506 11.2286 46.7505 10.8663V8.62501C46.7505 8.45925 46.6847 8.30028 46.5675 8.18307C46.4503 8.06586 46.2913 8.00001 46.1255 8.00001H43.8843C43.522 7.99993 43.1632 8.07123 42.8284 8.20984C42.4937 8.34845 42.1895 8.55165 41.9334 8.80784C41.6772 9.06403 41.474 9.36819 41.3353 9.70293C41.1967 10.0377 41.1254 10.3965 41.1255 10.7588V11.3381C39.1378 12.187 37.3313 13.4091 35.8036 14.9381L34.8661 15.8756C32.925 14.1256 30.432 13.111 27.8204 13.0082C25.2088 12.9055 22.6438 13.721 20.5711 15.3131L14.6924 9.43313C14.6084 9.34912 14.5021 9.2908 14.3861 9.26501L8.76114 8.01501C8.65847 7.99209 8.55168 7.99546 8.45066 8.02481C8.34964 8.05415 8.25766 8.10852 8.18324 8.18287C8.10883 8.25723 8.05438 8.34916 8.02495 8.45016C7.99553 8.55115 7.99207 8.65794 8.01489 8.76063L9.26489 14.3856C9.29263 14.5106 9.35808 14.6241 9.45239 14.7106L16.5418 21.2106C16.3603 21.854 16.2375 22.5126 16.1749 23.1781C16.0135 24.8453 16.2281 26.5274 16.803 28.1006C15.0432 28.3808 13.4412 29.2802 12.2857 30.6368C11.1302 31.9934 10.4971 33.718 10.5005 35.5C10.5018 35.804 10.5227 36.1075 10.563 36.4088C9.54633 37.0696 8.7704 38.0413 8.3509 39.179C7.9314 40.3167 7.89079 41.5596 8.23511 42.7222C8.57943 43.8849 9.29025 44.9052 10.2616 45.631C11.233 46.3569 12.4129 46.7493 13.6255 46.75H41.1255C42.3952 46.7482 43.627 46.3168 44.6204 45.526C45.6138 44.7353 46.3105 43.6317 46.5971 42.3948C46.8837 41.1578 46.7434 39.8603 46.199 38.7132C45.6546 37.5661 44.7381 36.637 43.5986 36.0769C43.6168 35.875 43.6255 35.6875 43.6255 35.5C43.6217 33.8204 43.0556 32.1903 42.0174 30.87C40.9792 29.5496 39.5287 28.6149 37.8974 28.215C38.8114 25.8043 38.8665 23.1523 38.0536 20.7056L39.813 18.9469C41.3418 17.4191 42.5636 15.6126 43.4124 13.625ZM40.5005 13.0144C40.8618 12.8269 41.238 12.6613 41.6155 12.4988L42.2505 13.135C42.088 13.51 41.9243 13.8888 41.7343 14.25H40.9424C40.8252 14.25 40.7128 14.2035 40.6299 14.1206C40.5471 14.0377 40.5005 13.9253 40.5005 13.8081V13.0144ZM42.3755 10.7588C42.3759 10.3587 42.5349 9.97515 42.8178 9.69228C43.1007 9.4094 43.4842 9.25034 43.8843 9.25001H45.5005V10.8663C45.5002 11.2663 45.3411 11.6499 45.0583 11.9327C44.7754 12.2156 44.3918 12.3747 43.9918 12.375H43.2593L42.3755 11.4913V10.7588ZM26.8305 14.2644C28.7054 14.1605 30.5717 14.5871 32.2152 15.4952C33.8588 16.4034 35.2131 17.7564 36.1229 19.399C37.0328 21.0417 37.4612 22.9075 37.3592 24.7825C37.2572 26.6575 36.6288 28.4658 35.5461 30C33.8997 32.2931 33.0098 35.0427 33.0005 37.8656V38H29.2505V34.875H30.188C30.6207 34.875 31.0436 34.7467 31.4033 34.5063C31.7631 34.266 32.0434 33.9243 32.209 33.5246C32.3746 33.1249 32.4179 32.6851 32.3335 32.2607C32.2491 31.8364 32.0407 31.4466 31.7348 31.1407C31.4289 30.8348 31.0391 30.6264 30.6148 30.542C30.1904 30.4576 29.7506 30.501 29.3509 30.6665C28.9512 30.8321 28.6095 31.1125 28.3692 31.4722C28.1288 31.8319 28.0005 32.2549 28.0005 32.6875V33.625H26.7505V32.6875C26.7505 32.2549 26.6222 31.8319 26.3819 31.4722C26.1415 31.1125 25.7999 30.8321 25.4001 30.6665C25.0004 30.501 24.5606 30.4576 24.1363 30.542C23.7119 30.6264 23.3222 30.8348 23.0162 31.1407C22.7103 31.4466 22.502 31.8364 22.4176 32.2607C22.3331 32.6851 22.3765 33.1249 22.542 33.5246C22.7076 33.9243 22.988 34.266 23.3477 34.5063C23.7074 34.7467 24.1304 34.875 24.563 34.875H25.5005V38H21.7505V37.8694C21.7151 35.0163 20.8066 32.2425 19.1474 29.9213C17.8005 27.9893 17.1881 25.6398 17.4205 23.2963C17.6546 20.9161 18.7315 18.698 20.4569 17.0419C22.1824 15.3858 24.4428 14.4007 26.8305 14.2644ZM27.3755 45.5C26.7125 45.5 26.0766 45.2366 25.6078 44.7678C25.1389 44.2989 24.8755 43.663 24.8755 43H29.8755C29.8755 43.663 29.6121 44.2989 29.1433 44.7678C28.6744 45.2366 28.0386 45.5 27.3755 45.5ZM23.6255 41.75C23.1282 41.75 22.6513 41.5525 22.2997 41.2008C21.9481 40.8492 21.7505 40.3723 21.7505 39.875V39.25H33.0005V39.875C33.0005 40.3723 32.803 40.8492 32.4513 41.2008C32.0997 41.5525 31.6228 41.75 31.1255 41.75H23.6255ZM25.5005 33.625H24.563C24.3776 33.625 24.1963 33.57 24.0422 33.467C23.888 33.364 23.7678 33.2176 23.6969 33.0463C23.6259 32.875 23.6074 32.6865 23.6435 32.5046C23.6797 32.3228 23.769 32.1557 23.9001 32.0246C24.0312 31.8935 24.1983 31.8042 24.3801 31.768C24.562 31.7318 24.7505 31.7504 24.9218 31.8214C25.0931 31.8923 25.2395 32.0125 25.3425 32.1667C25.4455 32.3208 25.5005 32.5021 25.5005 32.6875V33.625ZM28.0005 38H26.7505V34.875H28.0005V38ZM29.2505 33.625V32.6875C29.2505 32.5021 29.3055 32.3208 29.4085 32.1667C29.5115 32.0125 29.6579 31.8923 29.8293 31.8214C30.0006 31.7504 30.1891 31.7318 30.3709 31.768C30.5528 31.8042 30.7198 31.8935 30.8509 32.0246C30.982 32.1557 31.0713 32.3228 31.1075 32.5046C31.1437 32.6865 31.1251 32.875 31.0542 33.0463C30.9832 33.2176 30.863 33.364 30.7089 33.467C30.5547 33.57 30.3734 33.625 30.188 33.625H29.2505ZM18.3886 17.5044L13.4305 12.5463L13.9049 12.3094C14.0529 12.2349 14.1653 12.1048 14.2174 11.9475L14.523 11.0319L19.6143 16.125C19.1693 16.5511 18.7594 17.0123 18.3886 17.5044ZM10.3355 13.4375L10.1055 12.4038L12.4043 10.105L13.438 10.335L13.1149 11.3069L12.0961 11.8156C11.9749 11.8762 11.8767 11.9744 11.8161 12.0956L11.3074 13.1138L10.3355 13.4375ZM10.9605 9.78313L9.78427 10.9575L9.44864 9.44813L10.9605 9.78313ZM11.0855 14.5063L11.9524 14.2175C12.1095 14.1651 12.2395 14.0528 12.3143 13.905L12.5511 13.4306L17.6793 18.5625C17.4223 19.0026 17.1955 19.4597 17.0005 19.9306L11.0855 14.5063ZM9.25052 41.125C9.25045 40.3372 9.46313 39.5639 9.86609 38.8869C10.269 38.2099 10.8473 37.6543 11.5399 37.2788C11.6556 37.216 11.7486 37.1182 11.8055 36.9995C11.8624 36.8807 11.8803 36.7471 11.8568 36.6175C11.6985 35.7728 11.7172 34.9043 11.9117 34.0672C12.1062 33.23 12.4723 32.4423 12.9868 31.7539C13.5013 31.0655 14.1531 30.4913 14.9008 30.0676C15.6486 29.6439 16.4762 29.38 17.3311 29.2925C17.5629 29.7569 17.8262 30.2048 18.1193 30.6331C19.6334 32.7454 20.4644 35.2707 20.5005 37.8694V39.875C20.5015 40.7035 20.8311 41.4978 21.4169 42.0836C22.0027 42.6695 22.797 42.999 23.6255 43C23.6258 43.9238 23.9687 44.8146 24.588 45.5H13.6255C12.4657 45.4985 11.3537 45.0371 10.5336 44.217C9.71342 43.3968 9.25201 42.2849 9.25052 41.125ZM42.3755 35.5C42.3731 35.7929 42.3499 36.0853 42.3061 36.375C42.2864 36.5148 42.3145 36.6572 42.386 36.779C42.4575 36.9008 42.5682 36.9948 42.6999 37.0456C43.6512 37.4143 44.4438 38.1039 44.9405 38.995C45.4372 39.8862 45.6068 40.9229 45.42 41.926C45.2333 42.929 44.7018 43.8352 43.9176 44.4878C43.1334 45.1404 42.1458 45.4985 41.1255 45.5H30.163C30.7823 44.8146 31.1253 43.9238 31.1255 43C31.954 42.999 32.7483 42.6695 33.3341 42.0836C33.92 41.4978 34.2495 40.7035 34.2505 39.875V37.8656C34.2605 35.3023 35.0702 32.8061 36.5668 30.725C36.8688 30.2965 37.1403 29.8473 37.3793 29.3806C38.7883 29.6714 40.0542 30.4386 40.9642 31.553C41.8741 32.6675 42.3725 34.0613 42.3755 35.5ZM37.5443 19.4475C37.0814 18.4679 36.4784 17.5609 35.7543 16.755L36.688 15.8219C37.4673 15.0434 38.3261 14.349 39.2505 13.75V13.8075C39.2504 14.0297 39.2941 14.2498 39.3791 14.4552C39.4641 14.6605 39.5887 14.8471 39.7458 15.0042C39.903 15.1614 40.0895 15.2861 40.2948 15.3712C40.5001 15.4562 40.7202 15.5 40.9424 15.5H41.0005C40.4016 16.4242 39.7074 17.2831 38.9293 18.0625L37.5443 19.4475Z" fill="black"/>
<path d="M15.6989 21.5929C15.6053 21.6732 15.5301 21.7728 15.4786 21.8849C15.4271 21.997 15.4004 22.1189 15.4004 22.2422C15.4004 22.3655 15.4271 22.4874 15.4786 22.5995C15.5301 22.7116 15.6053 22.8112 15.6989 22.8915L17.7897 24.6837C20.4593 26.9724 23.8597 28.2305 27.3761 28.2305C30.8926 28.2305 34.293 26.9724 36.9626 24.6837L39.0534 22.8915C39.147 22.8112 39.2222 22.7116 39.2737 22.5995C39.3252 22.4874 39.3519 22.3655 39.3519 22.2422C39.3519 22.1189 39.3252 21.997 39.2737 21.8849C39.2222 21.7728 39.147 21.6732 39.0534 21.5929L36.9626 19.8007C34.293 17.512 30.8926 16.2539 27.3761 16.2539C23.8597 16.2539 20.4593 17.512 17.7897 19.8007L15.6989 21.5929ZM23.0987 22.2422C23.0986 21.4037 23.345 20.5836 23.8073 19.8839C24.2695 19.1843 24.9272 18.6359 25.6985 18.307C25.609 19.0503 25.7161 19.804 26.0091 20.4929C26.3022 21.1817 26.7708 21.7816 27.3684 22.2326C27.9659 22.6836 28.6713 22.9699 29.4141 23.0628C30.1569 23.1558 30.9111 23.0522 31.6013 22.7623C31.4932 23.6508 31.1091 24.4831 30.503 25.1418C29.897 25.8004 29.0995 26.2524 28.2231 26.434C28.215 25.8073 28.0683 25.1902 27.7935 24.6269C27.5187 24.0636 27.1226 23.5681 26.6336 23.176C26.1447 22.7839 25.575 22.5048 24.9655 22.3589C24.3559 22.213 23.7217 22.2038 23.1082 22.332C23.1073 22.3012 23.0987 22.273 23.0987 22.2422ZM27.5353 17.9811C28.405 18.0149 29.2436 18.3141 29.9384 18.8385C30.6332 19.3629 31.1508 20.0873 31.4217 20.9145C31.0376 21.1854 30.5865 21.3456 30.1177 21.3776C29.6488 21.4097 29.1801 21.3124 28.7627 21.0964C28.3454 20.8803 27.9953 20.5538 27.7508 20.1524C27.5063 19.7511 27.3767 19.2903 27.3761 18.8203C27.3821 18.5337 27.4359 18.25 27.5353 17.9811ZM26.5121 26.434C25.8536 26.2955 25.2369 26.004 24.712 25.583C24.1871 25.1619 23.7686 24.6232 23.4906 24.0105C23.643 23.9771 23.7982 23.9579 23.9542 23.9531C24.6188 23.955 25.2568 24.2146 25.7339 24.6773C26.211 25.14 26.49 25.7698 26.5121 26.434ZM37.1833 22.2422L35.8496 23.3851C34.8154 24.2661 33.6495 24.9797 32.3944 25.4998C33.0273 24.5313 33.3644 23.3993 33.3644 22.2422C33.3644 21.0851 33.0273 19.9531 32.3944 18.9846C33.6495 19.5047 34.8154 20.2183 35.8496 21.0993L37.1833 22.2422ZM22.3579 18.9846C21.7249 19.9531 21.3878 21.0851 21.3878 22.2422C21.3878 23.3993 21.7249 24.5313 22.3579 25.4998C21.1043 24.9793 19.9399 24.2658 18.9069 23.3851L17.5689 22.2422L18.9069 21.0993C19.9399 20.2186 21.1043 19.5051 22.3579 18.9846Z" fill="black"/>
<path d="M15.3985 5.98828C16.3434 5.98828 17.1094 5.22227 17.1094 4.27734C17.1094 3.33242 16.3434 2.56641 15.3985 2.56641C14.4535 2.56641 13.6875 3.33242 13.6875 4.27734C13.6875 5.22227 14.4535 5.98828 15.3985 5.98828Z" fill="black"/>
<path d="M20.5313 5.98828C21.4762 5.98828 22.2422 5.22227 22.2422 4.27734C22.2422 3.33242 21.4762 2.56641 20.5313 2.56641C19.5863 2.56641 18.8203 3.33242 18.8203 4.27734C18.8203 5.22227 19.5863 5.98828 20.5313 5.98828Z" fill="black"/>
<path d="M25.6641 5.98828C26.609 5.98828 27.375 5.22227 27.375 4.27734C27.375 3.33242 26.609 2.56641 25.6641 2.56641C24.7191 2.56641 23.9531 3.33242 23.9531 4.27734C23.9531 5.22227 24.7191 5.98828 25.6641 5.98828Z" fill="black"/>
</svg>
