<svg width="48" height="48" viewBox="0 0 48 48" fill="none" xmlns="http://www.w3.org/2000/svg">
<path d="M20.7051 1.5061V32.0001L36.5167 41.0354L40.2818 43.1061V12.8001L20.7051 1.5061Z" fill="#FFFBDB"/>
<path d="M40.2812 43.106L42.7282 41.6V11.2939L40.2812 12.8V43.106Z" fill="#1F5C9C"/>
<path d="M20.7051 1.50602L22.9641 0L42.7288 11.294L40.2818 12.8L20.7051 1.50602Z" fill="#FFD900"/>
<path d="M20.7051 4.89429L36.5167 14.3059V41.0353L20.7051 31.9999V4.89429Z" fill="#AED8E8"/>
<path d="M12.0449 6.3999V36.3292L31.6212 47.9999V17.6943L12.0449 6.3999Z" fill="#FFFBDB"/>
<path d="M31.623 47.9999L33.8817 46.4939V16.1882L31.623 17.6942V47.9999Z" fill="#1F5C9C"/>
<path d="M12.0449 6.39993L14.3036 4.89429L33.8799 16.1883L31.6212 17.6943L12.0449 6.39993Z" fill="#FFD900"/>
<path d="M15.4336 11.6707V23.5293L28.2336 30.8707V19.012L15.4336 11.6707Z" fill="#E8AE00"/>
<path d="M17.6934 18.6353V21.0822L20.5167 25.2236L26.5404 21.8353V19.3883L20.5167 22.7766L17.6934 18.6353Z" fill="#FFFBDB"/>
<path d="M15.4336 25.4116V26.9176L28.2336 34.447V32.753L15.4336 25.4116Z" fill="#639DEB"/>
<path d="M15.4336 28.2354V29.741L28.2336 37.2707V35.5767L15.4336 28.2354Z" fill="#639DEB"/>
<path d="M15.4336 31.0591V32.5647L28.2336 40.0944V38.4001L15.4336 31.0591Z" fill="#639DEB"/>
<path d="M15.4336 34.0706V35.5766L28.2336 43.1059V41.4115L15.4336 34.0706Z" fill="#639DEB"/>
<path d="M5.26953 12.6116V30.3059L7.15186 31.4353V13.7413L5.26953 12.6116Z" fill="#E8AE00"/>
<path d="M7.15234 31.4354L9.03467 30.3061V12.8L7.15234 13.7414V31.4354Z" fill="#C77E00"/>
<path d="M5.26953 12.6117V11.4824L7.15186 12.6117V13.7414L5.26953 12.6117Z" fill="#639DEB"/>
<path d="M7.15234 12.6116V13.7413L9.03467 12.8V11.6707L7.15234 12.6116Z" fill="#1F5C9C"/>
<path d="M7.15186 9.6001L5.26953 10.5415V11.4824L7.15186 12.6118L9.03419 11.6708V10.5415L7.15186 9.6001Z" fill="#AED8E8"/>
<path d="M5.26953 30.3059L7.15186 34.0706V31.4352L5.26953 30.3059Z" fill="#FFD900"/>
<path d="M7.15234 31.4352L9.03467 30.3059L7.15234 34.0706V31.4352Z" fill="#E8AE00"/>
<path d="M6.39844 32.5647L7.15145 32.941V34.0707L6.39844 32.5647Z" fill="#7D878F"/>
<path d="M7.15234 32.941L7.90535 32.5647L7.15234 34.0707V32.941Z" fill="#303030"/>
<path d="M7.15186 11.6708L9.03419 10.5415L7.15186 9.6001L5.26953 10.5415L7.15186 11.6708Z" fill="#FFFBDB"/>
</svg>
