<svg width="40" height="40" viewBox="0 0 40 40" fill="none" xmlns="http://www.w3.org/2000/svg">
<path d="M20.4557 12.0092L20.2321 11.9197C20.0831 11.8601 19.9168 11.8601 19.7678 11.9197L19.5444 12.0092C17.7019 12.7479 15.735 13.1267 13.75 13.125C13.5842 13.125 13.4253 13.1909 13.3081 13.3081C13.1908 13.4253 13.125 13.5843 13.125 13.75V19.5469C13.125 21.1139 13.5613 22.6499 14.3851 23.9828C15.2088 25.3158 16.3875 26.393 17.7891 27.0938L19.7204 28.0594C19.8072 28.1028 19.9029 28.1254 19.9999 28.1254C20.097 28.1254 20.1927 28.1028 20.2795 28.0594L22.2109 27.0938C23.6125 26.393 24.7912 25.3158 25.6149 23.9828C26.4387 22.6499 26.875 21.1139 26.875 19.5469V13.75C26.875 13.5843 26.8092 13.4253 26.6919 13.3081C26.5747 13.1909 26.4158 13.125 26.25 13.125C24.265 13.1267 22.2981 12.7479 20.4557 12.0092ZM25.625 19.5469C25.6295 20.8827 25.2597 22.193 24.5575 23.3293C23.8552 24.4655 22.8486 25.3823 21.6519 25.9757L20 26.8013L18.3481 25.9753C17.1514 25.382 16.1449 24.4653 15.4426 23.3291C14.7404 22.1929 14.3705 20.8826 14.375 19.5469V14.3636C16.3045 14.2935 18.2075 13.8908 20 13.1732C21.7925 13.8909 23.6954 14.2936 25.625 14.3636V19.5469Z" fill="#0F0F0F"/>
<path d="M18.8795 19.2456L17.9956 20.1295L19.5581 21.692C19.6161 21.7501 19.685 21.7961 19.7609 21.8275C19.8367 21.8589 19.918 21.8751 20.0001 21.8751C20.0821 21.8751 20.1634 21.8589 20.2392 21.8275C20.3151 21.7961 20.384 21.7501 20.442 21.692L24.192 17.942L23.3081 17.0581L20.0001 20.3662L18.8795 19.2456Z" fill="#0F0F0F"/>
<path d="M15.625 20C15.625 21.1603 16.0859 22.2731 16.9064 23.0936C17.7269 23.9141 18.8397 24.375 20 24.375C21.1603 24.375 22.2731 23.9141 23.0936 23.0936C23.9141 22.2731 24.375 21.1603 24.375 20H23.125C23.1247 20.6875 22.8975 21.3556 22.4788 21.9008C22.0601 22.4461 21.4732 22.8379 20.8092 23.0157C20.1451 23.1934 19.441 23.1471 18.8059 22.884C18.1708 22.6208 17.6403 22.1555 17.2966 21.5601C16.9528 20.9648 16.8151 20.2726 16.9048 19.5911C16.9945 18.9095 17.3065 18.2765 17.7925 17.7903C18.2785 17.3041 18.9113 16.9918 19.5928 16.9019C20.2743 16.8119 20.9665 16.9493 21.562 17.2928L22.188 16.2107C21.5228 15.8269 20.7683 15.6249 20.0004 15.625C19.2324 15.6251 18.478 15.8273 17.8129 16.2113C17.1478 16.5953 16.5955 17.1476 16.2115 17.8126C15.8274 18.4777 15.6252 19.2321 15.625 20Z" fill="#0F0F0F"/>
<path d="M31.25 30V30.625H30.8839L29.8438 29.5846C29.0291 28.77 27.9574 28.2628 26.8109 28.1493C25.6645 28.0357 24.5141 28.323 23.5555 28.962L22.9618 29.3576L18.7963 28.979C18.127 28.9178 17.4572 29.0905 16.901 29.4679C16.3449 29.8452 15.9368 30.4038 15.7464 31.0483L14.5727 30.657C13.6114 30.3364 12.571 30.344 11.6145 30.6784C10.658 31.0129 9.8396 31.6553 9.28758 32.505C8.54102 32.644 7.85345 33.0041 7.31399 33.5386C6.77453 34.0731 6.40807 34.7573 6.26211 35.5025C6.24594 35.5834 6.24596 35.6668 6.26218 35.7477C6.2784 35.8287 6.31049 35.9056 6.3566 35.9741C6.40271 36.0425 6.46193 36.1012 6.53083 36.1466C6.59973 36.1921 6.67696 36.2235 6.75805 36.2389L19.883 38.7389C19.9721 38.7558 20.0637 38.7532 20.1516 38.7311L27.577 36.875H31.25V37.5C31.25 37.6658 31.3158 37.8247 31.4331 37.9419C31.5503 38.0592 31.7092 38.125 31.875 38.125H38.75V36.875H32.5V30.625H38.75V29.375H31.875C31.7092 29.375 31.5503 29.4408 31.4331 29.5581C31.3158 29.6753 31.25 29.8342 31.25 30ZM14.1773 31.843L16.0523 32.468C16.0858 32.4792 16.1201 32.4876 16.1549 32.493L18.9623 32.925L16.8225 33.7274L10.8834 32.5399C11.3209 32.1414 11.8568 31.8667 12.4358 31.7442C13.0147 31.6217 13.6159 31.6558 14.1773 31.843ZM27.5 35.625C27.4489 35.625 27.398 35.6313 27.3484 35.6437L19.9819 37.4853L7.6875 35.1436C7.87583 34.7471 8.16344 34.406 8.52243 34.1534C8.88142 33.9008 9.2996 33.7452 9.73641 33.7019C9.99195 33.6745 10.2502 33.6867 10.502 33.7379L16.752 34.9879C16.8664 35.0109 16.9849 35.0012 17.0941 34.9602L21.486 33.313L24.2796 33.7427L24.4696 32.5072L16.9581 31.3516C17.0769 30.9969 17.3118 30.6927 17.6248 30.4881C17.9378 30.2834 18.3107 30.1903 18.6832 30.2237L23.0684 30.6221C23.2106 30.6352 23.353 30.599 23.4717 30.5197L24.2487 30.0017C24.9668 29.523 25.8286 29.3078 26.6875 29.3929C27.5464 29.4779 28.3493 29.8579 28.9596 30.4682L30.183 31.6916C30.241 31.7497 30.3099 31.7958 30.3857 31.8273C30.4616 31.8588 30.5429 31.875 30.625 31.875H31.25V35.625H27.5Z" fill="#0F0F0F"/>
<path d="M8.75 9.99988V9.37488H9.11609L10.1562 10.4153C10.9709 11.2299 12.0426 11.7371 13.1891 11.8506C14.3355 11.9641 15.4859 11.6769 16.4445 11.0379L17.0382 10.6423L21.2037 11.0209C21.873 11.0821 22.5428 10.9093 23.099 10.532C23.6551 10.1547 24.0632 9.59613 24.2536 8.9516L25.4274 9.34285C26.3889 9.66389 27.4297 9.65658 28.3865 9.32205C29.3434 8.98752 30.162 8.34473 30.714 7.49457C31.4602 7.35529 32.1475 6.99513 32.6866 6.46074C33.2258 5.92635 33.5921 5.24236 33.738 4.49738C33.7541 4.41644 33.7541 4.33309 33.7379 4.25215C33.7217 4.17121 33.6896 4.09429 33.6435 4.02582C33.5974 3.95735 33.5382 3.89869 33.4692 3.85324C33.4003 3.80778 33.3231 3.77642 33.242 3.76098L20.117 1.26098C20.028 1.24406 19.9364 1.24672 19.8485 1.26879L12.423 3.12488H8.75V2.49988C8.75 2.33412 8.68415 2.17515 8.56694 2.05794C8.44973 1.94073 8.29076 1.87488 8.125 1.87488H1.25V3.12488H7.5V9.37488H1.25V10.6249H8.125C8.29076 10.6249 8.44973 10.559 8.56694 10.4418C8.68415 10.3246 8.75 10.1656 8.75 9.99988ZM25.8227 8.15691L23.9477 7.53191C23.9142 7.52068 23.8799 7.51229 23.8451 7.50684L21.0377 7.07488L23.1775 6.27246L29.1166 7.45996C28.6791 7.85851 28.1433 8.1332 27.5643 8.2557C26.9853 8.37821 26.3841 8.34411 25.8227 8.15691ZM12.5 4.37488C12.5511 4.3749 12.602 4.36862 12.6516 4.35621L20.0181 2.51457L32.3125 4.85629C32.1242 5.25279 31.8366 5.59389 31.4776 5.8465C31.1186 6.0991 30.7004 6.25463 30.2636 6.29801C30.008 6.32534 29.7498 6.31319 29.498 6.26199L23.248 5.01199C23.1336 4.98922 23.0151 4.99883 22.9059 5.03973L18.5136 6.68691L15.72 6.25723L15.53 7.4927L23.0419 8.64832C22.9231 9.00294 22.6882 9.30715 22.3752 9.51181C22.0622 9.71647 21.6893 9.80962 21.3168 9.77621L16.9316 9.37777C16.7894 9.36474 16.647 9.40089 16.5283 9.4802L15.7513 9.99816C15.0332 10.4769 14.1714 10.692 13.3125 10.607C12.4536 10.5219 11.6507 10.142 11.0404 9.53168L9.81703 8.30824C9.75901 8.25014 9.69011 8.20404 9.61426 8.17258C9.53841 8.14112 9.45711 8.12491 9.375 8.12488H8.75V4.37488H12.5Z" fill="#0F0F0F"/>
<path d="M33.75 34.375H35V35.625H33.75V34.375Z" fill="#0F0F0F"/>
<path d="M5 4.375H6.25V5.625H5V4.375Z" fill="#0F0F0F"/>
<path d="M11.2518 28.9286C8.99295 26.7153 7.65694 23.728 7.51299 20.5688C7.36903 17.4096 8.42783 14.3133 10.476 11.9037L9.524 11.0938C7.27079 13.7443 6.10597 17.1503 6.26425 20.6255C6.42253 24.1008 7.89215 27.3868 10.377 29.8216L11.2518 28.9286Z" fill="#0F0F0F"/>
<path d="M30.4761 28.9061C32.7992 26.1732 33.9626 22.6407 33.718 19.0622C33.4734 15.4837 31.8403 12.1423 29.1668 9.75098L28.3333 10.6824C30.7637 12.8563 32.2485 15.8938 32.4709 19.147C32.6934 22.4001 31.6359 25.6115 29.524 28.096L30.4761 28.9061Z" fill="#0F0F0F"/>
<path d="M5 28.75H3.75V30H2.5V31.25H3.75V32.5H5V31.25H6.25V30H5V28.75Z" fill="#0F0F0F"/>
<path d="M2.5 17.5H3.75V16.25H5V15H3.75V13.75H2.5V15H1.25V16.25H2.5V17.5Z" fill="#0F0F0F"/>
<path d="M3.125 22.5H4.375V23.75H3.125V22.5Z" fill="#0F0F0F"/>
<path d="M33.75 8.75V10H35V11.25H36.25V10H37.5V8.75H36.25V7.5H35V8.75H33.75Z" fill="#0F0F0F"/>
<path d="M37.5 23.75V22.5H36.25V23.75H35V25H36.25V26.25H37.5V25H38.75V23.75H37.5Z" fill="#0F0F0F"/>
<path d="M35.625 16.25H36.875V17.5H35.625V16.25Z" fill="#0F0F0F"/>
</svg>
