<svg width="400" height="390" viewBox="0 0 400 390" fill="none" xmlns="http://www.w3.org/2000/svg">
<path d="M0.13448 156.988C2.48399 124.74 22.9837 105.878 75.9517 94.4047C128.921 82.9312 109.187 20.3489 159.039 3.65977C208.892 -13.0293 222.394 31.8224 249.397 48.5105C276.401 65.1996 343.064 31.0684 375.068 80.8451C407.073 130.622 312.752 171.59 338.717 224.786C364.683 277.982 338.717 353.081 283.671 382.286C258.995 395.378 232.779 389.588 196.429 381.244C160.078 372.9 129.959 396.889 93.6077 379.158C57.2566 361.426 78.0288 273.81 63.488 243.562C48.9482 213.313 -2.98169 199.754 0.13448 156.988Z" fill="#F9F0FA"/>
<path d="M399.999 318.475V318.505C399.989 320.137 398.612 321.44 396.978 321.44H337.676V283.907C337.953 283.897 338.24 283.887 338.528 283.887C344.629 283.887 350.176 286.713 354.277 291.308C356.496 290.264 358.903 289.667 361.438 289.667C369.551 289.667 376.484 295.586 379.337 303.962C381.328 302.688 383.596 301.962 386.013 301.962C393.729 301.962 399.999 309.353 399.999 318.475Z" fill="#F6D4FA"/>
<path d="M20.6348 304.754C19.0955 304.754 17.793 303.379 17.791 301.649C17.791 301.638 17.791 301.627 17.791 301.617C17.791 291.994 23.6975 284.193 30.9837 284.193C33.2619 284.193 35.4054 284.956 37.2755 286.299C39.9707 277.461 46.5121 271.215 54.1688 271.215C56.5569 271.215 58.8321 271.839 60.9211 272.943C64.7941 268.097 70.02 265.118 75.7759 265.118C83.6188 265.118 90.4841 270.637 94.2709 278.894C97.596 274.181 102.324 271.215 107.587 271.215C117.648 271.215 125.805 281.988 125.805 295.276C125.805 297.767 125.516 300.169 124.983 302.429C124.656 303.812 123.515 304.754 122.241 304.754H20.6348Z" fill="#F6D4FA"/>
<path d="M161.565 72.5021C163.196 72.5021 164.577 71.1999 164.58 69.5606C164.58 69.5506 164.58 69.5407 164.58 69.5297C164.58 60.4128 158.319 53.0227 150.596 53.0227C148.181 53.0227 145.909 53.7459 143.927 55.0182C141.07 46.6453 134.136 40.7285 126.02 40.7285C123.488 40.7285 121.077 41.3194 118.862 42.3648C114.758 37.774 109.219 34.9519 103.117 34.9519C94.8048 34.9519 87.5265 40.1804 83.5139 48.0021C79.9886 43.5367 74.9776 40.7275 69.399 40.7275C58.7351 40.7275 50.0898 50.9327 50.0898 63.5214C50.0898 65.882 50.3959 68.158 50.9615 70.2977C51.3072 71.6078 52.5176 72.5011 53.8677 72.5011H161.565V72.5021Z" fill="#F6D4FA"/>
<path d="M242.029 362.47C311.188 362.47 367.253 357.123 367.253 350.528C367.253 343.934 311.188 338.587 242.029 338.587C172.869 338.587 116.805 343.934 116.805 350.528C116.805 357.123 172.869 362.47 242.029 362.47Z" fill="#B37EC2" stroke="#8E49A5" stroke-miterlimit="10"/>
<path d="M337.675 83.1647V334.531C337.675 340.967 332.485 346.189 326.076 346.189H194.872C188.464 346.189 183.273 340.967 183.273 334.531V83.1647C183.273 81.7621 183.521 80.4093 183.977 79.1658C185.601 74.6993 189.87 71.5161 194.872 71.5161H326.076C331.079 71.5161 335.348 74.6993 336.972 79.1658C337.428 80.4093 337.675 81.7621 337.675 83.1647Z" fill="white"/>
<path d="M336.972 79.1659C335.348 74.6994 331.078 71.5162 326.076 71.5162H293.186C293.229 71.368 293.249 71.2844 293.249 71.2844L227.701 71.3421C227.701 71.3421 227.713 71.4098 227.735 71.5152H194.872C189.87 71.5152 185.601 74.6984 183.977 79.1649H231.32C235.296 84.6132 243.468 90.8175 260.013 90.2903C275.894 89.784 284.331 84.1636 288.728 79.1649L336.972 79.1659Z" fill="#E3BCE8"/>
<path d="M263.59 80.1507C263.59 81.8786 262.195 83.2803 260.474 83.2803C258.752 83.2803 257.357 81.8796 257.357 80.1507C257.357 78.4229 258.752 77.0212 260.474 77.0212C262.195 77.0212 263.59 78.4229 263.59 80.1507Z" fill="white"/>
<path d="M337.675 318.375V334.53C337.675 340.966 332.485 346.189 326.076 346.189H194.872C188.464 346.189 183.273 340.966 183.273 334.53V318.375H337.675Z" fill="#E3BCE8"/>
<path d="M273.285 337.435H247.666C243.842 337.435 240.742 334.321 240.742 330.482C240.742 326.641 243.842 323.528 247.666 323.528H273.285C277.109 323.528 280.208 326.642 280.208 330.482C280.208 334.321 277.109 337.435 273.285 337.435Z" fill="#B37EC2" stroke="#8E49A5" stroke-miterlimit="10"/>
<path d="M198.735 253.06C194.981 258.272 187.988 266.39 183.273 271.751V151.803C185.264 154.002 198.904 169.729 195.041 183.069C190.891 197.433 191.812 213.2 195.962 222.003C200.122 230.817 204.738 244.724 198.735 253.06Z" fill="#F6D4FA"/>
<path d="M337.675 83.1647V334.531C337.675 340.967 332.485 346.189 326.076 346.189H194.872C188.464 346.189 183.273 340.967 183.273 334.531V83.1647C183.273 81.7621 183.521 80.4093 183.977 79.1658C185.601 74.6993 189.87 71.5161 194.872 71.5161H326.076C331.079 71.5161 335.348 74.6993 336.972 79.1658C337.428 80.4093 337.675 81.7621 337.675 83.1647Z" stroke="#8E49A5" stroke-miterlimit="10"/>
<path d="M317.425 241.011C317.425 245.044 289.86 248.313 263.187 248.313C236.515 248.313 214.893 245.044 214.893 241.011C214.893 236.978 236.515 233.71 263.187 233.71C289.86 233.71 317.425 236.979 317.425 241.011Z" fill="#F6D4FA"/>
<path d="M321.221 218.8L321.251 218.94L268.219 233.752C266.565 233.722 264.891 233.712 263.187 233.712C250.716 233.712 239.325 234.428 230.757 235.602L220.109 197.164L227.717 188.201L226.756 184.73L231.887 183.297L255.302 155.713L290.793 166.844L292.784 166.277L293.15 167.58L308.622 172.435L308.394 172.494L308.424 172.604L308.622 172.435L321.489 218.87L321.221 218.8Z" fill="#F5EBF5"/>
<path d="M268.219 233.751L232.977 243.6L230.758 235.602C239.326 234.428 250.717 233.712 263.187 233.712C264.891 233.712 266.565 233.722 268.219 233.751Z" fill="#F4C3FA"/>
<path d="M303.303 168.803L215.025 193.466L227.888 239.903L316.166 215.241L303.303 168.803Z" fill="#008075"/>
<path d="M215.039 193.455L250.229 152.005L303.55 168.723L215.039 193.455Z" fill="#008075"/>
<path d="M287.7 162.588L221.668 181.036L230.169 211.725L296.201 193.278L287.7 162.588Z" fill="#FCF6DE"/>
<path d="M265.661 201.8L227.904 239.893L215.039 193.455L265.661 201.8Z" fill="#008075"/>
<path d="M264.492 202.126L316.413 215.161L303.548 168.723L264.492 202.126Z" fill="#008075"/>
<path d="M295.615 179.439C302.13 179.439 307.41 174.135 307.41 167.593C307.41 161.051 302.13 155.747 295.615 155.747C289.101 155.747 283.82 161.051 283.82 167.593C283.82 174.135 289.101 179.439 295.615 179.439Z" fill="#FF6545"/>
<path d="M291.527 170.693H294.39V165.013H291.976V163.176C293.527 162.934 294.286 162.657 295.183 162.103H297.356V170.693H299.702V173.083H291.527V170.693Z" fill="white"/>
<path d="M219.74 159.886C219.74 161.806 218.19 163.362 216.278 163.362C214.367 163.362 212.816 161.806 212.816 159.886C212.816 157.966 214.367 156.409 216.278 156.409C218.19 156.409 219.74 157.966 219.74 159.886Z" fill="#F6D4FA"/>
<path d="M281.56 146.074C281.56 148.794 279.364 151 276.655 151C273.946 151 271.75 148.794 271.75 146.074C271.75 143.353 273.946 141.147 276.655 141.147C279.363 141.147 281.56 143.353 281.56 146.074Z" fill="#F6D4FA"/>
<path d="M251.769 278.781C251.769 282.457 248.801 285.437 245.141 285.437C241.481 285.437 238.514 282.457 238.514 278.781C238.514 275.106 241.481 272.125 245.141 272.125C248.802 272.125 251.769 275.106 251.769 278.781Z" fill="#F6D4FA"/>
<path d="M237.658 131.362L239.434 125.164L241.211 131.362L245.315 133.146L241.211 134.929L239.434 141.127L237.658 134.929L233.555 133.146L237.658 131.362Z" fill="#78457E"/>
<path d="M302.596 265.117L304.372 258.92L306.149 265.117L310.253 266.901L306.149 268.685L304.372 274.883L302.596 268.685L298.492 266.901L302.596 265.117Z" fill="#78457E"/>
<path d="M155.751 337.783C155.751 337.783 140.172 343.694 139.826 345.78C139.713 346.462 139.692 347.331 139.716 348.191C139.769 350.138 141.352 351.691 143.293 351.691H167.202C169.015 351.691 170.535 350.328 170.754 348.521C171.002 346.467 171.188 344.023 170.812 343.173C170.12 341.608 167.177 337.783 167.177 337.783H155.751Z" fill="#572F63"/>
<path d="M167.177 337.783C167.177 337.783 165.965 339.522 161.638 339.174C157.31 338.827 155.752 337.783 155.752 337.783V328.917H167.177V337.783Z" fill="#FBBA99"/>
<path d="M142.77 239.042L151.77 329.091C151.77 329.091 154.54 332.047 160.599 332.047C166.658 332.047 170.12 328.744 170.12 328.744L161.811 241.302L142.77 239.042Z" fill="#FFAF2E"/>
<path d="M191.583 318.196C191.583 318.196 184.945 333.536 186.193 335.239C186.206 335.256 186.218 335.272 186.231 335.29C188.101 337.786 191.8 337.926 193.968 335.686L208.505 320.664C210.367 318.741 210.453 315.708 208.709 313.674C207.663 312.455 206.582 311.349 205.925 311.107C204.326 310.515 199.544 309.969 199.544 309.969L191.583 318.196Z" fill="#572F63"/>
<path d="M199.547 309.969C199.547 309.969 199.944 312.053 196.68 314.928C193.415 317.802 191.584 318.196 191.584 318.196L185.254 312.017L193.217 303.789L199.547 309.969Z" fill="#FBBA99"/>
<path d="M156.27 241.475C156.27 241.475 136.421 277.633 145.654 286.905C154.885 296.177 184.89 315.183 184.89 315.183C184.89 315.183 187.776 313.619 191.583 308.925C195.392 304.231 195.392 302.493 195.392 302.493C195.392 302.493 180.505 284.24 178.081 282.502C175.658 280.764 169.253 277.981 169.253 277.981C169.253 277.981 182.928 261.988 186.736 253.992C190.544 245.995 182.927 239.042 182.927 239.042L156.27 241.475Z" fill="#FED45A"/>
<path d="M175.944 239.391C175.765 240.197 175.557 240.675 175.31 240.784C171.674 242.346 152.637 241.122 152.637 241.122V240.516C152.884 240.555 153.043 240.585 153.112 240.595L153.152 240.605C153.152 240.605 155.925 229.593 157.976 217.338C161.611 215.895 166.91 213.209 171.873 209.797L172.883 223.565C172.883 223.565 171.783 235.104 175.746 239.193C175.805 239.262 175.874 239.332 175.944 239.391Z" fill="white"/>
<path d="M174.963 156.21C173.893 160.219 172.536 171.28 172.536 175.07C172.536 179.039 168.465 190.927 160.115 198.099C160.204 194.478 160.006 191.315 159.382 188.977C155.925 175.936 159.035 161.691 161.72 156.21C161.72 156.21 163.453 158.03 168.217 158.209C172.972 158.378 174.963 156.21 174.963 156.21Z" fill="white"/>
<path d="M101.908 217.816C101.908 217.816 107.894 217.953 108.031 217.164C108.167 216.374 107.141 213.797 107.141 213.797C107.141 213.797 103.653 211.942 101.908 217.816Z" fill="#FBBA99"/>
<path d="M159.383 188.977C160.007 191.315 160.205 194.478 160.116 198.099C159.967 203.859 159.076 210.772 157.976 217.338C155.926 229.593 153.152 240.605 153.152 240.605L153.113 240.595C153.043 240.585 152.885 240.555 152.637 240.516C150.676 240.197 143.614 238.884 140.612 236.656C139.939 236.168 139.473 235.631 139.305 235.044C138.423 231.941 140.414 227.842 142.306 223.048C142.643 222.202 142.97 221.327 143.287 220.441C144.356 217.387 145.07 210.951 145.496 205.43C145.902 200.278 146.06 195.93 146.06 195.93C146.06 195.93 144.356 200.765 138.146 207.728C137.492 208.464 136.779 209.22 136.016 210.006C134.194 211.876 131.916 213.349 129.489 214.503C121.317 218.392 111.442 218.701 111.442 218.701C111.442 218.701 110.223 209.141 110.57 207.748C110.917 206.356 115.76 203.58 123.724 201.491C131.688 199.402 138.265 180.283 146.229 169.161C154.192 158.03 161.72 156.21 161.72 156.21C159.036 161.691 155.926 175.936 159.383 188.977Z" fill="#78457E"/>
<path d="M152.637 245.818C151.944 246.166 139.136 243.738 138.958 242.694C138.809 241.779 140.256 237.651 140.612 236.656C143.99 239.163 152.488 240.506 153.112 240.595L153.152 240.605C153.152 240.605 153.33 245.469 152.637 245.818Z" fill="#FD6142"/>
<path d="M110.571 209.256C110.571 209.256 106.531 208.793 106.531 210.183C106.531 211.574 106.762 217.6 107.685 217.717C108.608 217.833 111.393 217.703 111.393 217.703L110.571 209.256Z" fill="#FD6142"/>
<path d="M85.929 200.444L79.582 209.985L99.3035 223.216L105.65 213.675L85.929 200.444Z" fill="#572F63"/>
<path d="M87.5187 203.15L82.6816 210.422L97.7126 220.506L102.55 213.235L87.5187 203.15Z" fill="white"/>
<path d="M102.209 217.325C102.209 217.742 101.872 218.081 101.456 218.081C101.04 218.081 100.703 217.742 100.703 217.325C100.703 216.908 101.04 216.569 101.456 216.569C101.872 216.57 102.209 216.908 102.209 217.325Z" fill="#2B1730"/>
<path d="M106.585 210.941C106.585 210.941 99.8089 209.418 100.002 211.173C100.195 212.928 106.715 213.984 106.715 213.984L106.585 210.941Z" fill="#FBBA99"/>
<path d="M197.29 240.088C196.081 244.435 195.566 244.604 195.566 244.604C195.566 244.604 181.025 243.56 176.35 240.088C176.212 239.988 176.073 239.869 175.944 239.74C175.875 239.68 175.805 239.61 175.746 239.541C171.784 235.452 172.883 223.913 172.883 223.913L171.873 210.146C173.547 209.002 175.181 207.768 176.697 206.465C178.846 204.635 180.768 202.665 182.234 200.626C183.839 198.378 185.332 193.756 186.62 189.787C186.689 191.498 187.692 213.866 189.683 218.88C191.753 224.091 198.508 235.741 197.29 240.088Z" fill="#78457E"/>
<path d="M195.566 244.256C195.566 244.256 193.318 250.513 192.278 250.861C191.238 251.209 175.142 245.3 173.923 244.604C172.715 243.908 175.142 239.043 175.142 239.043L175.746 239.193C175.924 239.392 176.132 239.581 176.35 239.74C181.025 243.211 195.566 244.256 195.566 244.256Z" fill="#FD6142"/>
<path d="M125.112 218.006C125.112 218.006 114.553 218.006 114.553 219.223C114.553 220.44 118.188 221.135 118.188 221.135C118.188 221.135 111.784 221.83 111.784 222.7C111.784 223.569 115.938 223.395 115.938 223.395C115.938 223.395 111.265 223.916 111.091 224.96C110.918 226.002 117.496 225.655 117.496 225.655C117.496 225.655 113.687 226.699 113.687 227.567C113.687 228.436 117.842 227.393 117.842 227.393C117.842 227.393 115.938 228.262 115.938 228.958C115.938 229.653 125.285 227.219 127.536 224.786C129.785 222.352 125.112 218.006 125.112 218.006Z" fill="#FBBA99"/>
<path d="M186.731 190.648C185.443 194.618 183.838 198.03 182.234 200.278C180.768 202.317 178.846 204.287 176.697 206.117C175.181 207.42 173.547 208.654 171.873 209.798C166.91 213.21 161.611 215.895 157.976 217.338C156.143 218.074 154.737 218.492 154.024 218.532C153.657 218.551 153.202 218.631 152.696 218.77C150.111 219.427 145.961 221.377 142.306 223.048C140.285 223.973 138.423 224.818 137.056 225.306C132.728 226.868 131.866 223.913 130.132 219.914C129.241 217.855 129.211 215.995 129.489 214.503C129.756 213.1 130.291 212.016 130.648 211.399C131.529 209.877 134.273 208.912 138.146 207.728C140.295 207.072 142.791 206.346 145.495 205.431C147.783 204.655 150.22 203.739 152.736 202.595C153.499 202.247 154.271 201.879 155.054 201.491C156.886 200.576 158.57 199.412 160.115 198.099C168.465 190.927 172.537 179.04 172.537 175.07C172.537 171.28 173.894 160.219 174.963 156.21C174.983 156.13 175.003 156.061 175.023 155.991V155.981C175.26 155.165 175.468 154.698 175.657 154.728C190.514 157.016 191.129 177.08 186.731 190.648Z" fill="#78457E"/>
<path d="M185.975 192.818C184.841 195.856 183.537 198.451 182.234 200.278C180.768 202.317 178.846 204.286 176.697 206.117C175.181 207.42 173.547 208.653 171.873 209.797" stroke="#AD6BB5" stroke-miterlimit="10" stroke-linecap="round"/>
<path d="M129.958 213.052C129.958 213.052 124.303 214.936 124.65 216.443C124.997 217.95 127.074 226.294 128.343 226.294C129.613 226.294 132.728 224.787 132.728 224.787L129.958 213.052Z" fill="#FD6142"/>
<path d="M174.962 134.474V156.309C174.962 156.309 172.971 158.368 168.217 158.209C163.452 158.04 161.719 156.309 161.719 156.309V134.474H174.962Z" fill="#FBBA99"/>
<path d="M175.31 127.352C175.31 127.65 175.31 127.959 175.29 128.267C175.28 128.705 175.27 129.143 175.241 129.58C175.241 129.59 175.241 129.6 175.241 129.6C175.221 129.938 175.201 130.267 175.171 130.605C175.102 131.56 174.993 132.495 174.854 133.4C174.815 133.649 174.775 133.907 174.726 134.156C174.716 134.236 174.706 134.325 174.686 134.405C174.686 134.425 174.676 134.445 174.676 134.474C174.666 134.534 174.656 134.594 174.637 134.654C174.587 134.942 174.528 135.23 174.468 135.519C174.468 135.519 174.468 135.519 174.458 135.519C173.705 139.04 172.477 142.174 170.892 144.661C170.674 145.009 170.447 145.347 170.209 145.666C169.436 146.75 168.575 147.695 167.663 148.461C165.89 149.943 163.909 150.779 161.809 150.779H161.72C159.729 150.759 157.837 149.983 156.144 148.62C151.686 145.039 148.546 137.379 148.328 128.406C148.309 128.058 148.309 127.7 148.309 127.352C148.309 124.736 148.427 122.209 148.715 119.861C148.873 118.538 149.091 117.275 149.359 116.061C150.963 108.82 154.628 103.906 161.809 103.906C171.932 103.906 174.498 110.59 175.122 119.861C175.28 122.209 175.31 124.736 175.31 127.352Z" fill="#FBBA99"/>
<path d="M176.297 119.859H147.539C147.669 118.78 147.83 117.731 148.035 116.723C148.089 116.445 148.143 116.168 148.208 115.89C148.219 115.839 148.229 115.777 148.24 115.726C149.988 107.838 153.979 102.49 161.8 102.49C172.824 102.489 175.617 109.76 176.297 119.859Z" fill="#71BD9F"/>
<path d="M167.957 115.071C167.957 115.071 170.722 114.712 170.722 119.624" stroke="#83DBB8" stroke-width="0.7" stroke-miterlimit="10" stroke-linecap="round"/>
<path d="M163.104 108.121H162.128C159.101 108.121 156.646 110.586 156.646 113.626V115.31H168.585V113.626C168.585 110.586 166.131 108.121 163.104 108.121Z" fill="#412444"/>
<path d="M180.501 132.077C180.392 134.823 177.391 135.589 175.192 135.589C175.113 135.589 175.033 135.589 174.964 135.579C174.786 135.579 174.617 135.559 174.469 135.519C174.528 135.231 174.588 134.942 174.637 134.654C174.657 134.594 174.667 134.534 174.667 134.475C174.677 134.455 174.687 134.425 174.687 134.405C174.706 134.325 174.716 134.236 174.726 134.156C174.776 133.908 174.815 133.659 174.855 133.4C174.994 132.495 175.103 131.56 175.172 130.605C175.202 130.277 175.222 129.938 175.241 129.6C175.241 129.6 175.241 129.59 175.241 129.58C175.271 129.153 175.281 128.705 175.291 128.267C175.806 128.028 176.38 127.899 176.985 127.899C179.184 127.899 180.62 129.322 180.501 132.077Z" fill="#FBBA99"/>
<path d="M144.238 132.018C144.327 134.267 146.782 134.891 148.58 134.891C148.807 134.891 149.001 134.868 149.172 134.83C148.775 132.968 148.54 130.976 148.499 128.898C148.078 128.705 147.608 128.596 147.113 128.596C145.316 128.596 144.141 129.763 144.238 132.018Z" fill="#FBBA99"/>
<path d="M153.142 119.859C152.201 126.574 148.626 128.274 148.328 128.406C148.309 128.057 148.309 127.698 148.309 127.349C148.309 124.733 148.427 122.212 148.715 119.86H153.142V119.859Z" fill="#412444"/>
<path d="M175.309 127.348C175.309 127.651 175.309 127.962 175.29 128.264C175.27 129.152 175.23 130.03 175.151 130.899C175.092 130.881 175.032 130.843 174.963 130.815C170.208 128.417 170.119 120.002 170.119 120.002L175.121 119.861C175.28 122.211 175.309 124.732 175.309 127.348Z" fill="#412444"/>
<path d="M170.207 145.668C170.158 145.848 170.099 146.046 170.029 146.244C167.85 152.694 163.898 153.478 161.719 153.355V150.777H161.808C163.908 150.777 165.889 149.946 167.662 148.463C168.573 147.699 169.435 146.755 170.207 145.668Z" fill="#FB5F50"/>
<path d="M153.565 128.256C153.565 128.256 152.64 131.606 155.03 131.436C157.421 131.266 156.804 128.313 156.804 128.313" stroke="#412444" stroke-width="0.6" stroke-miterlimit="10" stroke-linecap="round"/>
<path d="M162.393 128.256C162.393 128.256 161.468 131.606 163.858 131.436C166.249 131.266 165.632 128.313 165.632 128.313" stroke="#412444" stroke-width="0.6" stroke-miterlimit="10" stroke-linecap="round"/>
<path d="M159.472 127.261C159.472 127.261 159.456 130.031 159.039 132.377C158.755 133.977 157.943 134.495 158.087 135.513C158.232 136.53 160.684 136.338 160.684 136.338" stroke="#412444" stroke-width="0.6" stroke-miterlimit="10" stroke-linecap="round"/>
<path d="M156.68 138.484C156.68 138.484 156.056 141.95 159.799 141.702C163.542 141.455 162.71 138.237 162.71 138.237" stroke="#412444" stroke-width="0.6" stroke-miterlimit="10" stroke-linecap="round"/>
<path d="M153.414 137.659C154.322 137.659 155.058 136.957 155.058 136.091C155.058 135.225 154.322 134.523 153.414 134.523C152.506 134.523 151.77 135.225 151.77 136.091C151.77 136.957 152.506 137.659 153.414 137.659Z" fill="#FB8378"/>
<path d="M169.121 136.091C169.121 136.956 168.385 137.659 167.476 137.659C166.568 137.659 165.832 136.956 165.832 136.091C165.832 135.225 166.568 134.523 167.476 134.523C168.385 134.523 169.121 135.225 169.121 136.091Z" fill="#FB8378"/>
<path d="M167.664 148.464C165.891 149.946 163.91 150.778 161.81 150.778C159.79 150.778 157.868 150.003 156.145 148.615C158.343 147.652 162.959 146.235 167.664 148.464Z" fill="#FB8378"/>
<path d="M152.578 124.814C152.578 124.814 155.002 123.164 157.425 124.814" stroke="#412444" stroke-miterlimit="10" stroke-linecap="round"/>
<path d="M161.637 124.759C161.637 124.759 164.061 123.108 166.483 124.759" stroke="#412444" stroke-miterlimit="10" stroke-linecap="round"/>
<path d="M181.659 135.32C180.46 137.936 177.568 141.816 174.963 143.825V135.579C175.032 135.589 175.111 135.589 175.191 135.589C177.39 135.589 180.391 134.823 180.5 132.077C180.619 129.322 179.183 127.899 176.984 127.899C176.379 127.899 175.805 128.029 175.29 128.267C175.31 127.959 175.31 127.651 175.31 127.352C175.31 124.736 175.28 122.209 175.121 119.862C175.121 119.862 183.62 131.033 181.659 135.32Z" fill="#2CAB79"/>
<path d="M72.3164 152.955C72.3164 140.077 85.0525 129.638 100.762 129.638C116.473 129.638 129.208 140.078 129.208 152.955C129.208 165.834 116.472 176.273 100.762 176.273C97.6241 176.273 94.613 175.84 91.79 175.07C91.5859 176.459 90.9391 181.9 92.5358 186.31C92.5358 186.31 72.3164 173.503 72.3164 152.955Z" fill="white" stroke="#A169B0" stroke-miterlimit="10" stroke-linecap="round" stroke-linejoin="round"/>
<path d="M113.08 161.337L86.0597 162.384L85.5664 146.618L112.588 145.57L113.08 161.337Z" fill="#008075"/>
<path d="M99.5129 153.173L86.0597 162.385L85.5664 146.618L99.5129 153.173Z" fill="#008075"/>
<path d="M99.1562 153.187L113.152 161.334L112.66 145.567L99.1562 153.187Z" fill="#008075"/>
<path d="M116.342 144.665C116.342 147.32 114.199 149.472 111.556 149.472C108.913 149.472 106.77 147.32 106.77 144.665C106.77 142.011 108.912 139.858 111.556 139.858C114.199 139.858 116.342 142.01 116.342 144.665Z" fill="#FF6545"/>
<path d="M109.898 145.922H111.06V143.618H110.081V142.872C110.711 142.774 111.018 142.662 111.382 142.437H112.264V145.921H113.216V146.891H109.898V145.922Z" fill="white"/>
<path d="M143.711 303.598L138.809 304.144L138.562 301.585L143.376 301.023L143.711 303.598Z" fill="#A169B0"/>
<path d="M132.906 304.589L127.98 304.791L127.91 302.278L132.758 302.054L132.906 304.589Z" fill="#A169B0"/>
<path d="M122.066 304.83L117.137 304.693L117.237 302.238L122.089 302.347L122.066 304.83Z" fill="#A169B0"/>
<path d="M111.229 304.318L106.322 303.824L106.595 301.44L111.423 301.899L111.229 304.318Z" fill="#A169B0"/>
<path d="M100.456 303.009L95.5977 302.135L96.0454 299.835L100.824 300.668L100.456 303.009Z" fill="#A169B0"/>
<path d="M89.8143 300.847L85.043 299.565L85.67 297.366L90.3591 298.6L89.8143 300.847Z" fill="#A169B0"/>
<path d="M79.3914 297.77L74.7578 296.055L75.5661 293.977L80.1175 295.635L79.3914 297.77Z" fill="#A169B0"/>
<path d="M69.3009 293.727L64.8555 291.559L65.841 289.624L70.2062 291.725L69.3009 293.727Z" fill="#A169B0"/>
<path d="M59.6636 288.682L55.4688 286.057L56.6227 284.285L60.7433 286.834L59.6636 288.682Z" fill="#A169B0"/>
<path d="M50.6114 282.635L46.7266 279.566L48.0301 277.976L51.8505 280.961L50.6114 282.635Z" fill="#A169B0"/>
<path d="M42.2713 275.63L38.7461 272.15L40.1754 270.753L43.6472 274.144L42.2713 275.63Z" fill="#A169B0"/>
<path d="M34.7482 267.751L31.6172 263.914L33.1426 262.712L36.234 266.461L34.7482 267.751Z" fill="#A169B0"/>
<path d="M28.1057 259.121L25.3848 254.988L26.9755 253.977L29.6707 258.025L28.1057 259.121Z" fill="#A169B0"/>
<path d="M22.3618 249.876L20.043 245.506L21.6694 244.673L23.9743 248.964L22.3618 249.876Z" fill="#A169B0"/>
<path d="M17.497 240.146L15.5645 235.599L17.2018 234.927L19.1323 239.403L17.497 240.146Z" fill="#A169B0"/>
<path d="M13.4626 230.054L11.8867 225.376L13.5161 224.846L15.098 229.462L13.4626 230.054Z" fill="#A169B0"/>
<path d="M10.2289 219.67L9.08984 214.848L10.7083 214.499L11.8544 219.237L10.2289 219.67Z" fill="#A169B0"/>
<path d="M8.03489 208.995L7.42969 204.074L9.02145 203.915L9.64053 208.748L8.03489 208.995Z" fill="#A169B0"/>
<path d="M7.04715 198.136L7.02734 193.177L8.56958 193.21L8.61514 198.082L7.04715 198.136Z" fill="#A169B0"/>
<path d="M7.36719 187.238L7.95556 182.314L9.42648 182.531L8.87277 187.372L7.36719 187.238Z" fill="#A169B0"/>
<path d="M9.02734 176.464L10.2179 171.656L11.5967 172.037L10.4507 176.774L9.02734 176.464Z" fill="#A169B0"/>
<path d="M11.9883 165.984L13.7395 161.355L15.0113 161.875L13.3096 166.444L11.9883 165.984Z" fill="#A169B0"/>
<path d="M16.1562 155.932L18.4107 151.533L19.5686 152.163L17.3667 156.516L16.1562 155.932Z" fill="#A169B0"/>
<path d="M21.3867 146.406L24.076 142.265L25.118 142.977L22.4803 147.084L21.3867 146.406Z" fill="#A169B0"/>
<path d="M27.5352 137.459L30.5949 133.591L31.524 134.36L28.5148 138.205L27.5352 137.459Z" fill="#A169B0"/>
<path d="M34.4648 129.116L37.8405 125.526L38.6617 126.33L35.3345 129.907L34.4648 129.116Z" fill="#A169B0"/>
<path d="M42.0625 121.385L45.7116 118.078L46.4307 118.902L42.8272 122.202L42.0625 121.385Z" fill="#A169B0"/>
<path d="M50.2402 114.285L54.1379 111.278L54.754 112.112L50.9039 115.115L50.2402 114.285Z" fill="#A169B0"/>
<path d="M59.0469 107.832L61.1587 106.494L61.6628 107.35L59.5996 108.673L59.0469 107.832Z" fill="#A169B0"/>
<path d="M70.9333 107.784C70.9333 107.784 42.9928 103.072 42.4064 103.547C41.82 104.021 40.8008 112.186 40.8008 112.186L70.9333 107.784Z" fill="#008075"/>
<path d="M70.9323 107.784C70.9323 107.784 35.0537 110.174 33.8324 112.514C32.6111 114.855 30.7321 133.566 31.9148 133.478C33.0974 133.389 70.9323 107.784 70.9323 107.784Z" fill="#008075"/>
</svg>
