<svg width="35" height="39" viewBox="0 0 35 39" fill="none" xmlns="http://www.w3.org/2000/svg">
<path d="M18.2371 38.7504H16.1389C15.2439 38.7504 14.5079 38.0565 14.4408 37.1783H2.62964C2.28448 37.1783 2.00464 36.8985 2.00464 36.5533V15.6245C2.00464 15.2794 2.28448 14.9995 2.62964 14.9995H5.36308V16.2495H3.25464V35.9283H15.0608C15.406 35.9283 15.6858 36.2082 15.6858 36.5533V37.0473C15.6858 37.2972 15.8891 37.5004 16.1389 37.5004H18.2371C18.487 37.5004 18.6903 37.2972 18.6903 37.0473V36.5533C18.6903 36.2082 18.9702 35.9283 19.3153 35.9283H31.0985V16.2495H28.9901V14.9995H31.7235C32.0687 14.9995 32.3485 15.2794 32.3485 15.6245V36.5533C32.3485 36.8985 32.0687 37.1783 31.7235 37.1783H19.9353C19.8682 38.0565 19.1322 38.7504 18.2371 38.7504Z" fill="#0F0F0F"/>
<path d="M17.1766 37.0292C17.0687 37.0292 16.9607 37.0013 16.8641 36.9454C14.3566 35.4978 10.5946 34.794 5.36304 34.794C5.01788 34.794 4.73804 34.5142 4.73804 34.169V13.9194C4.73804 13.5743 5.01788 13.2944 5.36304 13.2944C9.51562 13.2944 11.5061 13.564 13.5408 14.0295L13.2621 15.2481C11.418 14.8262 9.60116 14.5724 5.98812 14.5466V33.5475C10.5371 33.5973 14.0114 34.1983 16.5516 35.3773V22.619H17.8016V36.4041C17.8016 36.6274 17.6826 36.8337 17.4891 36.9454C17.3924 37.0012 17.2844 37.0292 17.1766 37.0292Z" fill="#0F0F0F"/>
<path d="M17.489 36.9454L16.864 35.863C19.4625 34.3628 23.2289 33.6038 28.365 33.5475V14.5466C24.752 14.5724 22.9352 14.8262 21.091 15.2481L20.8123 14.0295C22.8471 13.564 24.8375 13.2944 28.9901 13.2944C29.3353 13.2944 29.6151 13.5743 29.6151 13.9194V34.169C29.6151 34.5141 29.3353 34.794 28.9901 34.794C23.7585 34.794 19.9965 35.4978 17.489 36.9454Z" fill="#0F0F0F"/>
<path d="M19.6958 32.5555C19.43 32.5555 19.1834 32.3846 19.0997 32.1175C18.9963 31.7881 19.1795 31.4374 19.5089 31.3341C21.4887 30.713 23.6914 30.3624 26.4408 30.2308C26.7864 30.2136 27.0786 30.4805 27.0951 30.8251C27.1115 31.17 26.8455 31.4628 26.5007 31.4794C23.8608 31.6057 21.7581 31.9385 19.883 32.5267C19.8208 32.5462 19.7578 32.5555 19.6958 32.5555ZM14.6574 32.5555C14.5955 32.5555 14.5324 32.5462 14.4702 32.5267C12.5951 31.9385 10.4923 31.6057 7.85256 31.4794C7.50779 31.4628 7.2417 31.17 7.25819 30.8251C7.27467 30.4804 7.56733 30.2161 7.9124 30.2308C10.6618 30.3624 12.8645 30.713 14.8444 31.3341C15.1737 31.4374 15.357 31.7882 15.2536 32.1175C15.1697 32.3846 14.9233 32.5555 14.6574 32.5555ZM14.6575 29.1659C14.5971 29.1659 14.5357 29.1571 14.475 29.1385C12.5201 28.5425 10.4782 28.2237 7.8542 28.105C7.50936 28.0894 7.24248 27.7972 7.25803 27.4523C7.27366 27.1075 7.56592 26.8424 7.91069 26.8562C10.6435 26.9799 12.7805 27.315 14.8395 27.9427C15.1697 28.0434 15.3557 28.3926 15.2551 28.7228C15.173 28.9924 14.9252 29.1659 14.6575 29.1659ZM19.6958 29.1659C19.428 29.1659 19.1803 28.9924 19.0982 28.723C18.9976 28.3927 19.1836 28.0436 19.5137 27.9429C21.5728 27.3151 23.7098 26.98 26.4426 26.8563C26.7865 26.8421 27.0795 27.1076 27.0952 27.4525C27.1108 27.7973 26.8439 28.0894 26.499 28.1051C23.8751 28.2239 21.8332 28.5426 19.8783 29.1387C19.8176 29.157 19.7562 29.1659 19.6958 29.1659ZM19.6957 25.7709C19.4255 25.7709 19.1764 25.5942 19.0963 25.3219C18.999 24.9907 19.1887 24.6434 19.5198 24.546C21.698 23.9061 23.7043 23.5977 26.4444 23.4816C26.7878 23.4673 27.0807 23.7347 27.0953 24.0795C27.1099 24.4244 26.8422 24.7159 26.4973 24.7305C23.8656 24.8419 21.9462 25.1359 19.8722 25.7453C19.8133 25.7626 19.754 25.7709 19.6957 25.7709ZM14.6576 25.7709C14.5992 25.7709 14.5399 25.7626 14.4811 25.7454C12.4073 25.136 10.4879 24.842 7.85592 24.7305C7.51108 24.7159 7.24334 24.4244 7.25795 24.0796C7.27264 23.7348 7.56037 23.466 7.90889 23.4816C10.6493 23.5977 12.6555 23.9062 14.8334 24.5461C15.1646 24.6434 15.3542 24.9908 15.2569 25.3219C15.1769 25.5942 14.9277 25.7709 14.6576 25.7709ZM19.6957 22.3704C19.4226 22.3704 19.1719 22.1902 19.0944 21.9144C19.0009 21.5821 19.1945 21.2369 19.5269 21.1436C22.1551 20.4046 24.1938 20.1946 26.4464 20.1066C26.7909 20.0927 27.0819 20.3619 27.0954 20.7068C27.1088 21.0517 26.8401 21.3423 26.4952 21.3558C24.3312 21.4403 22.3755 21.6412 19.8651 22.347C19.8086 22.3628 19.7516 22.3704 19.6957 22.3704ZM14.6576 22.3704C14.6015 22.3704 14.5447 22.3628 14.4881 22.3469C11.9777 21.6411 10.0221 21.4402 7.85803 21.3556C7.51311 21.3421 7.24444 21.0516 7.25787 20.7066C7.27139 20.3617 7.56233 20.093 7.90686 20.1065C10.1594 20.1944 12.1982 20.4044 14.8264 21.1434C15.1587 21.2368 15.3523 21.5819 15.2589 21.9142C15.1814 22.1901 14.9306 22.3704 14.6576 22.3704ZM20.5474 18.7472C20.2655 18.7472 20.0095 18.555 19.9404 18.2687C19.8594 17.9332 20.0657 17.5955 20.4012 17.5145C22.7018 16.959 24.4208 16.803 26.4487 16.7313C26.7952 16.7197 27.0832 16.989 27.0954 17.3339C27.1075 17.6788 26.8378 17.9684 26.4928 17.9805C24.543 18.0494 22.8929 18.1987 20.6945 18.7296C20.6453 18.7415 20.596 18.7472 20.5474 18.7472ZM13.8058 18.7472C13.7572 18.7472 13.7079 18.7415 13.6586 18.7295C11.4604 18.1987 9.81022 18.0493 7.8603 17.9805C7.5153 17.9683 7.24561 17.6787 7.25772 17.3338C7.2699 16.9888 7.56061 16.7216 7.90436 16.7312C9.93233 16.8029 11.6514 16.9589 13.9519 17.5144C14.2875 17.5955 14.4938 17.9331 14.4127 18.2687C14.3437 18.555 14.0879 18.7472 13.8058 18.7472Z" fill="#0F0F0F"/>
<path d="M17.773 23.2437H16.5805C15.7293 23.2437 15.0366 22.5512 15.0366 21.6998V20.7808H16.2866V21.6998C16.2866 21.8591 16.4212 21.9937 16.5805 21.9937H17.773C17.9324 21.9937 18.067 21.8591 18.067 21.6998V20.7808H19.317V21.6998C19.317 22.5512 18.6244 23.2437 17.773 23.2437Z" fill="#0F0F0F"/>
<path d="M18.7155 21.4063H15.6382C14.7869 21.4063 14.0942 20.7137 14.0942 19.8623V18.9434H15.3442V19.8623C15.3442 20.0216 15.4788 20.1563 15.6382 20.1563H18.7155C18.8748 20.1563 19.0094 20.0216 19.0094 19.8623V18.9434H20.2594V19.8623C20.2594 20.7137 19.5668 21.4063 18.7155 21.4063Z" fill="#0F0F0F"/>
<path d="M19.6344 19.568H14.7192C13.8679 19.568 13.1753 18.8755 13.1753 18.0241V17.1051H14.4253V18.0241C14.4253 18.1834 14.5599 18.318 14.7192 18.318H19.6344C19.7937 18.318 19.9283 18.1834 19.9283 18.0241V17.1051H21.1783V18.0241C21.1783 18.8754 20.4857 19.568 19.6344 19.568ZM18.1533 16.0117H18.0558V14.7617H18.1533V16.0117ZM16.2977 16.0117H16.2003V14.7617H16.2977V16.0117Z" fill="#0F0F0F"/>
<path d="M20.5532 17.7304H13.8003C13.4693 17.7304 13.1958 17.4725 13.1763 17.1422C13.0396 14.8141 12.4639 13.8304 11.9072 12.879C11.4106 12.0302 10.897 11.1525 10.897 9.52342C10.897 6.06076 13.7141 3.24365 17.1767 3.24365C20.6394 3.24365 23.4565 6.06076 23.4565 9.52342C23.4565 11.1526 22.943 12.0302 22.4463 12.879C21.8896 13.8304 21.3139 14.8142 21.1771 17.1422C21.1577 17.4725 20.8842 17.7304 20.5532 17.7304ZM14.3784 16.4804H19.9752C20.1937 14.2537 20.84 13.149 21.3674 12.2476C21.8363 11.4465 22.2065 10.8137 22.2065 9.52334C22.2065 6.7499 19.9502 4.49357 17.1767 4.49357C14.4033 4.49357 12.147 6.7499 12.147 9.52334C12.147 10.8137 12.5172 11.4465 12.986 12.2476C13.5135 13.1491 14.1599 14.2537 14.3784 16.4804Z" fill="#0F0F0F"/>
<path d="M18.7783 17.1054H17.5283V11.504H16.8253V17.1054H15.5753V11.504H14.8862C13.817 11.504 12.9473 10.6341 12.9473 9.56496C12.9473 8.49582 13.8171 7.62598 14.8862 7.62598C15.9554 7.62598 16.8253 8.49582 16.8253 9.56496V10.254H17.5283V9.56496C17.5283 8.49574 18.3982 7.62598 19.4673 7.62598C20.5365 7.62598 21.4064 8.49582 21.4064 9.56496C21.4064 10.6341 20.5365 11.504 19.4673 11.504H18.7783V17.1054ZM18.7783 10.254H19.4673C19.8473 10.254 20.1564 9.94488 20.1564 9.56496C20.1564 9.18504 19.8473 8.87598 19.4673 8.87598C19.0874 8.87598 18.7783 9.18504 18.7783 9.56496V10.254ZM14.8862 8.8759C14.5063 8.8759 14.1973 9.18496 14.1973 9.56488C14.1973 9.9448 14.5063 10.2539 14.8862 10.2539H15.5753V9.56488C15.5753 9.18496 15.2662 8.8759 14.8862 8.8759Z" fill="#0F0F0F"/>
<path d="M17.1768 2.58203C16.8316 2.58203 16.5518 2.30219 16.5518 1.95703V0.625C16.5518 0.279844 16.8316 0 17.1768 0C17.5219 0 17.8018 0.279844 17.8018 0.625V1.95703C17.8018 2.30219 17.5219 2.58203 17.1768 2.58203Z" fill="#0F0F0F"/>
<path d="M12.9123 3.72502C12.6962 3.72502 12.4862 3.61291 12.3704 3.41244L11.7045 2.25892C11.5318 1.96002 11.6343 1.57775 11.9332 1.40517C12.2323 1.23244 12.6145 1.3351 12.787 1.63392L13.4529 2.78744C13.6256 3.08635 13.5231 3.46861 13.2242 3.64119C13.1257 3.69799 13.0182 3.72502 12.9123 3.72502Z" fill="#0F0F0F"/>
<path d="M9.78899 6.84685C9.68298 6.84685 9.57556 6.81982 9.47712 6.76302L8.3236 6.09708C8.0247 5.9245 7.9222 5.54224 8.09485 5.24333C8.26735 4.94435 8.6497 4.84185 8.9486 5.01458L10.1021 5.68052C10.401 5.8531 10.5035 6.23536 10.3309 6.53427C10.2151 6.73474 10.0049 6.84685 9.78899 6.84685Z" fill="#0F0F0F"/>
<path d="M21.4412 3.72503C21.3352 3.72503 21.2277 3.698 21.1293 3.64128C20.8304 3.4687 20.7279 3.08636 20.9005 2.78745L21.5664 1.63386C21.7391 1.33495 22.1212 1.23261 22.4202 1.40503C22.7191 1.57761 22.8216 1.95995 22.6491 2.25886L21.9831 3.41245C21.8673 3.61292 21.6572 3.72503 21.4412 3.72503Z" fill="#0F0F0F"/>
<path d="M24.5645 6.84681C24.3484 6.84681 24.1384 6.7347 24.0226 6.53424C23.8499 6.23533 23.9524 5.85306 24.2513 5.68049L25.4049 5.01455C25.704 4.84181 26.0861 4.94447 26.2586 5.2433C26.4313 5.5422 26.3288 5.92447 26.0299 6.09705L24.8763 6.76299C24.778 6.81978 24.6705 6.84681 24.5645 6.84681Z" fill="#0F0F0F"/>
<path d="M2.21348 12.795C1.99496 12.795 1.77653 12.7273 1.59004 12.5917C1.21653 12.3203 1.06176 11.843 1.20535 11.404L1.68223 9.94574L0.439338 9.04637C0.065119 8.77551 -0.09035 8.29855 0.0523844 7.85926C0.194963 7.42074 0.600197 7.12645 1.06106 7.12645H1.06317L2.59731 7.12941L3.06863 5.66941C3.21043 5.23012 3.61598 4.93473 4.07778 4.93457C4.53988 4.93457 4.94543 5.22988 5.08738 5.66949L5.55863 7.12949L7.09285 7.12652H7.09496C7.55582 7.12652 7.96098 7.42074 8.10356 7.85926C8.24629 8.29863 8.09082 8.77559 7.71668 9.04637L6.47371 9.94582L6.95059 11.404C7.0941 11.843 6.93949 12.3204 6.56598 12.5918C6.19215 12.8635 5.69035 12.8629 5.31731 12.5904L4.07801 11.6864L2.83856 12.5906C2.65168 12.7268 2.43254 12.795 2.21348 12.795ZM1.64731 8.37762L2.52692 9.01402C2.90184 9.28551 3.05707 9.76324 2.91324 10.203L2.57574 11.235L3.45293 10.5952C3.82692 10.3223 4.32942 10.3225 4.70324 10.5953L5.58035 11.235L5.24285 10.2031C5.09903 9.76316 5.25426 9.28543 5.6291 9.0141L6.50879 8.37762L5.42309 8.37965C5.42231 8.37965 5.4216 8.37965 5.42098 8.37965C4.95902 8.37965 4.55356 8.08457 4.41168 7.64473L4.07801 6.61168L3.74442 7.64496C3.60254 8.08465 3.19707 8.37973 2.73512 8.37973C2.73434 8.37973 2.73363 8.37973 2.73301 8.37973L1.64731 8.37762ZM3.89778 6.0534C3.89785 6.05363 3.89793 6.05387 3.89801 6.05402L3.89778 6.0534Z" fill="#0F0F0F"/>
<path d="M28.411 12.7951C28.1926 12.7951 27.9741 12.7274 27.7876 12.5918C27.414 12.3203 27.2593 11.843 27.4029 11.4041L27.8797 9.94582L26.6368 9.04644C26.2626 8.77559 26.1072 8.29863 26.2499 7.85934C26.3925 7.42082 26.7977 7.12652 27.2585 7.12652H27.2606L28.7948 7.12949L29.2661 5.66949C29.4081 5.22996 29.8136 4.93473 30.2753 4.93457C30.7372 4.93457 31.1428 5.2298 31.2848 5.66926C31.2848 5.66934 31.2849 5.66941 31.2849 5.66949L31.7561 7.12949L33.2903 7.12652H33.2924C33.7533 7.12652 34.1585 7.42074 34.3011 7.85926C34.4436 8.29879 34.2882 8.77574 33.9142 9.04637L32.6712 9.94582L33.1481 11.4041C33.2918 11.8429 33.1372 12.3203 32.7636 12.5918C32.3897 12.8635 31.8879 12.8629 31.5149 12.5904L30.2756 11.6864L29.0361 12.5906C28.8492 12.7269 28.6301 12.7951 28.411 12.7951ZM27.8448 8.3777L28.7244 9.0141C29.0993 9.28559 29.2546 9.76332 29.1108 10.2031L28.7733 11.2351L29.6504 10.5953C30.0243 10.3224 30.5268 10.3224 30.9008 10.5954L31.7778 11.235L31.4404 10.2032C31.2965 9.76332 31.4518 9.28559 31.8266 9.01426L32.7063 8.37777L31.6206 8.3798C31.6198 8.3798 31.6191 8.3798 31.6185 8.3798C31.1565 8.3798 30.7511 8.08473 30.6092 7.64488L30.2756 6.61168L29.9421 7.64496C29.8002 8.08473 29.3947 8.3798 28.9328 8.3798C28.932 8.3798 28.9313 8.3798 28.9307 8.3798L27.8448 8.3777ZM30.0954 6.05371C30.0954 6.05387 30.0954 6.05394 30.0954 6.05402L30.0954 6.05371Z" fill="#0F0F0F"/>
</svg>
