<svg width="48" height="48" viewBox="0 0 48 48" fill="none" xmlns="http://www.w3.org/2000/svg">
<path d="M30.5443 39.0968C30.218 40.2025 29.3992 41.2291 28.5386 42.1211C28.3273 42.3406 28.1136 42.5519 27.9034 42.754C27.7884 42.8655 27.5991 42.8388 27.5201 42.6994C27.3204 42.3417 27.1276 41.9794 26.9417 41.6124C25.8489 39.4778 24.9581 37.1945 24.3438 34.8996L30.3109 30.5596C30.3213 30.7024 30.3318 30.8441 30.3411 30.987C30.4595 32.6442 30.578 34.3015 30.6965 35.9576C30.7696 37.0087 30.8428 38.0864 30.5443 39.0968Z" fill="#F1363E"/>
<path d="M26.3216 39.6694C26.4679 40.3349 26.6874 40.9794 26.9417 41.6124C25.8489 39.4778 24.9581 37.1945 24.3438 34.8996L30.3109 30.5596C30.3213 30.7024 30.3318 30.8441 30.3411 30.987C29.3702 32.7035 27.4888 33.7986 26.6363 35.5814C26.0359 36.838 26.0208 38.3094 26.3216 39.6694Z" fill="#CE0D24"/>
<path d="M45.7778 1.49951C45.4178 4.33908 44.7337 7.17283 43.7919 9.92994C42.7269 13.0529 41.3298 16.0817 39.6992 18.9167C39.1975 19.7877 38.6749 20.6413 38.1325 21.4728C34.0503 27.7338 28.5209 33.1226 22.1822 37.0841C21.6224 37.4348 21.0916 37.7449 20.5748 38.0294C19.1661 38.7994 17.8537 39.365 16.3091 39.9585L9.88086 33.996C10.0713 33.1667 10.285 32.3433 10.5254 31.528C10.7182 30.8637 10.9284 30.2041 11.1537 29.5502C12.854 24.6225 15.4392 20.0002 18.7445 15.9702C19.979 14.4628 21.3146 13.0378 22.7431 11.7115C26.0066 8.67914 29.7427 6.10901 33.7669 4.14745C37.2475 2.44835 40.9419 1.20684 44.7326 0.510016C44.8963 0.479826 45.0543 0.49608 45.196 0.547181C45.5711 0.683067 45.8336 1.06516 45.7778 1.49951Z" fill="#D2DCDE"/>
<path d="M20.5748 38.0294C19.1661 38.7993 17.8537 39.3649 16.3091 39.9584L9.88086 33.9959C9.92384 33.8078 9.96796 33.6196 10.0144 33.4326C10.0191 33.414 10.0237 33.3943 10.0284 33.3746C10.069 33.2062 10.112 33.0389 10.1549 32.8717C10.1886 32.7381 10.2235 32.6057 10.2595 32.4733C10.2618 32.4652 10.2641 32.4571 10.2664 32.4489C10.292 32.3514 10.3187 32.255 10.3454 32.1586L10.436 31.8346C10.4662 31.7324 10.4952 31.6302 10.5254 31.528C10.7182 30.8637 10.9284 30.204 11.1537 29.5502C13.6124 29.3852 16.1325 30.2923 17.9048 32.0088C18.5087 32.5941 19.0232 33.27 19.4332 34.0052C20.1196 35.2339 20.5179 36.6253 20.5748 38.0294Z" fill="#F1363E"/>
<path d="M20.5748 38.0294C19.1661 38.7994 17.8537 39.365 16.3091 39.9585L9.88086 33.996C9.92384 33.8078 9.96796 33.6197 10.0144 33.4327C10.0191 33.4141 10.0237 33.3944 10.0284 33.3746C10.069 33.2062 10.112 33.039 10.1549 32.8717C10.1886 32.7382 10.2235 32.6058 10.2595 32.4734C10.2618 32.4653 10.2641 32.4571 10.2664 32.449C10.292 32.3515 10.3187 32.2551 10.3454 32.1587L10.436 31.8346C10.4662 31.7324 10.4952 31.6302 10.5254 31.528C12.9399 31.2679 15.5414 33.0808 17.8955 33.7335C18.4007 33.874 18.9152 33.9623 19.4332 34.0053C20.1196 35.234 20.5179 36.6253 20.5748 38.0294Z" fill="#CE0D24"/>
<path d="M39.6996 18.9167C39.1979 19.7878 38.6753 20.6414 38.1329 21.4729C34.0507 27.7339 28.5214 33.1227 22.1826 37.0841C21.6228 37.4349 21.092 37.745 20.5752 38.0295C20.5183 36.6254 20.12 35.2341 19.4336 34.0053C21.2697 34.1598 23.157 33.7429 24.8514 32.988C27.0244 32.0205 28.9209 30.5293 30.7036 28.9534C34.0867 25.964 37.0737 22.5762 39.6996 18.9167Z" fill="#B4C1C7"/>
<path d="M17.1743 18.0015C16.9188 20.7771 15.2789 23.1684 12.9108 25.2194C10.6775 24.8687 8.87739 24.5841 6.64406 24.2322C6.09705 24.1463 5.53611 24.0464 5.00768 23.8769C4.84161 23.8234 4.67785 23.763 4.51874 23.6945C3.95315 23.4495 3.73946 22.7619 4.07162 22.2428C4.79748 21.107 5.64528 20.0362 6.8624 19.5101C7.82982 19.0932 9.00514 18.9445 10.0527 18.8353C12.5497 18.5763 14.5588 18.4834 17.1197 18.0119C17.1371 18.0084 17.1557 18.0049 17.1743 18.0015Z" fill="#F1363E"/>
<path d="M17.1744 18.0015C16.9189 20.7771 15.279 23.1684 12.911 25.2194C10.6776 24.8687 8.87752 24.5841 6.64419 24.2322C6.09718 24.1463 5.53624 24.0464 5.00781 23.8769C6.20983 24.065 7.60813 24.1556 8.82293 24.1045C10.8182 24.0209 12.7786 23.2671 14.3186 21.9954C15.5845 20.949 16.5589 19.5554 17.1198 18.0119C17.1372 18.0084 17.1558 18.0049 17.1744 18.0015Z" fill="#CE0D24"/>
<path d="M16.3083 39.9587C15.618 40.7031 13.6194 39.9718 11.8438 38.3247C10.0691 36.6784 9.18921 34.7397 9.88031 33.996C10.1598 33.6944 10.654 33.6352 11.2603 33.781C12.1521 33.9938 13.2878 34.6498 14.3448 35.63C15.4235 36.6312 16.1723 37.7402 16.4374 38.6232C16.608 39.1926 16.5781 39.6671 16.3083 39.9587Z" fill="#B5001F"/>
<path d="M16.4381 38.6233C15.7536 38.9685 14.292 38.3628 12.981 37.1458C11.6525 35.9135 10.9371 34.4802 11.261 33.781C12.1528 33.9938 13.2884 34.6498 14.3454 35.63C15.4241 36.6312 16.173 37.7402 16.4381 38.6233Z" fill="#A30023"/>
<path d="M41.5449 16.8518C40.7087 18.1293 39.5032 18.9771 38.2722 19.2837C37.2432 19.5404 36.1956 19.4184 35.3327 18.854C33.4385 17.6137 33.147 14.7056 34.6823 12.3596C34.7845 12.204 34.8914 12.0541 35.0052 11.9113C36.5847 9.90444 39.1258 9.19949 40.8945 10.3585C42.7899 11.5989 43.0814 14.5058 41.5449 16.8518Z" fill="#B4C1C7"/>
<path d="M37.0128 18.1633C36.9397 18.1153 36.8697 18.0641 36.8038 18.0086C35.6338 17.0452 35.5203 15.0646 36.5837 13.4393C37.4474 12.12 38.8383 11.4185 40.0542 11.5695C40.4197 11.6138 40.7702 11.7371 41.0844 11.9433C42.4461 12.8349 42.6377 14.9489 41.5135 16.6672C40.3885 18.3848 38.3737 19.0541 37.0128 18.1633Z" fill="#6D7C89"/>
<path d="M40.2756 16.1398C39.4115 17.4603 38.0191 18.1618 36.8043 18.0084C35.9599 17.3139 35.6649 16.0887 35.9669 14.8495C36.0819 14.371 36.2874 13.8914 36.5836 13.4396C37.4477 12.1203 38.8378 11.4188 40.0538 11.5698C40.4986 11.9344 40.7913 12.4478 40.9237 13.0331C41.142 13.9866 40.9364 15.1317 40.2756 16.1398Z" fill="#4AA8F2"/>
<path d="M40.2756 16.1399C39.4115 17.4604 38.0191 18.1618 36.8043 18.0085C35.9599 17.314 35.6649 16.0888 35.9669 14.8496C35.9506 15.169 36.0134 15.493 36.1527 15.781C36.3513 16.1933 36.7032 16.5289 37.1236 16.709C37.5777 16.9029 38.098 16.9145 38.5753 16.7891C39.458 16.5568 40.1839 15.8693 40.5659 15.0412C40.854 14.4176 40.9597 13.7219 40.9237 13.0332C41.142 13.9867 40.9364 15.1318 40.2756 16.1399Z" fill="#0373FF"/>
<path d="M45.7766 1.49944C45.7324 1.85018 45.6825 2.20091 45.6291 2.55165C45.2435 5.03816 44.6164 7.51305 43.7906 9.92987C43.117 8.2331 41.9464 6.73144 40.4435 5.69085C38.7456 4.51554 36.6447 3.94298 34.5856 4.0626C34.3115 4.07886 34.0374 4.10673 33.7656 4.14738C37.2463 2.44829 40.9406 1.20678 44.7313 0.50995C45.326 0.400781 45.8532 0.900178 45.7766 1.49944Z" fill="#F1363E"/>
<path d="M29.7941 22.4297C29.7569 22.6574 29.6512 22.8676 29.542 23.072C28.3656 25.2774 26.67 27.203 24.6317 28.6501C24.1381 28.9996 23.619 29.326 23.0441 29.5153C22.6075 29.6605 21.5134 29.9404 21.3601 29.2993C21.2068 28.657 21.6737 27.8661 21.9954 27.3493C22.1232 27.1438 22.2556 26.9428 22.3938 26.7443C23.878 24.6073 25.936 22.8711 28.297 21.7759C28.5142 21.6748 28.7395 21.5785 28.9788 21.5564C29.218 21.5343 29.477 21.5994 29.6384 21.7782C29.686 21.8328 29.7232 21.8943 29.7499 21.9605C29.8091 22.1057 29.8208 22.273 29.7941 22.4297Z" fill="#F1363E"/>
<path d="M3.83275 40.7224C4.45592 40.0749 5.29509 39.6826 6.19727 39.6988C6.27315 39.7002 6.31513 39.786 6.26992 39.8469C5.65807 40.6719 5.21654 41.6228 4.98207 42.6228C4.7931 43.4287 4.73151 44.2809 4.34957 45.0153C3.93614 45.8103 3.16365 46.3903 2.28989 46.5674C2.20531 46.5845 2.18698 46.6958 2.26196 46.7386C3.43341 47.4063 4.84105 47.6534 6.16929 47.4178C7.51121 47.1797 8.7827 46.3701 9.65655 45.3148C9.70877 45.2518 9.81378 45.2847 9.81998 45.3664C9.86631 45.9764 9.64262 46.6093 9.21043 47.0359C9.14568 47.0998 9.19991 47.2096 9.2895 47.1938C11.0232 46.8881 12.6008 45.7641 13.4408 44.2147C14.3335 42.5682 14.3691 40.4859 13.5334 38.8099C12.8717 37.4828 11.6004 36.4327 10.1414 36.1678C8.65249 35.8976 7.08257 36.4126 5.9064 37.3648C4.86609 38.207 4.16513 39.3728 3.68177 40.6228C3.64567 40.7162 3.76334 40.7946 3.83275 40.7224Z" fill="#FED821"/>
<path d="M12.8482 38.0944C13.4517 38.8495 13.5762 39.9563 13.1555 40.8266C12.7622 41.6399 11.9112 42.2083 11.0124 42.2759C10.9366 42.2816 10.889 42.1983 10.9285 42.1334C11.1224 41.8152 11.1972 41.4071 11.1203 41.0432C11.101 40.9519 10.9764 40.9419 10.9433 41.0292C10.6711 41.7486 10.1761 42.416 9.52792 42.8143C8.87875 43.2132 8.09667 43.3897 7.33892 43.3143C7.25498 43.306 7.22502 43.1953 7.29445 43.1474C7.83611 42.7737 8.18353 42.1381 8.31988 41.4882C8.47375 40.7548 8.4747 39.9925 8.67235 39.2697C8.86701 38.5579 9.31427 37.8504 10.0132 37.623C10.0231 37.6197 10.0231 37.6056 10.0132 37.6026C9.61062 37.4805 9.20983 37.5477 8.84737 37.7673C8.62291 37.9033 8.42807 38.0802 8.25389 38.2774C8.18383 38.3567 8.05484 38.2772 8.09846 38.1807C8.48263 37.3318 9.34602 36.718 10.2897 36.7103C11.3852 36.7014 12.1471 37.2173 12.8482 38.0944Z" fill="#F1363E"/>
<path d="M29.7941 22.4299C29.7569 22.6575 29.6512 22.8677 29.542 23.0721C28.3656 25.2776 26.67 27.2031 24.6317 28.6502C24.1381 28.9998 23.619 29.3261 23.0441 29.5154C22.6075 29.6606 21.5134 29.9405 21.3601 29.2994C21.2068 28.6572 21.6737 27.8663 21.9954 27.3495C22.1232 27.1439 22.2556 26.943 22.3938 26.7444C22.3334 27.1706 22.5726 27.6201 22.9373 27.8605C23.3391 28.123 23.8583 28.159 24.3251 28.0475C24.792 27.9348 25.2147 27.6886 25.6119 27.4192C27.534 26.1126 29.0055 24.1603 29.7499 21.9607C29.8091 22.1059 29.8208 22.2731 29.7941 22.4299Z" fill="#CE0D24"/>
<path d="M38.2722 19.2835C37.2432 19.5402 36.1956 19.4183 35.3327 18.8538C33.4385 17.6135 33.147 14.7054 34.6823 12.3594C34.7845 12.2038 34.8914 12.054 35.0052 11.9111C34.7288 12.8971 34.5012 13.9052 34.5186 14.9284C34.5372 16.0317 34.8693 17.1664 35.6289 17.9677C36.3199 18.6971 37.2745 19.0733 38.2722 19.2835Z" fill="#8090A0"/>
<path opacity="0.3" d="M45.1956 0.547181C45.0923 0.715582 44.9506 0.867722 44.8135 1.01057C43.6336 2.23698 42.4525 3.46456 41.2713 4.69213C38.491 7.58163 35.7095 10.4723 32.9292 13.3618C31.6598 14.6823 30.2685 16.069 28.4683 16.4058C26.8482 16.7089 25.2177 16.1003 23.594 15.8216C21.989 15.5452 20.3294 15.5998 18.7441 15.9702C19.9787 14.4628 21.3143 13.0378 22.7428 11.7115C26.0062 8.67914 29.7424 6.10901 33.7665 4.14745C37.2472 2.44835 40.9415 1.20684 44.7322 0.510016C44.896 0.479826 45.054 0.49608 45.1956 0.547181Z" fill="#0F0F0F"/>
<g opacity="0.5">
<path d="M22.8952 14.6927C22.6447 15.28 22.7983 15.7738 23.1442 15.7699C23.4864 15.7689 23.8618 15.3693 24.0679 14.8896C24.2624 14.4184 24.2448 13.9688 23.9509 13.8594C23.6508 13.7498 23.1379 14.111 22.8952 14.6927Z" fill="#0F0F0F"/>
<path d="M27.6038 11.1412C29.4092 9.84993 30.8097 9.48724 30.8904 8.93919C31.0452 8.47343 29.3167 7.95782 26.7762 9.72587C24.1826 11.7612 24.109 13.4769 24.5171 13.5103C25.0152 13.6736 25.7245 12.5839 27.6038 11.1412Z" fill="#0F0F0F"/>
</g>
<path d="M14.2567 22.7362C13.993 22.4081 13.7501 22.1057 13.5073 21.8034C13.5229 21.7867 13.5386 21.7701 13.5543 21.7535C13.8784 21.9676 14.1596 22.2415 14.5006 22.4898C14.6121 21.449 14.7213 20.4305 14.8304 19.4119C14.8562 19.4119 14.882 19.4119 14.9078 19.4119C15.0166 20.4285 15.1254 21.4451 15.2374 22.492C15.569 22.2421 15.8623 21.9776 16.1795 21.7469C16.1966 21.7657 16.2138 21.7844 16.231 21.8031C15.9884 22.1052 15.7459 22.4073 15.4801 22.7383C16.5228 22.8496 17.538 22.958 18.5532 23.0663C18.5537 23.0912 18.5542 23.116 18.5546 23.1408C17.5444 23.2689 16.5287 23.3537 15.4809 23.477C15.7423 23.8019 15.9852 24.1038 16.2341 24.4133C16.1317 24.4349 16.1316 24.435 15.7341 24.117C15.5776 23.9919 15.4219 23.8658 15.2383 23.7179C15.1259 24.7656 15.0167 25.7839 14.9076 26.8021C14.8817 26.8019 14.8558 26.8018 14.8299 26.8016C14.7213 25.7842 14.6127 24.7668 14.5006 23.7174C14.1761 23.9785 13.87 24.2247 13.5638 24.4709C13.5454 24.4514 13.5269 24.4319 13.5084 24.4125C13.751 24.1082 13.9937 23.8039 14.2561 23.4748C13.2114 23.3635 12.1986 23.2557 11.1858 23.1479C11.1851 23.1233 11.1843 23.0986 11.1836 23.074C12.193 22.9435 13.2085 22.8615 14.2567 22.7362Z" fill="#0F0F0F"/>
<path d="M38.4559 8.13772C38.5078 8.62071 38.5597 9.1037 38.6151 9.61907C38.7768 9.49205 38.9179 9.38117 39.059 9.27029C39.0699 9.28095 39.0809 9.2916 39.0918 9.30226C38.9806 9.44216 38.8695 9.58206 38.7399 9.74513C39.2598 9.80122 39.7462 9.85368 40.2326 9.90615C40.2332 9.92141 40.2338 9.93667 40.2343 9.95193C39.7474 10.0052 39.2605 10.0584 38.7411 10.1153C38.8686 10.2761 38.9803 10.417 39.092 10.5579C39.0815 10.569 39.071 10.5801 39.0605 10.5913C38.9204 10.481 38.7803 10.3707 38.6156 10.241C38.5595 10.7596 38.5069 11.2465 38.4542 11.7334C38.4391 11.7341 38.424 11.7349 38.4089 11.7356C38.3558 11.2483 38.3027 10.7611 38.2462 10.2425C38.0889 10.3656 37.9461 10.4773 37.8033 10.589C37.7928 10.5806 37.7824 10.5721 37.772 10.5636C37.8803 10.4227 37.9886 10.2818 38.1166 10.1152C37.6055 10.0594 37.1158 10.0059 36.6262 9.95235C36.6258 9.93731 36.6254 9.92228 36.625 9.90724C37.1109 9.85474 37.5969 9.80224 38.1213 9.74557C37.9963 9.58812 37.8843 9.44719 37.7724 9.30626C37.7829 9.29388 37.7935 9.28149 37.804 9.26911C37.9429 9.37993 38.0819 9.49075 38.2451 9.62099C38.3017 9.10289 38.3551 8.61358 38.4085 8.12427C38.4243 8.12875 38.4401 8.13324 38.4559 8.13772Z" fill="#0F0F0F"/>
</svg>
