<svg width="24" height="24" viewBox="0 0 24 24" fill="none" xmlns="http://www.w3.org/2000/svg">
<mask id="mask0_107_8187" style="mask-type:luminance" maskUnits="userSpaceOnUse" x="0" y="0" width="24" height="24">
<path d="M0 0H23.9977V24H0V0Z" fill="white"/>
</mask>
<g mask="url(#mask0_107_8187)">
<path fill-rule="evenodd" clip-rule="evenodd" d="M-1.50098 0H25.499V24H-1.50098V0Z" fill="#165D31"/>
<path fill-rule="evenodd" clip-rule="evenodd" d="M5.302 6.80157C5.27388 7.36407 5.23169 8.34844 5.5938 8.45157C6.02622 8.50782 5.78716 7.47657 5.94536 7.28907C5.97349 7.19532 6.02622 7.19532 6.02974 7.31251V8.18907C6.02974 8.47032 6.17036 8.55469 6.27583 8.61094C6.38833 8.60157 6.46567 8.61094 6.50786 8.75157L6.56411 10.2656C6.56411 10.2656 6.82427 10.3688 6.83833 9.41719C6.84888 8.85469 6.75395 8.39063 6.8102 8.28282C6.8102 8.17501 6.91567 8.17032 6.98599 8.22188C7.09849 8.32501 7.1477 8.45626 7.32349 8.40938C7.59067 8.30626 7.75239 8.13282 7.75591 7.86094C7.75063 7.59376 7.70894 7.3301 7.63286 7.08282C7.64692 7.03594 7.58364 6.90938 7.59771 6.86251C7.64341 6.96563 7.71724 6.95626 7.7313 6.86251C7.6856 6.66563 7.61528 6.47344 7.50278 6.39376C7.40786 6.28126 7.26724 6.30001 7.22153 6.53438C7.19341 6.80157 7.29185 7.11563 7.43599 7.37813C7.46763 7.47657 7.50981 7.64532 7.49224 7.79532C7.41255 7.85157 7.33872 7.83282 7.27075 7.73907C7.27075 7.73907 7.05981 7.52813 7.05981 7.47657C7.11606 6.99844 7.07036 6.94219 7.03872 6.80626C7.01763 6.62344 6.95083 6.56251 6.8981 6.44063C6.84536 6.36563 6.77505 6.36563 6.73989 6.44063C6.64497 6.65626 6.69067 7.12032 6.75747 7.33126C6.80669 7.52344 6.88052 7.64532 6.84536 7.64532C6.81724 7.75313 6.75747 7.72501 6.71177 7.59844C6.66048 7.33205 6.63566 7.05783 6.63794 6.78282C6.62036 6.56719 6.59927 6.10782 6.49028 5.98594C6.427 5.87344 6.33208 5.92969 6.29692 6.03282C6.28758 6.24223 6.29111 6.4523 6.30747 6.66094C6.37778 7.00782 6.40239 7.31719 6.43755 7.66876C6.4481 8.14219 6.23364 7.87501 6.24419 7.63594C6.29031 7.3354 6.28671 7.02507 6.23364 6.72657C6.19849 6.60469 6.15981 6.57657 6.07192 6.59532C6.00513 6.59532 5.83286 6.84376 5.78364 7.26563C5.78364 7.26563 5.74145 7.48126 5.72388 7.67344C5.69927 7.88907 5.5938 8.04844 5.51645 7.64532C5.45317 7.35001 5.41099 6.63282 5.30552 6.80157H5.302Z" fill="white"/>
<path fill-rule="evenodd" clip-rule="evenodd" d="M6.47949 9.10312L5.35449 9.825C5.36504 9.48281 5.88535 8.86875 6.24395 8.86406C6.47246 8.86875 6.41621 8.98125 6.47598 9.10312H6.47949Z" fill="white"/>
<path fill-rule="evenodd" clip-rule="evenodd" d="M6.27905 9.57187C5.68843 11.6109 7.66773 11.8969 7.88921 9.65625C7.9103 9.5625 7.99468 9.47343 8.00874 9.62343C7.96304 11.6531 6.47593 11.7891 6.2228 11.1516C6.16333 10.9322 6.13357 10.7004 6.13491 10.4672C6.09976 10.0687 5.94155 10.2234 5.91695 10.6172C5.89234 10.8375 5.89937 10.8984 5.89937 11.1094C5.97671 12.7125 7.89273 12.0234 8.20562 10.7016C8.37085 9.97031 8.17749 9.43125 8.26538 9.43125C8.45523 9.70312 8.72241 9.46875 8.78218 9.375C8.80679 9.32812 8.87007 9.29531 8.91226 9.35625C9.05991 9.49687 9.32007 9.43125 9.37632 9.18281C9.40913 8.93281 9.43023 8.67968 9.4396 8.42343C9.31655 8.47031 9.22866 8.50312 9.21812 8.57343L9.19351 8.78906C9.18296 8.85937 9.08101 8.85937 9.07398 8.77031C9.02827 8.48906 8.83843 8.45625 8.72241 8.8875C8.64859 8.97187 8.50796 8.99062 8.4939 8.86406C8.51148 8.57343 8.42359 8.53593 8.2478 8.67187L8.07905 6.975C8.14937 6.975 8.21968 7.04531 8.28648 6.93281C8.21616 6.62812 8.05796 6.00937 7.97007 5.9625C7.9314 5.89687 7.89624 5.93906 7.83999 5.95781C7.74859 5.99531 7.66421 6.09843 7.69234 6.30468C7.7978 7.18593 7.86812 7.85625 7.9771 8.74218C7.99468 8.84062 7.9314 8.97656 7.84702 8.9625C7.7064 8.83593 7.67124 8.57812 7.42515 8.5875C7.24937 8.5875 7.05249 8.84531 7.02788 9.08906C6.99624 9.28593 6.9857 9.49687 7.02788 9.66562C7.15093 9.8625 7.29859 9.84375 7.42866 9.80156C7.53413 9.74062 7.62202 9.6 7.6607 9.63281C7.6853 9.675 7.66421 10.1437 7.15796 10.5C6.8521 10.6875 6.60601 10.725 6.47593 10.3922C6.39507 10.1812 6.48296 9.38906 6.27905 9.57187Z" fill="white"/>
<path fill-rule="evenodd" clip-rule="evenodd" d="M8.79998 7.5C8.916 7.44375 9.4785 6.58125 9.4785 6.58125L9.39412 6.4875C9.36365 6.45312 9.36365 6.41875 9.39412 6.38437C9.53475 6.27187 9.48904 6.0375 9.41873 5.925C9.37078 5.89501 9.31836 5.87985 9.2654 5.88066C9.21244 5.88148 9.1603 5.89823 9.11287 5.92968C9.01443 6.05625 8.99334 6.25781 9.07068 6.37968C9.14451 6.42656 9.21834 6.52968 9.16912 6.58593C8.93709 6.91406 8.30779 7.48125 8.38162 7.5C8.39568 7.52812 8.78592 7.52812 8.79646 7.5H8.79998ZM5.38982 10.5469C5.17889 10.9969 5.16131 11.6672 5.27732 11.8687C5.34061 11.9625 5.44256 12.0047 5.51639 11.9719C5.64998 11.8969 5.70975 11.5359 5.67811 11.4094C5.63592 11.3156 5.59373 11.3047 5.55154 11.3766C5.46014 11.6297 5.42146 11.4562 5.41092 11.3156C5.40084 11.0775 5.41027 10.8386 5.43904 10.6031C5.46365 10.4062 5.43904 10.4625 5.38982 10.5469ZM14.4285 9.82968C14.2246 9.23906 13.9398 8.65781 13.8519 8.4375C13.578 7.86003 13.2871 7.2971 12.9801 6.75C12.7621 6.40312 13.3387 6.89531 12.9097 6.20156L12.5969 5.85C12.5265 5.78437 12.3578 5.6625 12.3297 5.85937C12.3156 6.0375 12.3226 6.13125 12.3437 6.27656C12.3613 6.37031 12.4668 6.53437 12.5195 6.62812C13.2403 7.90099 13.8733 9.25807 14.4109 10.6828C14.5023 10.6219 14.4812 9.92812 14.4285 9.82968Z" fill="white"/>
<path fill-rule="evenodd" clip-rule="evenodd" d="M13.5319 11.7891C13.4898 11.85 13.6304 12.1078 13.8132 12.1078C14.1155 12.0609 14.3827 11.8359 14.6288 11.2359C14.7288 11.0363 14.7926 10.8085 14.8152 10.5703C14.8449 9.43238 14.7765 8.29366 14.6112 7.17656C14.6007 7.08281 14.6112 6.97031 14.6183 6.94219C14.6394 6.90937 14.7062 6.94219 14.7413 6.8625C14.7941 6.79219 14.6007 6.20625 14.4952 5.98594C14.4601 5.88281 14.4425 5.81719 14.3792 5.99531C14.3029 6.19186 14.2665 6.41167 14.2737 6.63281C14.4179 7.96875 14.4636 9.13593 14.555 10.4719C14.5655 10.6031 14.5515 10.7906 14.4847 10.8656C14.2195 11.2596 13.8948 11.5744 13.5319 11.7891ZM17.6276 11.7844C17.4097 11.9531 17.4097 12.1453 17.5855 12.15C17.8878 12.1031 18.2464 12.0703 18.4925 11.5734C18.5794 11.3394 18.6297 11.0842 18.6401 10.8234C18.6844 9.70302 18.6289 8.57957 18.4749 7.47656C18.4679 7.38281 18.4362 7.1625 18.4468 7.13437C18.4679 7.06875 18.5663 7.13906 18.6015 7.06406C18.6507 6.99375 18.3448 6.46875 18.2359 6.24375C18.2007 6.14062 18.1866 6.075 18.1198 6.25312C18.0483 6.4512 18.0261 6.67456 18.0566 6.89062C18.2183 8.34375 18.3378 9.43125 18.3624 10.7156C18.3484 10.8375 18.3448 10.9031 18.3026 11.0578C18.2077 11.2172 18.1023 11.4234 18.0038 11.5219C17.9054 11.6156 17.6944 11.7094 17.6276 11.7844Z" fill="white"/>
<path fill-rule="evenodd" clip-rule="evenodd" d="M17.7892 10.4859C17.7915 10.1453 17.7904 9.84844 17.7857 9.59531C17.7834 9.37697 17.7475 9.16158 17.6802 8.9625C17.6169 8.77031 17.6556 8.61563 17.624 8.40938C17.5958 8.20313 17.6029 7.89375 17.5607 7.65469C17.5466 7.56094 17.5115 7.25625 17.522 7.22344C17.5396 7.15781 17.6064 7.22344 17.6415 7.14844C17.6908 7.07813 17.4658 6.30469 17.3533 6.08438C17.3146 5.98594 17.2372 6.01875 17.1494 6.17813C17.0615 6.28594 17.0931 6.525 17.1283 6.75469C17.3427 8.26875 17.5079 9.64219 17.4728 11.0813C17.4587 11.2031 17.7892 10.7156 17.7892 10.4859ZM16.1826 8.61094C16.0454 8.60156 15.7607 8.25 15.6763 8.04844C15.6625 7.99918 15.6566 7.94659 15.659 7.8941C15.6615 7.84161 15.6721 7.79038 15.6904 7.74375C15.7431 7.69688 15.8204 7.65 15.8802 7.69688C15.8802 7.69688 15.94 7.80938 15.9294 7.82344C15.9997 7.87031 16.0349 7.84688 16.0419 7.80469C16.0454 7.73438 16.0208 7.69219 16.0208 7.61719C16.0525 7.40156 16.2318 7.36875 16.3021 7.50469C16.3513 7.58906 16.3724 7.7625 16.3759 7.87969C16.3759 7.94063 16.3056 7.87031 16.2599 7.87969C16.2212 7.89844 16.2107 7.96406 16.2072 8.02031C16.2001 8.175 16.1861 8.42344 16.1826 8.60625V8.61094ZM13.6583 10.8609C13.6935 10.4016 13.6443 9.58125 13.6408 9.30938C13.622 8.61017 13.5785 7.91253 13.5107 7.21875C13.4685 6.825 13.6302 7.26094 13.6091 7.03125C13.5564 6.64219 13.3947 6.375 13.2013 6.02344C13.1415 5.90625 13.1415 5.88281 13.0466 6.05156C12.9411 6.36563 13.0326 6.58594 13.0607 6.83438C13.1978 7.64063 13.2786 8.38125 13.3173 9.11719C13.3578 9.88168 13.3625 10.6488 13.3314 11.4141C13.4369 11.4188 13.5986 11.1938 13.6583 10.8609Z" fill="white"/>
<path fill-rule="evenodd" clip-rule="evenodd" d="M18.2571 10.125C18.0145 9.58125 17.6524 9 17.554 8.77969C17.228 8.17269 16.8856 7.58168 16.5274 7.00781C16.2286 6.58594 16.6681 6.9375 16.4712 6.60937C16.3059 6.37031 16.2602 6.29062 16.1161 6.14531C16.0458 6.08437 16.0036 5.96719 15.9755 6.16875C15.9643 6.34334 15.9619 6.51874 15.9684 6.69375C15.9684 6.77344 16.0317 6.92812 16.088 7.02187C16.8157 8.21719 17.6138 9.43594 18.2536 10.9687C18.345 10.9078 18.3134 10.2187 18.2536 10.125H18.2571Z" fill="white"/>
<path fill-rule="evenodd" clip-rule="evenodd" d="M7.30888 9.12656C7.2913 9.16875 7.25263 9.22031 7.26669 9.27188C7.29013 9.31563 7.3206 9.33594 7.3581 9.33281C7.39677 9.33281 7.45302 9.34688 7.46356 9.31875C7.487 9.28125 7.49403 9.22969 7.48466 9.16406C7.44247 9.02344 7.32997 9.07969 7.30888 9.12656Z" fill="#165D31"/>
<path fill-rule="evenodd" clip-rule="evenodd" d="M15.451 16.9922C15.7744 17.0109 15.9853 17.0156 16.2701 17.0578L16.6076 17.0109C16.9803 16.9641 16.9943 17.7188 16.9943 17.7188C16.9943 18.1641 16.8643 18.1875 16.699 18.2344C16.6041 18.2531 16.5584 18.1594 16.5057 18.0656C16.4262 18.0996 16.3415 18.1061 16.2596 18.0844C16.1236 18.0781 15.9889 18.0703 15.8553 18.0609C15.7146 18.0469 15.6373 18.0844 15.4932 18.0656C15.465 18.1266 15.4228 18.2109 15.3385 18.1875C15.2682 18.1734 15.1803 17.9063 15.2049 17.6953C15.2576 17.5453 15.24 17.5969 15.24 17.5313C13.9182 17.4844 12.5857 17.4047 11.292 17.4281C10.2795 17.4328 9.28105 17.4891 8.2791 17.5453C7.74473 17.5359 7.33691 17.4234 7.05566 16.875C7.08379 16.875 8.41973 16.9734 8.80996 16.9406C9.53066 16.9313 10.1916 16.8516 10.9264 16.8234C12.3748 16.8563 13.8127 16.8563 15.2611 16.9922C15.1205 16.8656 15.1205 16.5703 15.3314 16.4953C15.349 16.4766 15.3596 16.6406 15.3912 16.6359C15.5635 16.6219 15.4861 16.9313 15.451 16.9922ZM9.6291 6.34219C9.41113 7.17656 9.75566 8.09531 9.99473 8.00625C10.1705 8.1 10.276 7.65937 10.3463 7.18125C10.399 7.04531 10.4342 7.03125 10.4588 7.10156C10.4518 7.73906 10.4939 7.88437 10.617 8.07656C10.8912 8.35781 11.1197 8.11406 11.1373 8.09062L11.3482 7.80469C11.3998 7.73594 11.4596 7.73125 11.5275 7.79062C11.5943 7.87031 11.5838 8.00625 11.7244 8.1C11.8439 8.16562 12.0936 8.11875 12.1533 7.98281C12.2307 7.8 12.2518 7.73906 12.2869 7.67344C12.3432 7.575 12.4381 7.61719 12.4381 7.65C12.4275 7.70625 12.3713 7.75781 12.41 7.86094C12.4803 7.92656 12.4943 7.88437 12.533 7.87031C12.6736 7.77656 12.7791 7.37344 12.7791 7.37344C12.7826 7.22344 12.7193 7.23281 12.6771 7.27031L12.5682 7.36875C12.4979 7.38281 12.3678 7.44375 12.301 7.30781C12.2342 7.14844 12.2342 6.91875 12.185 6.75469C12.185 6.74531 12.0936 6.49687 12.1779 6.48281C12.2201 6.49219 12.308 6.525 12.3221 6.42656C12.3643 6.32812 12.2307 6.05156 12.1357 5.91094C12.0549 5.79375 11.9424 5.77969 11.8334 5.90156C11.7561 5.99531 11.7666 6.09844 11.7525 6.19687C11.7398 6.26747 11.7395 6.34105 11.7517 6.41182C11.7639 6.48259 11.7882 6.54862 11.8229 6.60469C11.9002 6.80156 12.0373 7.05937 11.9916 7.425C11.9916 7.425 11.9107 7.59375 11.7701 7.57031C11.7104 7.55625 11.6154 7.52344 11.5662 7.01719C11.5275 6.64219 11.5732 6.10781 11.4537 5.85937C11.408 5.70469 11.3764 5.55937 11.2709 5.81719C11.2428 5.92031 11.1197 6.075 11.2076 6.38906C11.2908 6.67207 11.3151 6.97979 11.2779 7.27969C11.2252 7.38281 11.2146 7.41562 11.1479 7.51406C11.0564 7.65469 10.9545 7.61719 10.8771 7.56562C10.8068 7.50469 10.7506 7.47187 10.7154 7.26094C10.7225 6.93281 10.7365 6.39375 10.6908 6.28125C10.624 6.10312 10.515 6.16875 10.4693 6.225C10.2607 6.53519 10.1207 6.91654 10.065 7.32656C10.0018 7.59844 9.93496 7.51875 9.88926 7.41094C9.77676 7.27031 9.76621 6.15937 9.6291 6.34219Z" fill="white"/>
<path fill-rule="evenodd" clip-rule="evenodd" d="M10.2907 8.16094C10.3926 8.06719 10.3469 8.00156 10.4946 8.19844C10.6852 8.64806 10.7958 9.15001 10.818 9.66562C10.811 9.7875 10.8743 9.8625 10.9059 9.83437C10.92 9.55312 11.4368 9.15937 11.9114 9.10312C11.9817 9.07969 11.9465 8.89687 11.9571 8.80312C11.9289 8.45156 12.1047 8.13281 12.3508 8.10937C12.6883 8.175 12.8008 8.41406 12.8079 8.775C12.7692 9.47812 12.2207 9.59531 11.9149 9.65156C11.8692 9.675 11.8481 9.70312 11.9149 9.73594L13.2016 9.74531L13.2684 9.79219C13.2754 9.83906 13.2473 9.80156 13.1981 9.91406C13.1278 10.0801 13.0835 10.2635 13.068 10.4531C12.6848 10.6219 12.2875 10.6875 11.8868 10.7578C11.7461 10.8516 11.6758 10.9781 11.7039 11.1187C11.7532 11.2734 12.0625 11.4328 12.0625 11.4375C12.1223 11.4844 12.1891 11.6016 12.045 11.8406C11.4192 11.8031 10.9305 11.4469 10.7618 10.9453C10.7125 10.8937 10.6563 10.9453 10.6211 11.0109C10.375 11.4328 10.136 11.8078 9.71762 12.0141C9.47153 12.0984 9.21488 11.9625 9.09535 11.7469C9.01449 11.6203 9.01801 11.4844 8.98988 11.4562C8.85278 11.5359 7.69262 12.1922 7.84028 11.8828C8.12153 11.4844 8.61371 11.1844 9.04262 10.7906C9.07426 10.6547 9.13051 10.2047 9.29926 10.0594C9.30981 10.0594 9.27465 10.3219 9.27817 10.4344C9.27817 10.5281 9.27113 10.5609 9.2852 10.5375C9.31684 10.5141 9.83715 9.96562 9.88285 9.79687C9.93207 9.70312 9.8934 9.45937 9.8934 9.45C9.79496 9.1125 9.65785 9.08437 9.60863 8.91562C9.56293 8.69531 9.58403 8.44219 9.67895 8.36719C9.76567 8.27031 9.85824 8.27812 9.95668 8.39062C10.0622 8.51719 10.1536 8.76562 10.1817 8.94844C10.1641 9.01875 10.0411 8.90156 10.0059 8.93437C10.0736 9.03806 10.1186 9.16453 10.136 9.3C10.2063 9.68437 10.1852 9.83437 10.1149 10.0828C9.88285 10.7344 9.58754 10.9266 9.32738 11.1703C9.32035 11.1703 9.31684 11.3344 9.41176 11.4234C9.44692 11.4703 9.58403 11.4937 9.74223 11.4234C10.0795 11.172 10.3526 10.7916 10.5262 10.3312C10.5561 9.98032 10.5273 9.62493 10.4418 9.29062C10.3399 8.97656 10.2204 8.53125 10.2204 8.52187C10.2168 8.325 10.2274 8.25937 10.2907 8.16094ZM6.9227 6.35156C7.07035 6.44531 7.3516 6.40312 7.33754 6.08437L7.33051 5.93906C7.30238 5.84531 7.21801 5.86875 7.20043 5.9625C7.1934 5.99531 7.21098 6.04687 7.18988 6.06094C7.17582 6.07969 7.13012 6.07031 7.13012 5.98125C7.12778 5.95 7.11957 5.925 7.10551 5.90625C7.10082 5.9 7.09028 5.89687 7.07387 5.89687C7.05278 5.89687 7.05278 5.90156 7.04223 5.925C7.03754 5.94687 7.03403 5.97187 7.03168 6C7.02934 6.02812 7.01996 6.04375 7.00356 6.04687C6.98246 6.04687 6.98598 6.04687 6.9684 6.0375C6.95903 6.02812 6.95317 6.0125 6.95082 5.99062L6.94028 5.91562C6.93324 5.90312 6.92153 5.89375 6.90512 5.8875C6.82426 5.8875 6.81723 6.01406 6.82426 6.06094C6.81723 6.07031 6.81371 6.29062 6.9227 6.35156Z" fill="white"/>
<path fill-rule="evenodd" clip-rule="evenodd" d="M11.2643 8.79844C11.412 8.89219 11.767 8.84063 11.6792 8.53594L11.6721 8.38594C11.6405 8.29219 11.5596 8.31563 11.542 8.41407C11.535 8.44219 11.5526 8.49376 11.528 8.50782C11.5174 8.52657 11.4682 8.51719 11.4717 8.43282C11.4694 8.40157 11.4612 8.37501 11.4471 8.35313C11.4401 8.34688 11.4284 8.34376 11.412 8.34376C11.3944 8.34376 11.3944 8.35313 11.3838 8.37657C11.3768 8.39844 11.3733 8.42344 11.3733 8.45157C11.3686 8.47657 11.3581 8.49219 11.3417 8.49844C11.3241 8.49844 11.3276 8.49844 11.3135 8.48438C11.3018 8.47501 11.2948 8.46094 11.2924 8.44219L11.2819 8.36719C11.2749 8.35157 11.2631 8.34219 11.2467 8.33907C11.1659 8.33907 11.1588 8.46094 11.1624 8.50782C11.1588 8.51719 11.1553 8.74219 11.2678 8.79844H11.2643ZM13.7956 7.78594C13.9432 7.87969 14.221 7.83751 14.2104 7.52344L14.2034 7.37344C14.1717 7.27969 14.0909 7.30313 14.0733 7.39688C14.0663 7.42969 14.0838 7.48126 14.0592 7.50001C14.0487 7.51407 13.9995 7.50469 14.003 7.41563C14.0006 7.38438 13.9924 7.35938 13.9784 7.34063C13.9713 7.33438 13.9596 7.33126 13.9432 7.33126C13.9268 7.33126 13.9174 7.34219 13.9151 7.36407L13.9045 7.43438C13.9022 7.46563 13.8917 7.48126 13.8729 7.48126C13.8448 7.48126 13.8588 7.48126 13.8448 7.47188C13.8331 7.46251 13.826 7.44844 13.8237 7.42969C13.8237 7.39844 13.8202 7.37188 13.8131 7.35001C13.8038 7.33751 13.792 7.32969 13.778 7.32657C13.6971 7.32657 13.6901 7.44844 13.6936 7.49532C13.6901 7.50469 13.6866 7.72501 13.7991 7.78594H13.7956ZM15.1069 10.3313C14.8502 10.7203 14.9627 11.3625 15.0225 11.5031C15.1069 11.7281 15.1737 11.8734 15.3389 11.9859C15.4901 12.1313 15.6096 12.0422 15.6729 11.9391C15.8241 11.7281 15.8276 11.1891 15.8979 11.0859C15.9471 10.8891 16.0737 10.9219 16.1335 11.0109C16.1899 11.1161 16.2647 11.2014 16.3514 11.2594C16.492 11.4234 16.6608 11.4563 16.8295 11.3063C16.942 11.2172 17.0159 11.1094 17.0827 10.8891C17.153 10.6266 17.1178 9.40782 17.1002 8.68594L16.9526 7.67813C16.9526 7.66876 16.935 7.20001 16.9174 7.09219C16.9174 7.04532 16.9069 7.03126 16.942 7.03594C16.9807 7.08282 16.9842 7.08282 17.0124 7.09688C17.0475 7.10626 17.0827 7.01719 17.0581 6.94219L16.7065 6.07032C16.6784 6.03282 16.6397 5.99532 16.594 6.07969C16.5665 6.11164 16.5446 6.15134 16.53 6.19593C16.5154 6.24052 16.5085 6.28888 16.5096 6.33751C16.5237 6.54688 16.5389 6.75469 16.5553 6.96094L16.696 8.02032C16.7417 8.77032 16.7522 9.38907 16.7979 10.1438C16.7909 10.4625 16.717 10.7391 16.6467 10.7813C16.6467 10.7813 16.5413 10.8609 16.471 10.7719C16.4182 10.7438 16.2108 10.3078 16.2108 10.3078C16.1053 10.1813 16.035 10.2141 15.9612 10.3078C15.7502 10.5797 15.6588 11.0766 15.5147 11.4234C15.4795 11.5031 15.3741 11.5641 15.2616 11.4188C14.9733 10.8891 15.142 10.1391 15.1069 10.3313ZM13.8624 5.93907C13.996 6.00938 14.0874 6.37032 14.0592 6.54844C14.0311 6.75938 13.9608 6.99376 13.9116 6.96563C13.8553 6.93751 13.9467 6.75001 13.894 6.55313C13.8659 6.42188 13.6831 6.18751 13.7042 6.12188C13.669 5.97657 13.7815 5.91094 13.8624 5.93438V5.93907Z" fill="white"/>
<path fill-rule="evenodd" clip-rule="evenodd" d="M15.5354 10.5469C15.56 10.1156 15.5143 9.85313 15.5073 9.60001C15.5002 9.34688 15.2928 7.41563 15.2506 7.22813C15.1979 6.8625 15.451 7.18126 15.4229 6.96563C15.335 6.70313 15.1205 6.31407 15.0538 6.08438C15.0116 5.99063 15.0291 5.89688 14.9377 6.06094C14.8586 6.34847 14.831 6.65664 14.8569 6.96094C15.0748 8.475 15.2963 9.73126 15.2612 11.1703C15.3666 11.1703 15.4827 10.8563 15.5354 10.5469ZM17.7995 6.54844C17.9225 6.62813 17.9928 7.07813 17.9788 7.20469C17.9541 7.43907 17.8909 7.69219 17.8452 7.65938C17.7924 7.63125 17.8557 7.3125 17.8311 7.21407C17.803 7.07344 17.6377 6.82032 17.6553 6.74532C17.6202 6.58594 17.7256 6.52032 17.7995 6.54844ZM8.81 9.73126C8.92602 9.79219 8.99633 10.1203 8.98578 10.2141C8.95766 10.3875 8.89789 10.575 8.85219 10.5469C8.80649 10.5281 8.86274 10.2938 8.84164 10.2188C8.8311 10.0453 8.66938 9.95157 8.67289 9.87657C8.64477 9.73594 8.74321 9.71251 8.81352 9.73126H8.81Z" fill="white"/>
<path fill-rule="evenodd" clip-rule="evenodd" d="M11.6091 10.2281C11.7568 10.2375 11.8306 10.3969 11.6935 10.4625C11.5529 10.5234 11.4228 10.575 11.4193 10.8375C11.472 11.2125 11.349 11.0813 11.2787 11.0344C11.1943 10.95 10.9552 10.7531 10.9201 10.3313C10.9166 10.2328 10.9763 10.1438 11.0712 10.1438C11.2119 10.1953 11.4228 10.2 11.6091 10.2281Z" fill="#165D31"/>
<path fill-rule="evenodd" clip-rule="evenodd" d="M5.7202 5.83125C5.88895 5.89687 5.89949 6.23437 5.88895 6.33281C5.86434 6.51094 5.80457 6.70312 5.76238 6.67968C5.71316 6.65625 5.76238 6.4125 5.73777 6.3375C5.71316 6.23437 5.56902 6.0375 5.58309 5.98125C5.55145 5.86406 5.6534 5.80781 5.7202 5.83125ZM9.09168 7.40625C8.95809 7.5 8.90887 7.78125 8.98973 7.95C9.06707 8.09062 9.1866 8.03906 9.20066 8.03906C9.33074 8.05781 9.40809 7.71562 9.40809 7.71562C9.40809 7.71562 9.4116 7.62187 9.26043 7.80468C9.19363 7.81875 9.19012 7.78594 9.17254 7.73906C9.15644 7.64982 9.16262 7.55601 9.19012 7.47187C9.21473 7.3875 9.16551 7.35 9.09168 7.40625ZM10.0761 5.7C10.0057 5.76093 9.87566 5.94375 9.87215 6.15C9.86863 6.26718 9.85106 6.26718 9.90731 6.3375C9.95301 6.42187 9.99168 6.41719 10.0761 6.35625C10.0972 6.33882 10.1154 6.31561 10.1293 6.28813C10.1433 6.26066 10.1527 6.22955 10.1569 6.19687C10.178 6.06562 10.0514 6.2625 10.0374 6.1125C10.0093 5.97187 10.0901 5.91562 10.1675 5.78437C10.1675 5.69062 10.1675 5.62968 10.0725 5.7H10.0761ZM10.8636 5.8875C10.8327 6.05821 10.8138 6.23241 10.8073 6.40781C10.7862 6.53906 10.9128 6.59531 10.9655 6.42656C11.0499 6.12187 11.0499 5.99062 11.0569 5.86406C11.0323 5.6625 10.9304 5.66718 10.8636 5.8875ZM15.8557 9.27656C15.8698 9.25312 16.5589 8.60156 16.5589 8.60156C16.6292 8.56875 16.6116 8.93906 16.58 8.93437C16.3662 9.20884 16.1204 9.43523 15.8522 9.60468C15.8171 9.6375 15.7854 9.35625 15.8522 9.27656H15.8557ZM16.478 9.26718C16.6011 9.34687 16.6503 9.82031 16.6362 9.94687C16.6362 10.2 16.5202 10.3969 16.471 10.3687C16.4218 10.3359 16.478 10.0547 16.4534 9.95625C16.4253 9.81562 16.3233 9.55781 16.3409 9.48281C16.3057 9.32343 16.4042 9.23906 16.4815 9.26718H16.478ZM12.3999 11.3016C12.4569 11.2128 12.5232 11.1355 12.5968 11.0719C12.6671 11.025 12.7304 11.1094 12.7268 11.1047C12.7374 11.1984 12.6846 11.2781 12.7022 11.4C12.7163 11.4469 12.7268 11.5031 12.7936 11.4844C12.9026 11.3672 13.0046 11.3578 13.11 11.3531C13.1979 11.3578 13.2014 11.55 13.1452 11.55C12.9448 11.6062 12.8569 11.6812 12.7128 11.7516C12.6425 11.8078 12.5862 11.7375 12.5862 11.7328C12.5862 11.7281 12.5475 11.6812 12.5721 11.5594C12.5792 11.4594 12.5511 11.4125 12.4878 11.4187C12.4456 11.4562 12.4034 11.475 12.3823 11.4047C12.3682 11.3609 12.3741 11.3266 12.3999 11.3016ZM17.2022 11.5547C17.2304 11.6016 17.2514 11.6484 17.1987 11.7328L17.0686 11.8828C17.0475 11.9297 17.0335 12.0141 17.1038 12.0375C17.2304 12.0844 17.5257 11.8266 17.5257 11.8219C17.5749 11.775 17.5608 11.6812 17.5538 11.6812C17.5257 11.6391 17.4624 11.6672 17.4202 11.6578C17.3991 11.6578 17.3323 11.6484 17.3639 11.5641C17.3877 11.5228 17.4067 11.477 17.4202 11.4281C17.4413 11.375 17.4179 11.3328 17.3499 11.3016C17.2761 11.2828 17.2444 11.2922 17.1636 11.3016C17.1261 11.3078 17.1038 11.3437 17.0968 11.4094C17.1003 11.5172 17.1495 11.5125 17.2022 11.55V11.5547Z" fill="white"/>
<path fill-rule="evenodd" clip-rule="evenodd" d="M12.4249 8.89219C12.4073 8.93906 12.344 8.93906 12.2843 8.89219C12.2245 8.84531 12.1893 8.77031 12.2104 8.72813C12.2315 8.68594 12.2913 8.68594 12.3511 8.72813C12.4108 8.77031 12.4425 8.85 12.4249 8.89219ZM9.29598 6.37969C9.26082 6.39375 9.2116 6.35157 9.19051 6.28594C9.16942 6.22032 9.17996 6.16407 9.21512 6.15C9.25028 6.13594 9.29598 6.18282 9.32059 6.24375C9.3452 6.30469 9.33114 6.37032 9.29246 6.38438L9.29598 6.37969ZM15.487 17.5781C15.8175 17.5969 16.1268 17.5781 16.4538 17.6016C16.5136 17.6719 16.4714 17.8359 16.4327 17.8266L16.1585 17.8125C16.155 17.6719 15.8878 17.6953 15.8948 17.8172C15.7507 17.8406 15.6206 17.8125 15.4729 17.8031C15.4307 17.7328 15.4378 17.6063 15.487 17.5781Z" fill="#165D31"/>
</g>
</svg>
