<svg width="48" height="48" viewBox="0 0 48 48" fill="none" xmlns="http://www.w3.org/2000/svg">
<path d="M33.8113 31.0724L11.9016 45.0431C11.8297 45.0863 11.7506 45.115 11.6666 45.1318C11.4149 45.1798 9.80004 44.1212 9.47386 43.9341C9.25809 43.8094 9.05425 43.6416 8.86973 43.4426C8.59155 43.1477 8.35178 42.7832 8.18634 42.3996C8.01845 42.0159 7.92257 41.6203 7.92257 41.2462L7.45015 20.6901C7.45015 20.1002 7.93931 19.2442 7.42615 18.9469C7.16717 18.7982 7.40461 16.856 7.23438 16.9543L29.6225 3.94398C29.7927 3.84567 30.0275 3.86006 30.2842 4.00872C30.7997 4.30604 31.217 5.03018 31.217 5.62003L31.1522 28.2766C31.1522 28.6507 31.2481 29.0463 31.4159 29.43C31.5814 29.8136 31.8212 30.1781 32.0993 30.473C32.2839 30.672 32.4877 30.8399 32.7035 30.9645C33.0297 31.1516 33.3245 31.2091 33.5763 31.1612C33.6603 31.1444 33.7394 31.1156 33.8113 31.0724Z" fill="#FFD86A"/>
<path d="M30.5442 2.09406C30.1048 1.83802 29.7205 8.09266 29.0481 8.48085L15.987 13.6915C14.6507 14.4629 13.5703 16.3329 13.5753 17.8691L14.7041 38.6968C16.8236 39.403 12.7334 42.9209 11.3937 43.2214L10.5004 42.7026C10.0659 42.4499 9.7967 41.913 9.79339 41.1515L9.72072 15.04C9.71572 13.5054 10.7961 11.6354 12.1308 10.864L27.9279 1.74384C28.6019 1.35565 29.2097 1.3193 29.6509 1.57534L30.5442 2.09406Z" fill="#D3D3DD"/>
<path d="M28.8218 2.26282C30.1581 1.4913 31.2448 2.11059 31.2491 3.64607L31.3232 29.7566C31.3275 31.2909 30.2479 33.1609 28.9116 33.9324L13.1146 43.0528C11.7783 43.8243 10.6917 43.205 10.6873 41.6707L10.6133 15.5602C10.6089 14.0247 11.6885 12.1547 13.0248 11.3832L28.8218 2.26282Z" fill="#EDEEF2"/>
<path d="M12.7277 15.0781C12.6682 15.0781 12.6099 15.0471 12.5779 14.9918C12.5302 14.9091 12.5584 14.8034 12.6412 14.7557L16.029 12.7997C16.1121 12.7523 16.2172 12.7801 16.2653 12.8628C16.313 12.9455 16.2847 13.0512 16.202 13.0989L12.8142 15.0549C12.7867 15.0707 12.7572 15.0781 12.7277 15.0781Z" fill="#D3D3DD"/>
<path d="M17.4269 12.3644C17.3674 12.3644 17.3091 12.3334 17.2771 12.2781C17.2294 12.1954 17.2577 12.0897 17.3404 12.042L25.263 7.46756C25.3457 7.41987 25.4516 7.44793 25.4993 7.53064C25.547 7.61336 25.5187 7.71907 25.436 7.76675L17.5134 12.3412C17.486 12.357 17.4564 12.3644 17.4269 12.3644Z" fill="#D3D3DD"/>
<path d="M26.5519 7.09569C26.4924 7.09569 26.4341 7.06468 26.4021 7.00939C26.3544 6.92668 26.3827 6.82097 26.4654 6.77329L28.4395 5.63347C28.5222 5.58557 28.6277 5.61363 28.6758 5.69656C28.7235 5.77927 28.6952 5.88498 28.6125 5.93266L26.6384 7.07248C26.611 7.08831 26.5814 7.09569 26.5519 7.09569Z" fill="#D3D3DD"/>
<path d="M12.7277 18.4252C12.6682 18.4252 12.6099 18.3942 12.5779 18.3389C12.5302 18.2562 12.5584 18.1505 12.6412 18.1028L21.8255 12.7997C21.9078 12.7523 22.0137 12.7801 22.0619 12.8628C22.1095 12.9455 22.0813 13.0512 21.9986 13.0989L12.8142 18.402C12.7867 18.4178 12.7572 18.4252 12.7277 18.4252Z" fill="#D3D3DD"/>
<path d="M23.4523 12.2326C23.3928 12.2326 23.3345 12.2016 23.3025 12.1463C23.2548 12.0636 23.2831 11.9579 23.3658 11.9102L28.4399 8.9805C28.5226 8.93281 28.6281 8.96087 28.6762 9.04358C28.7239 9.1263 28.6956 9.23201 28.6129 9.27969L23.5388 12.2094C23.5114 12.2252 23.4818 12.2326 23.4523 12.2326Z" fill="#D3D3DD"/>
<path d="M12.7277 21.7722C12.6682 21.7722 12.6099 21.7412 12.5779 21.6859C12.5302 21.6032 12.5584 21.4974 12.6412 21.4498L16.029 19.4936C16.1121 19.4461 16.2172 19.474 16.2653 19.5567C16.313 19.6394 16.2847 19.7451 16.202 19.7928L12.8142 21.749C12.7867 21.7648 12.7572 21.7722 12.7277 21.7722Z" fill="#D3D3DD"/>
<path d="M17.4269 19.0584C17.3674 19.0584 17.3091 19.0274 17.2771 18.9721C17.2294 18.8894 17.2577 18.7837 17.3404 18.736L28.4394 12.3273C28.5221 12.2794 28.6276 12.3075 28.6757 12.3904C28.7234 12.4731 28.6951 12.5788 28.6124 12.6265L17.5134 19.0352C17.486 19.051 17.4564 19.0584 17.4269 19.0584Z" fill="#D3D3DD"/>
<path d="M12.7277 25.1191C12.6682 25.1191 12.6099 25.0881 12.5779 25.0328C12.5302 24.9501 12.5584 24.8444 12.6412 24.7967L24.2347 18.1027C24.317 18.0552 24.4229 18.0831 24.471 18.1658C24.5187 18.2485 24.4905 18.3542 24.4077 18.4019L12.8142 25.0959C12.7867 25.1117 12.7572 25.1191 12.7277 25.1191Z" fill="#D3D3DD"/>
<path d="M25.5656 17.7071C25.5061 17.7071 25.4478 17.6761 25.4157 17.6208C25.3681 17.5381 25.3963 17.4324 25.479 17.3847L28.4406 15.6746C28.5233 15.6269 28.6288 15.655 28.677 15.7377C28.7246 15.8204 28.6964 15.9261 28.6137 15.9738L25.6521 17.6839C25.6246 17.6998 25.5951 17.7071 25.5656 17.7071Z" fill="#D3D3DD"/>
<path d="M12.7277 28.4661C12.6682 28.4661 12.6099 28.4351 12.5779 28.3798C12.5302 28.2971 12.5584 28.1914 12.6412 28.1437L28.4399 19.0216C28.5227 18.9737 28.6282 19.0021 28.6763 19.0846C28.724 19.1674 28.6957 19.2731 28.613 19.3208L12.8142 28.4429C12.7867 28.4587 12.7572 28.4661 12.7277 28.4661Z" fill="#D3D3DD"/>
<path d="M12.8976 15.1367C12.8381 15.1367 12.7798 15.1057 12.7478 15.0504C12.7001 14.9677 12.7284 14.862 12.8111 14.8143L16.1989 12.8583C16.282 12.8109 16.3871 12.8387 16.4352 12.9214C16.4829 13.0041 16.4546 13.1098 16.3719 13.1575L12.9841 15.1135C12.9567 15.1293 12.9271 15.1367 12.8976 15.1367Z" fill="#423751"/>
<path d="M17.5968 12.423C17.5373 12.423 17.4791 12.392 17.447 12.3367C17.3993 12.254 17.4276 12.1483 17.5103 12.1006L25.4329 7.52615C25.5156 7.47846 25.6215 7.50653 25.6692 7.58924C25.7169 7.67195 25.6886 7.77766 25.6059 7.82535L17.6833 12.3998C17.6559 12.4156 17.6263 12.423 17.5968 12.423Z" fill="#423751"/>
<path d="M26.7218 7.15429C26.6623 7.15429 26.6041 7.12327 26.572 7.06799C26.5243 6.98528 26.5526 6.87957 26.6353 6.83188L28.6094 5.69206C28.6921 5.64416 28.7976 5.67223 28.8457 5.75515C28.8934 5.83786 28.8651 5.94357 28.7824 5.99126L26.8083 7.13108C26.7809 7.1469 26.7513 7.15429 26.7218 7.15429Z" fill="#423751"/>
<path d="M12.8976 18.4838C12.8381 18.4838 12.7798 18.4528 12.7478 18.3975C12.7001 18.3148 12.7284 18.2091 12.8111 18.1614L21.9955 12.8583C22.0777 12.8109 22.1837 12.8387 22.2318 12.9214C22.2795 13.0041 22.2512 13.1098 22.1685 13.1575L12.9841 18.4606C12.9567 18.4764 12.9271 18.4838 12.8976 18.4838Z" fill="#423751"/>
<path d="M23.6222 12.2912C23.5627 12.2912 23.5045 12.2602 23.4724 12.2049C23.4247 12.1222 23.453 12.0165 23.5357 11.9688L28.6098 9.03909C28.6925 8.9914 28.798 9.01947 28.8461 9.10218C28.8938 9.18489 28.8655 9.2906 28.7828 9.33829L23.7087 12.268C23.6813 12.2838 23.6517 12.2912 23.6222 12.2912Z" fill="#423751"/>
<path d="M12.8976 21.8308C12.8381 21.8308 12.7798 21.7997 12.7478 21.7445C12.7001 21.6618 12.7284 21.556 12.8111 21.5084L16.1989 19.5522C16.282 19.5047 16.3871 19.5326 16.4352 19.6153C16.4829 19.698 16.4546 19.8037 16.3719 19.8514L12.9841 21.8076C12.9567 21.8234 12.9271 21.8308 12.8976 21.8308Z" fill="#423751"/>
<path d="M17.5968 19.117C17.5373 19.117 17.4791 19.086 17.447 19.0307C17.3993 18.948 17.4276 18.8423 17.5103 18.7946L28.6093 12.3859C28.692 12.338 28.7975 12.3661 28.8456 12.449C28.8933 12.5317 28.865 12.6374 28.7823 12.6851L17.6833 19.0938C17.6559 19.1096 17.6263 19.117 17.5968 19.117Z" fill="#423751"/>
<path d="M12.8976 25.1777C12.8381 25.1777 12.7798 25.1467 12.7478 25.0914C12.7001 25.0087 12.7284 24.903 12.8111 24.8553L24.4047 18.1613C24.4869 18.1138 24.5929 18.1417 24.641 18.2244C24.6887 18.3071 24.6604 18.4128 24.5777 18.4605L12.9841 25.1545C12.9567 25.1703 12.9271 25.1777 12.8976 25.1777Z" fill="#423751"/>
<path d="M25.7355 17.7657C25.676 17.7657 25.6177 17.7347 25.5857 17.6794C25.538 17.5967 25.5663 17.491 25.649 17.4433L28.6106 15.7332C28.6933 15.6855 28.7988 15.7136 28.8469 15.7963C28.8946 15.879 28.8663 15.9847 28.7836 16.0324L25.822 17.7425C25.7946 17.7584 25.765 17.7657 25.7355 17.7657Z" fill="#423751"/>
<path d="M12.8976 28.5247C12.8381 28.5247 12.7798 28.4937 12.7478 28.4384C12.7001 28.3557 12.7284 28.25 12.8111 28.2023L28.6099 19.0802C28.6926 19.0323 28.7981 19.0607 28.8462 19.1432C28.8939 19.226 28.8656 19.3317 28.7829 19.3793L12.9841 28.5015C12.9567 28.5173 12.9271 28.5247 12.8976 28.5247Z" fill="#423751"/>
<path d="M36.1857 12.5832L36.133 31.1516C36.1306 32.2354 35.7421 33.0027 35.1211 33.3552L12.7595 46.3511C13.3636 45.9915 12.4842 45.2134 12.4867 44.144L12.5554 26.835C12.5554 26.6216 12.7913 26.1085 12.6978 25.8879C12.5348 25.4971 12.6978 25.8879 12.3668 25.6961C12.1078 25.545 12.3734 23.8192 12.2031 23.9199V23.9175L34.5912 10.9072C34.7614 10.8089 34.9964 10.8233 35.2554 10.9743C35.3632 11.0367 35.4664 11.1158 35.5623 11.2117C35.6007 11.2477 35.6366 11.2884 35.6725 11.3292C35.6869 11.346 35.7013 11.3628 35.7157 11.3819C35.7469 11.4179 35.7757 11.4563 35.802 11.4946C35.8452 11.5546 35.8836 11.6145 35.9196 11.6769C35.9507 11.7296 35.9772 11.7848 36.0035 11.8399C36.0203 11.8759 36.0347 11.9095 36.0491 11.9454C36.061 11.9766 36.0731 12.0054 36.085 12.0341C36.1354 12.1804 36.169 12.3291 36.1809 12.4729C36.1834 12.5113 36.1857 12.5473 36.1857 12.5832Z" fill="#FFD86A"/>
<path d="M36.1856 12.5864L36.1343 31.1552C36.127 32.235 35.745 33.0062 35.1206 33.3588L12.7616 46.3526C13.364 45.9927 12.4824 45.2141 12.4824 44.1417L12.5412 31.1626C13.5182 31.5372 14.5906 31.7429 15.7144 31.7429C20.4008 31.7429 24.1909 28.1584 24.1909 23.7365C24.1909 21.6284 23.3242 19.704 21.9065 18.279L34.5917 10.9044C34.7607 10.8089 34.9958 10.8235 35.2527 10.9778C35.363 11.0366 35.4658 11.1174 35.5614 11.2128C35.5981 11.2496 35.6347 11.2863 35.6715 11.3304C35.6862 11.3451 35.7009 11.3598 35.7156 11.3818C35.745 11.4185 35.7744 11.4553 35.8036 11.492C35.8478 11.5581 35.8845 11.6168 35.9213 11.6756C35.9507 11.727 35.9801 11.7858 36.002 11.8372C36.0167 11.8739 36.0314 11.9107 36.0461 11.9474C36.0608 11.9767 36.0755 12.0061 36.0829 12.0355C36.1343 12.1824 36.1709 12.3293 36.1784 12.4762C36.1856 12.513 36.1856 12.5497 36.1856 12.5864Z" fill="#FCCB4F"/>
<path d="M7.89839 17.0198C8.41379 17.3174 8.83096 18.04 8.82929 18.6307L8.76506 41.2864C8.764 41.6605 8.85996 42.0564 9.02707 42.4398C9.19418 42.8232 9.43378 43.189 9.71114 43.4845C9.89695 43.6824 10.0996 43.85 10.3166 43.9753C10.6422 44.1617 10.937 44.2204 11.1881 44.1722C11.4367 44.1224 11.6364 43.9627 11.7549 43.7099C11.8343 43.5416 11.8775 43.3347 11.8796 43.0846L11.9322 24.5168C11.9339 23.9246 12.3525 23.686 12.8679 23.9836C13.3833 24.2811 13.7992 25.0015 13.7976 25.5938L13.7449 44.1616C13.7418 45.2451 13.3541 46.0129 12.7346 46.3645C12.1164 46.7182 11.2535 46.6646 10.3105 46.1187C9.36602 45.5734 8.50742 44.6334 7.89297 43.5692C7.27755 42.5046 6.89538 41.2923 6.89846 40.2087L6.96268 17.553C6.96436 16.9623 7.38426 16.723 7.89839 17.0198Z" fill="#F7B92F"/>
<g opacity="0.3">
<path d="M20.0943 26.5938C18.9677 27.4722 19.1045 29.8279 19.0071 31.1154C18.8354 33.3911 18.7091 35.2635 21.4115 36.022C24.6419 36.9288 26.8467 35.8239 28.6278 33.104C30.1338 30.8042 31.1194 28.4138 31.2442 25.6395C31.2581 25.3291 31.3787 25.0908 31.5521 24.9165C31.5449 23.6488 31.4084 21.9217 30.66 20.9636C29.6511 19.672 28.0345 19.9007 26.6373 20.4281C24.807 21.1189 21.6615 22.6264 21.4261 24.9814C21.3664 25.5776 20.9322 25.9142 20.4647 26.0031C20.4335 26.2107 20.3219 26.4164 20.0943 26.5938Z" fill="#0F0F0F"/>
</g>
<path d="M29.1731 29.4825L39.2199 32.2301C40.5786 32.6016 41.3789 34.0043 41.0074 35.363C40.6358 36.7217 39.2331 37.5219 37.8745 37.1503C37.6503 37.089 37.4308 36.9927 37.2399 36.8801L28.2965 31.541C27.7611 31.2214 27.5863 30.5282 27.9059 29.9928C28.1715 29.5478 28.6963 29.3524 29.1731 29.4825Z" fill="#FF3D47"/>
<path d="M41.0078 35.3628C40.6352 36.7224 39.2327 37.5224 37.8748 37.1499C37.6499 37.0898 37.4302 36.9919 37.2397 36.8803L28.2957 31.5414C27.7601 31.2221 27.5868 30.5286 27.906 29.993C28.1721 29.5484 28.6957 29.3527 29.1729 29.4831L31.803 30.2024C31.7342 30.3895 31.6982 30.587 31.6982 30.7913C31.6982 32.0238 33.0252 33.0212 34.6629 33.0212C35.8595 33.0212 36.8895 32.4873 37.3564 31.72L39.219 32.2298C40.5786 32.6024 41.3786 34.0049 41.0078 35.3628Z" fill="#F72D40"/>
<path d="M30.3189 19.6299L29.146 18.9442C27.8142 18.1718 25.97 18.2801 23.9382 19.453C19.8924 21.7917 16.6299 27.4434 16.6407 32.0883C16.6479 34.3944 17.4635 36.0185 18.7773 36.78L19.9718 37.4729L19.9971 37.4874C21.3324 38.2958 23.1947 38.2019 25.2591 37.011C29.2939 34.6795 32.5637 29.017 32.5493 24.3758C32.5421 22.0119 31.6904 20.3661 30.3189 19.6299ZM23.9778 33.5427C22.9276 34.149 21.9495 34.3367 21.1447 34.1526C20.6034 33.5535 20.2858 32.6404 20.2822 31.4603C20.275 28.324 22.4909 24.4949 25.2193 22.9213C26.2624 22.3186 27.2332 22.1309 28.0344 22.3042C28.5793 22.9033 28.9006 23.8236 28.9041 25.0073C28.915 28.14 26.7027 31.9691 23.9778 33.5427Z" fill="#423751"/>
<path d="M17.9144 32.8268C17.9013 28.1826 21.165 22.5297 25.2112 20.1937C27.2433 19.0204 29.086 18.9114 30.4168 19.6848L29.145 18.9457C27.8142 18.1723 25.9715 18.2813 23.9394 19.4546C19.8931 21.7906 16.6295 27.4435 16.6426 32.0877C16.6491 34.3939 17.4635 36.0177 18.7775 36.7813L20.0493 37.5204C18.7353 36.7567 17.921 35.133 17.9144 32.8268Z" fill="#312944"/>
<path d="M28.7344 22.5792L27.4626 21.8401C28.3499 22.3558 28.9011 23.451 28.9055 25.0077C28.9144 28.14 26.7026 31.9709 23.979 33.5434C22.6046 34.3369 21.3565 34.4093 20.4551 33.8855L21.727 34.6246C22.6283 35.1484 23.8764 35.076 25.2508 34.2825C27.9744 32.71 30.1862 28.8791 30.1773 25.7468C30.1729 24.1901 29.6217 23.0949 28.7344 22.5792Z" fill="#312944"/>
<path d="M25.2109 20.1938C29.2479 17.863 32.5375 19.7324 32.5507 24.3765C32.5639 29.018 29.2956 34.6789 25.2585 37.0097C21.2123 39.3458 17.9273 37.4685 17.9141 32.827C17.9009 28.1828 21.1646 22.5299 25.2109 20.1938ZM25.2508 34.2825C27.9745 32.71 30.1862 28.8791 30.1773 25.7468C30.1684 22.6119 27.9422 21.3485 25.2186 22.921C22.4904 24.4961 20.274 28.3244 20.2829 31.4593C20.2918 34.5916 22.5226 35.8576 25.2508 34.2825Z" fill="#423751"/>
</svg>
