<svg width="40" height="40" viewBox="0 0 40 40" fill="none" xmlns="http://www.w3.org/2000/svg">
<g clip-path="url(#clip0_478_13335)">
<path fill-rule="evenodd" clip-rule="evenodd" d="M19.9996 11.1249V6.9525C19.9996 6.0461 19.2636 5.3105 18.3576 5.3105C17.4516 5.3105 16.7156 6.0461 16.7156 6.9525C16.7156 7.8585 17.4516 8.59409 18.3576 8.59409C18.5784 8.59409 18.7576 8.77329 18.7576 8.99409C18.7576 9.21489 18.5784 9.39409 18.3576 9.39409C17.01 9.39409 15.9156 8.3001 15.9156 6.9525C15.9156 5.6045 17.01 4.5105 18.3576 4.5105C18.4192 4.5105 18.4804 4.5129 18.5408 4.5173C18.5648 4.5129 18.5896 4.5105 18.6148 4.5105H32.3496C32.7848 4.5105 33.202 4.68329 33.51 4.99089C33.8176 5.29889 33.9904 5.71609 33.9904 6.15129V12.8205C35.0636 12.2189 36.2616 11.7741 37.55 11.6445C37.6704 11.6325 37.7896 11.6757 37.8748 11.7617C37.9596 11.8477 38.0012 11.9677 37.9876 12.0877C37.7016 14.6101 36.2096 16.7697 34.7068 18.3201C34.4668 18.5681 34.226 18.8005 33.9904 19.0161V31.3781H34.6624C34.672 31.3781 34.682 31.3785 34.6912 31.3789C34.8456 31.3677 34.9992 31.4469 35.0756 31.5929C35.6992 32.7877 35.2356 34.2637 34.0408 34.8877C33.6804 35.0757 33.294 35.1649 32.9132 35.1649H22.4552C21.5704 35.1689 20.7136 34.6909 20.2764 33.8529C20.212 33.7301 20.1592 33.6041 20.118 33.4761C19.24 33.9205 18.3024 34.2641 17.3208 34.4917V35.0897C17.3208 35.3105 17.1416 35.4897 16.9208 35.4897H9.65681C9.43561 35.4897 9.25681 35.3105 9.25681 35.0897V33.6637C4.97921 31.6817 2.01001 27.3497 2.01001 22.3301C2.01001 15.4401 7.6036 9.84609 14.4936 9.84609C16.4692 9.84609 18.3384 10.3061 19.9996 11.1249ZM10.0568 33.4381H16.5208V34.6897H10.0568V33.4381ZM34.46 32.1781H24.8216C25.0004 32.9585 24.7812 33.7781 24.2488 34.3649H32.9132C33.1688 34.3649 33.4284 34.3049 33.6708 34.1785C34.4036 33.7957 34.7272 32.9357 34.46 32.1781ZM20.8384 33.0813C20.8688 33.2177 20.9176 33.3529 20.9856 33.4825C21.4048 34.2861 22.3976 34.5977 23.2008 34.1785C23.9636 33.7801 24.2832 32.8649 23.954 32.0857C23.866 32.0125 23.8096 31.9017 23.8096 31.7781C23.8096 31.5573 23.9888 31.3781 24.2096 31.3781H33.1904V19.7041C32.294 20.4285 31.5772 20.8561 31.3872 20.9277C30.1568 21.3933 28.95 21.5213 28.5264 21.5533L27.4012 22.6645C27.244 22.8193 26.9908 22.8177 26.8356 22.6609C26.6804 22.5037 26.682 22.2501 26.8392 22.0949L27.9644 20.9841C28.002 20.5613 28.1452 19.3557 28.6264 18.1317C28.7012 17.9409 29.1304 17.2229 29.8744 16.3381C29.8992 16.3089 29.9252 16.2805 29.9496 16.2501C29.9916 16.1977 30.2288 15.9765 30.5208 16.1897C30.5624 16.2197 30.6512 16.2989 30.7564 16.3861C30.7736 16.0909 30.7964 15.7233 30.8104 15.5549C30.8292 15.3261 30.92 15.1921 30.9532 15.1593C31.59 14.5241 32.3424 13.8765 33.1904 13.3113V6.15129C33.1904 5.92809 33.102 5.7145 32.944 5.5569C32.7864 5.3993 32.5728 5.3105 32.3496 5.3105H20.1644C20.5588 5.7441 20.7996 6.3205 20.7996 6.9525V32.1917C20.8308 32.2629 20.8416 32.3437 20.8264 32.4253C20.8108 32.5113 20.8016 32.5985 20.7996 32.6861V32.7637C20.8012 32.8345 20.8072 32.9053 20.8184 32.9757H21.0132C20.9552 33.0113 20.8968 33.0465 20.8384 33.0813ZM19.9996 29.0653V32.6357C19.162 33.0845 18.264 33.4341 17.3208 33.6689V33.0381C17.3208 32.8169 17.1416 32.6381 16.9208 32.6381H16.4336V28.9237C16.4336 28.7029 16.2544 28.5237 16.0336 28.5237C15.7084 28.5237 15.3348 28.2785 15.0292 27.9753C14.9684 27.9149 14.9096 27.8517 14.8544 27.7865C15.0868 27.8197 15.316 27.8257 15.5384 27.7757C15.7048 27.7377 15.8632 27.6597 16.02 27.5717C16.1552 27.4953 16.2856 27.3993 16.4432 27.3837C17.4636 27.2837 17.9856 27.5285 18.6852 28.1681C18.7836 28.2581 19.48 28.7333 19.6596 28.8553C19.7268 28.9801 19.8568 29.0609 19.9996 29.0653ZM10.144 31.3897C9.88559 31.6021 9.65681 31.8409 9.53401 32.2057C9.50001 32.3069 9.43919 32.4273 9.38679 32.5517C9.36519 32.6033 9.342 32.6973 9.3364 32.7205C9.3448 32.7373 9.35201 32.7545 9.35801 32.7717C9.43121 32.6897 9.53801 32.6381 9.65681 32.6381H10.144V31.3897ZM10.9444 21.2837H15.6336V24.2577C15.6336 24.4901 15.4992 24.7013 15.2888 24.8005C14.8052 25.0241 14.326 25.4545 14.0216 25.9249C13.8148 26.2437 13.69 26.5817 13.6728 26.8881C13.6712 26.9125 13.6716 27.0249 13.6728 27.0449C13.7028 27.5281 14.0172 28.0985 14.466 28.5437C14.8136 28.8881 15.2356 29.1517 15.6336 29.2641V32.6381H10.944V29.2645C11.3452 29.1513 11.77 28.8849 12.1188 28.5361C12.5572 28.0981 12.8648 27.5397 12.9028 27.0593C12.9056 27.0261 12.9064 26.9173 12.9052 26.8953C12.8896 26.5869 12.7644 26.2469 12.5568 25.9249C12.2536 25.4541 11.7772 25.0209 11.2988 24.7893C11.2976 24.7889 11.296 24.7881 11.2948 24.7877C11.0896 24.6909 10.9584 24.4845 10.9584 24.2577C10.9584 24.2565 10.9584 24.2553 10.9584 24.2541C10.948 23.0985 10.9452 21.8913 10.9444 21.2837ZM19.9996 17.8473V28.1069C19.72 27.9105 19.308 27.6537 19.2248 27.5777C18.3332 26.7629 17.6652 26.4601 16.3652 26.5877C16.1704 26.6065 15.992 26.6765 15.8216 26.7665C15.666 26.8485 15.5236 26.9585 15.362 26.9953C15.0752 27.0601 14.7752 26.9721 14.474 26.8945C14.492 26.7221 14.5772 26.5381 14.6928 26.3597C14.918 26.0121 15.2692 25.6905 15.6264 25.5257C15.6272 25.5253 15.6284 25.5249 15.6292 25.5245C16.12 25.2937 16.4332 24.8001 16.4336 24.2577V21.2837H16.9208C17.1416 21.2837 17.3208 21.1045 17.3208 20.8837V18.8321C17.3208 18.6113 17.1416 18.4321 16.9208 18.4321H9.65681C9.43561 18.4321 9.25681 18.6113 9.25681 18.8321V20.8837C9.25681 21.1045 9.43561 21.2837 9.65681 21.2837H10.1444C10.1452 21.8925 10.148 23.1029 10.1588 24.2613C10.1584 24.7933 10.4672 25.2805 10.9508 25.5097C11.3068 25.6821 11.6584 26.0077 11.8844 26.3581C12.0148 26.5609 12.1068 26.7697 12.1068 26.9609C12.1068 27.2885 11.8596 27.6641 11.5532 27.9705C11.2472 28.2765 10.8716 28.5237 10.544 28.5237C10.3228 28.5237 10.144 28.7029 10.144 28.9237V30.3885C9.97439 30.5137 9.8048 30.6333 9.6468 30.7629C9.272 31.0689 8.95321 31.4229 8.77561 31.9505C8.73161 32.0825 8.64041 32.2469 8.58721 32.4109C7.80761 31.9529 7.08561 31.4069 6.4352 30.7873C6.7168 30.5129 6.872 30.1585 6.9512 29.7641C7.0772 29.1385 6.98801 28.4017 7.07361 27.8577C7.23561 26.8297 7.7052 25.9477 7.5988 24.8281C7.5504 24.3209 7.32161 23.9753 7.04561 23.6589C6.84441 23.4281 6.61 23.2201 6.4656 22.9221C6.2728 22.5229 6.2484 22.0813 6.0144 21.6809C5.3612 20.5641 4.33159 19.9749 3.11919 19.6501C3.68439 17.2465 4.99241 15.1281 6.78721 13.5509C6.78241 13.9901 6.8932 14.4725 7.096 14.9177C7.4492 15.6929 8.07039 16.3273 8.69919 16.4541C9.20999 16.5569 9.71961 16.4837 10.2288 16.4101C10.6408 16.3509 11.0524 16.2881 11.4668 16.3965C11.8412 16.4945 12.1184 16.7973 12.41 17.0685C12.8168 17.4477 13.2408 17.7817 13.7788 17.8317C14.2164 17.8725 14.6812 17.6501 15.1336 17.4157C15.3036 17.3273 15.4724 17.2405 15.6388 17.1865C15.752 17.1501 15.8624 17.1265 15.97 17.1521C16.57 17.2953 17.1648 17.5793 17.698 17.9009C17.8488 17.9921 18.0008 18.1265 18.1672 18.2249C18.4224 18.3757 18.7028 18.4565 19.0236 18.3737C19.3348 18.2933 19.6052 18.1209 19.8612 17.9441C19.908 17.9117 19.9536 17.8793 19.9996 17.8473ZM2.96279 20.4361C2.86239 21.0525 2.81001 21.6853 2.81001 22.3301C2.81001 25.3677 3.9716 28.1365 5.8748 30.2153C6.106 29.9917 6.17399 29.6657 6.20759 29.3281C6.26159 28.7797 6.2116 28.1893 6.2832 27.7333C6.3636 27.2225 6.5228 26.7481 6.65 26.2625C6.7624 25.8337 6.84919 25.3953 6.80239 24.9037C6.76479 24.5101 6.5328 24.2809 6.3116 24.0385C6.1012 23.8081 5.89161 23.5721 5.74561 23.2701C5.56161 22.8897 5.5468 22.4661 5.324 22.0849C4.792 21.1753 3.94599 20.7069 2.96279 20.4361ZM22.4408 29.2773H30.9356C31.1564 29.2773 31.3356 29.0981 31.3356 28.8773C31.3356 28.6565 31.1564 28.4773 30.9356 28.4773H22.4408C22.22 28.4773 22.0408 28.6565 22.0408 28.8773C22.0408 29.0981 22.22 29.2773 22.4408 29.2773ZM19.9084 28.2789C19.8812 28.2861 19.8572 28.2953 19.8352 28.3057C19.8132 28.3165 19.794 28.3289 19.7764 28.3421C19.8152 28.3137 19.8596 28.2921 19.9084 28.2789ZM22.4408 25.2401H30.9356C31.1564 25.2401 31.3356 25.0609 31.3356 24.8401C31.3356 24.6193 31.1564 24.4401 30.9356 24.4401H22.4408C22.22 24.4401 22.0408 24.6193 22.0408 24.8401C22.0408 25.0609 22.22 25.2401 22.4408 25.2401ZM29.4668 20.6249C29.9424 20.5389 30.5204 20.4005 31.104 20.1797C31.37 20.0789 32.7468 19.1933 34.1324 17.7633C35.422 16.4329 36.72 14.6273 37.1156 12.5113C34.8804 12.8997 32.9768 14.2937 31.6116 15.6333C31.604 15.8645 31.5772 16.5813 31.5336 16.8749C31.5036 17.0749 31.4316 17.2069 31.382 17.2613C31.2656 17.3893 31.0836 17.4621 30.8448 17.3865C30.7148 17.3453 30.4956 17.1901 30.3204 17.0549C29.764 17.7393 29.4312 18.2709 29.3712 18.4241C29.1428 19.0053 28.9972 19.5813 28.9048 20.0557L34.4704 14.5609C34.6272 14.4057 34.8808 14.4073 35.036 14.5645C35.1908 14.7217 35.1892 14.9749 35.0324 15.1301L29.4668 20.6249ZM10.0568 20.4837H16.5208V19.2321H10.0568V20.4837ZM22.4408 18.7441H26.1024C26.3232 18.7441 26.5024 18.5649 26.5024 18.3441C26.5024 18.1233 26.3232 17.9441 26.1024 17.9441H22.4408C22.22 17.9441 22.0408 18.1233 22.0408 18.3441C22.0408 18.5649 22.22 18.7441 22.4408 18.7441ZM19.9996 12.0241V16.9329C19.8428 16.9989 19.6908 17.0917 19.5388 17.1949C19.3172 17.3453 19.0964 17.5285 18.8232 17.5993C18.696 17.6321 18.5964 17.5545 18.4984 17.4877C18.364 17.3961 18.2372 17.2921 18.1116 17.2161C17.5088 16.8521 16.834 16.5357 16.156 16.3741C15.788 16.2861 15.3964 16.3965 15.004 16.5849C14.7812 16.6921 14.5556 16.8225 14.3316 16.9205C14.1692 16.9913 14.0104 17.0497 13.8532 17.0353C13.4912 17.0013 13.2288 16.7381 12.9552 16.4833C12.566 16.1209 12.1692 15.7537 11.6692 15.6229C11.1492 15.4865 10.6316 15.5437 10.1148 15.6185C9.6956 15.6789 9.27721 15.7541 8.85681 15.6697C8.43281 15.5845 8.062 15.1089 7.824 14.5861C7.5852 14.0625 7.46961 13.4661 7.69241 13.0777C7.74281 12.9901 7.75601 12.8913 7.73721 12.7993C9.64481 11.4437 11.9768 10.6461 14.4936 10.6461C16.484 10.6461 18.3584 11.1449 19.9996 12.0241ZM22.4408 13.7125H30.9356C31.1564 13.7125 31.3356 13.5333 31.3356 13.3125C31.3356 13.0917 31.1564 12.9125 30.9356 12.9125H22.4408C22.22 12.9125 22.0408 13.0917 22.0408 13.3125C22.0408 13.5333 22.22 13.7125 22.4408 13.7125ZM22.4408 9.67529H30.9356C31.1564 9.67529 31.3356 9.49609 31.3356 9.27529C31.3356 9.05449 31.1564 8.87529 30.9356 8.87529H22.4408C22.22 8.87529 22.0408 9.05449 22.0408 9.27529C22.0408 9.49609 22.22 9.67529 22.4408 9.67529Z" fill="#0F0F0F"/>
</g>
<defs>
<clipPath id="clip0_478_13335">
<rect width="40" height="40" fill="white"/>
</clipPath>
</defs>
</svg>
