<svg width="40" height="40" viewBox="0 0 40 40" fill="none" xmlns="http://www.w3.org/2000/svg">
<path d="M15.9486 30.9805C15.6049 30.5742 15.0346 30.4727 14.5815 30.6992L13.9955 29.4414C13.6518 28.707 13.0346 28.1133 12.308 27.8086L7.43301 25.6914C6.77676 25.4023 6.02676 25.5117 5.56583 26.0195L3.16739 18.8477C2.87833 17.8867 1.68301 17.2383 0.815826 17.6602C0.229889 17.9258 -0.082611 18.543 0.0189515 19.2305L1.33145 28.2305C1.44864 29.0117 1.8627 29.7617 2.47989 30.3008L5.22989 32.7227L8.76895 35.6445C8.51114 36.0508 8.52676 36.5977 8.85489 36.9883L10.4018 38.8086C10.7846 39.2852 11.5502 39.3477 12.0111 38.9414L17.3627 34.4023C17.5971 34.207 17.7377 33.9336 17.7611 33.6289C17.7846 33.3242 17.6908 33.0273 17.4955 32.8008L15.9486 30.9805ZM5.76895 32.0898L3.02676 29.6758C2.55801 29.2617 2.2377 28.6914 2.15176 28.1055L0.839264 19.1133C0.792389 18.8008 0.917389 18.5352 1.15958 18.4258C1.58145 18.2148 2.22989 18.6211 2.37051 19.1211L5.14395 27.4492C5.15176 27.4727 5.16739 27.4961 5.1752 27.5273C5.31583 28.1445 5.79239 28.7148 6.37833 28.9648L9.26895 30.2383C9.76114 30.457 10.1049 29.6992 9.60489 29.4727L6.70645 28.1914C6.53458 28.1133 6.37833 27.9961 6.25333 27.8477C5.64395 27.168 6.08145 26.0273 7.07364 26.4492C8.1127 26.9023 10.9486 28.1445 11.9564 28.5664C13.0033 28.9258 13.4408 30.3086 13.8783 31.207L9.34708 35.0508L5.76895 32.0898ZM16.8158 33.7695L11.4643 38.3086C11.4018 38.3633 11.3236 38.3867 11.2377 38.3789C11.1596 38.3711 11.0815 38.332 11.0268 38.2695L9.49551 36.4492C9.39395 36.3242 9.40176 36.1445 9.51895 36.0352C9.57364 36.0195 9.63614 35.9961 9.68301 35.957L14.6986 31.668C14.7299 31.6367 14.7611 31.6055 14.7768 31.5742C14.9174 31.418 15.1518 31.3398 15.308 31.5195L16.8471 33.3398C16.9643 33.4648 16.9486 33.6602 16.8158 33.7695ZM38.9564 17.6602C38.0893 17.2383 36.8939 17.8867 36.6049 18.8477L34.2143 26.0195C33.7455 25.5117 33.0033 25.4023 32.3471 25.6914L29.0111 27.1445L27.4721 27.8086C26.7455 28.1133 26.1283 28.707 25.7846 29.4492L25.1986 30.6992C24.7377 30.4727 24.1752 30.5742 23.8314 30.9805L22.2924 32.8008C21.8861 33.2617 21.9486 34.0195 22.4252 34.4102L27.7768 38.9492C28.2533 39.3555 28.9721 39.3008 29.3861 38.8164L30.9252 36.9961C31.2455 36.6289 31.2846 36.0586 31.0189 35.6523L34.5658 32.7227L37.3002 30.3086C37.9174 29.7695 38.3314 29.0117 38.4486 28.2383L39.7689 19.2383C39.8549 18.543 39.5424 17.9258 38.9564 17.6602ZM30.2768 36.4492L28.7377 38.2695C28.6283 38.3945 28.433 38.418 28.308 38.3086L22.9564 33.7695C22.8939 33.7148 22.8549 33.6445 22.8471 33.5586C22.8393 33.4805 22.8627 33.3945 22.9174 33.3398L24.4564 31.5195C24.6596 31.2852 24.9252 31.4727 25.0736 31.668L30.0893 35.957C30.1361 35.9961 30.1986 36.0195 30.2533 36.0352C30.3705 36.1445 30.3861 36.332 30.2768 36.4492ZM38.933 19.1133L37.6127 28.1055C37.5268 28.6914 37.2064 29.2617 36.7377 29.6758C35.2455 31.043 31.9877 33.7773 30.4018 35.0664L25.8705 31.2227C26.3158 30.3164 26.7377 28.9414 27.7924 28.582L32.6752 26.4648C34.0346 25.9648 34.0971 27.8008 33.0424 28.1992L30.1518 29.4727C29.6518 29.6914 29.9877 30.457 30.4877 30.2383L33.3783 28.9648C34.0111 28.707 34.4486 28.082 34.6205 27.4414L37.3939 19.1211C37.6283 18.2695 39.0346 17.9961 38.933 19.1133ZM23.5971 28.2148C24.8393 28.0898 25.3783 26.4414 24.4486 25.6133C25.4408 24.7148 24.7455 22.9492 23.3939 22.9961C23.2846 21.332 23.8549 19.6836 25.1752 18.582C28.808 15.5898 29.0111 9.71484 25.5736 6.50391C20.4018 1.41016 11.6049 5.37891 11.7299 12.5586C11.7846 14.8711 12.8236 17.0508 14.5736 18.5508C15.9486 19.707 16.5033 21.332 16.3861 22.9961C15.0268 22.9492 14.3315 24.7148 15.3236 25.6133C14.394 26.4414 14.933 28.0898 16.1752 28.2148C16.2689 29.9336 17.6908 31.3086 19.4408 31.3086H20.3314C22.0736 31.3086 23.5033 29.9336 23.5971 28.2148ZM15.1205 17.918C13.5502 16.5742 12.6127 14.6133 12.5658 12.5352C12.4721 8.58984 15.7299 5.15234 19.6752 5.03516C23.6908 4.83203 27.3002 8.33984 27.2143 12.3633C27.2143 14.5117 26.2768 16.543 24.6361 17.9492C23.1361 19.207 22.4408 21.0977 22.558 22.9961H17.2221C17.3471 21.0898 16.6674 19.2305 15.1205 17.918ZM15.683 26.7148C15.683 26.3398 15.9877 26.0273 16.3627 26.0273H18.5033C19.0502 26.0273 19.0502 25.1992 18.5033 25.1914H16.3627C15.4643 25.1758 15.4643 23.8398 16.3627 23.8242H23.4018C23.7768 23.8242 24.0893 24.1289 24.0893 24.5117C24.0893 24.8945 23.7846 25.1992 23.4018 25.1992H22.1127C21.5658 25.1992 21.5658 26.0273 22.1127 26.0352H23.4018C23.7768 26.0352 24.0893 26.3398 24.0893 26.7227C24.0893 27.0977 23.7846 27.4102 23.4018 27.4102H16.3705C15.9877 27.3945 15.683 27.0898 15.683 26.7148ZM20.3314 30.4727H19.4408C18.1596 30.4727 17.1127 29.4805 17.0111 28.2305H22.7611C22.6596 29.4805 21.6127 30.4727 20.3314 30.4727ZM25.6518 13.2773C25.7533 13.1367 25.7533 12.9414 25.6518 12.8008C24.3314 10.9102 22.1752 9.78516 19.8861 9.78516C17.5893 9.78516 15.433 10.9102 14.1205 12.8008C14.0189 12.9414 14.0189 13.1367 14.1205 13.2773C16.8314 17.2695 22.9408 17.2695 25.6518 13.2773ZM22.5971 11.2539C23.4486 11.668 24.1986 12.2773 24.7924 13.043C24.1986 13.8086 23.4486 14.418 22.5971 14.832C23.308 13.8242 23.308 12.2617 22.5971 11.2539ZM17.1752 14.832C16.3236 14.418 15.5736 13.8086 14.9799 13.043C15.5736 12.2773 16.3236 11.668 17.1752 11.2539C16.4643 12.2617 16.4643 13.8242 17.1752 14.832ZM17.4643 13.043C17.5658 9.84766 22.1986 9.84766 22.3002 13.043C22.1986 16.2383 17.5736 16.2383 17.4643 13.043ZM18.7143 13.043C18.7533 14.5898 21.0189 14.5898 21.058 13.043C21.0189 11.4961 18.7533 11.4961 18.7143 13.043ZM19.5502 13.043C19.5502 12.5977 20.2221 12.5977 20.2221 13.043C20.2221 13.4805 19.5502 13.4805 19.5502 13.043ZM10.6596 21.6836L11.8393 20.5039C12.0033 20.3398 12.2689 20.3398 12.4252 20.5039C12.5893 20.668 12.5893 20.9336 12.4252 21.0898L11.2455 22.2695C11.0814 22.4336 10.8158 22.4336 10.6596 22.2695C10.4955 22.1055 10.4955 21.8398 10.6596 21.6836ZM27.3471 5.58203C27.183 5.41797 27.183 5.15234 27.3471 4.99609L28.5268 3.81641C28.6908 3.65234 28.9564 3.65234 29.1127 3.81641C29.2689 3.98047 29.2768 4.24609 29.1127 4.40234L27.933 5.58203C27.7689 5.74609 27.5111 5.74609 27.3471 5.58203ZM7.25333 12.6211H8.91739C9.46426 12.6211 9.46426 13.4492 8.91739 13.457H7.25333C6.70645 13.457 6.70645 12.6289 7.25333 12.6211ZM30.8549 12.6211H32.5189C33.0658 12.6211 33.0658 13.4492 32.5189 13.457H30.8549C30.308 13.457 30.308 12.6289 30.8549 12.6211ZM10.6596 4.40234C10.2768 4.01172 10.8627 3.42578 11.2455 3.81641L12.4252 4.99609C12.808 5.38672 12.2221 5.97266 11.8393 5.58984C11.8393 5.58203 10.6596 4.40234 10.6596 4.40234ZM29.1127 21.6836C29.4955 22.0742 28.9096 22.6602 28.5268 22.2773L27.3471 21.0977C26.9643 20.707 27.5502 20.1211 27.933 20.5117C27.933 20.5039 29.1127 21.6836 29.1127 21.6836ZM19.4721 2.07422V0.410156C19.4721 -0.136719 20.308 -0.136719 20.308 0.410156V2.07422C20.3002 2.62109 19.4721 2.62109 19.4721 2.07422Z" fill="#0F0F0F"/>
</svg>
