<svg width="40" height="40" viewBox="0 0 40 40" fill="none" xmlns="http://www.w3.org/2000/svg">
<g clip-path="url(#clip0_25_1480)">
<path fill-rule="evenodd" clip-rule="evenodd" d="M25.5574 19.8114L18.0588 19.7781L15.1347 18.6137H11.4686C11.2099 18.6137 10.9999 18.4037 10.9999 18.145V9.2326C10.9999 8.97384 11.2099 8.76384 11.4686 8.76384H15.1671C18.3797 8.26884 18.7282 6.24477 19.008 4.61726C19.1871 3.57593 19.3722 2.49944 20.4773 2.47436C21.9014 2.44319 22.7815 3.28554 22.8173 4.7307C22.8237 4.78273 22.9816 6.56282 22.3673 8.70853H28.0038C29.7741 8.70853 30.237 10.8339 29.1509 11.7803C29.8931 12.5935 29.7108 14.0389 28.6882 14.5482C29.3077 15.5225 28.9477 17.2691 27.1071 17.2705C27.6169 18.3383 27.0239 19.8112 25.5574 19.8112V19.8114ZM4.98133 16.5472V14.6544H2.05632L4.98133 16.5472ZM4.98133 13.7171V0.540529C4.98133 0.281778 5.19133 0.0717773 5.45008 0.0717773H34.55C34.8087 0.0717773 35.0187 0.281778 35.0187 0.540529V13.7171H39.5304C39.7892 13.7171 39.9992 13.9271 39.9992 14.1859V39.4596C39.9992 39.7322 39.7772 39.9288 39.5241 39.9288H0.470059C0.230527 39.9288 0.0385734 39.7542 0.00529204 39.5196L0.00130765 39.4601V14.2025C-0.00361424 13.9358 0.200996 13.7171 0.470059 13.7171H4.98156H4.98133ZM35.0185 14.6546V16.5468L37.9426 14.6546H35.0185ZM34.081 17.1533V1.00928H5.9186V17.1538L19.9992 26.2647L34.081 17.1531V17.1533ZM26.7865 33.61H13.2131C12.5962 33.61 12.5962 32.6725 13.2131 32.6725H26.7865C27.4036 32.6725 27.4036 33.61 26.7865 33.61ZM0.938577 15.0479V38.2333L14.0765 23.5487L0.938577 15.0479ZM1.51819 38.9908L38.4809 38.9911L25.1259 24.0641L20.2537 27.2167C20.099 27.317 19.9001 27.3168 19.7451 27.2167L14.8729 24.0641L1.51819 38.9908ZM39.061 38.2336V15.0475L25.9223 23.5487L39.061 38.2336ZM12.8678 12.2842V10.8315C12.8678 10.2144 13.8053 10.2144 13.8053 10.8315V12.2842C14.6934 12.2842 14.4928 13.2217 13.9413 13.2217H12.7338C12.1818 13.2217 11.9833 12.2842 12.8678 12.2842ZM15.675 9.62611V17.8199L18.3225 18.8741H25.5579C26.6222 18.8741 26.6222 17.2703 25.5579 17.2703H22.8902C22.2731 17.2703 22.2733 16.3328 22.8902 16.3328H27.2398C28.3034 16.3328 28.3006 14.7294 27.2395 14.7294H23.8945C23.2776 14.7294 23.2776 13.7919 23.8945 13.7919H27.8747C28.9385 13.7919 28.9385 12.1878 27.8747 12.1878L25.2209 12.1876C24.6035 12.1876 24.604 11.2501 25.2209 11.2501H28.0038C29.0677 11.2501 29.0677 9.64627 28.0038 9.64627H21.7275C21.3996 9.64627 21.1802 9.32166 21.2847 9.02236C22.061 6.80048 21.8841 4.80641 21.8819 4.78672C21.8578 4.40094 21.8569 3.38656 20.4982 3.4114C19.4168 3.43132 20.9283 8.5883 15.6747 9.62588L15.675 9.62611ZM11.9376 17.6765H14.7379V9.70135H11.9376V17.6765Z" fill="#0F0F0F"/>
</g>
<defs>
<clipPath id="clip0_25_1480">
<rect width="40" height="40" fill="white"/>
</clipPath>
</defs>
</svg>
