<svg width="48" height="50" viewBox="0 0 48 50" fill="none" xmlns="http://www.w3.org/2000/svg">
<path d="M40.6408 12.0137C40.4503 12.0137 40.2599 11.9399 40.1144 11.7915C40.0656 11.7412 39.9738 11.624 39.9406 11.562C39.7453 11.1973 39.882 10.7427 40.2472 10.5469C40.5822 10.3667 40.9933 10.4683 41.2091 10.7681C41.465 11.0679 41.4513 11.5244 41.1652 11.8008C41.0177 11.9424 40.8292 12.0137 40.6408 12.0137Z" fill="black"/>
<path d="M12.883 7.19775C12.6408 7.19775 12.4026 7.08057 12.258 6.86377C12.0285 6.51904 12.1213 6.05371 12.466 5.82373C15.9358 3.51025 19.9944 2.2876 24.2024 2.2876C26.8547 2.2876 29.4397 2.77246 31.886 3.72949C32.2717 3.88037 32.4621 4.31494 32.3108 4.70068C32.1604 5.08691 31.7268 5.27832 31.3391 5.12598C29.0686 4.23779 26.6672 3.7876 24.2024 3.7876C20.2912 3.7876 16.5207 4.92334 13.2981 7.07178C13.1701 7.15723 13.0256 7.19775 12.883 7.19775Z" fill="black"/>
<path d="M24.2023 44.8975C22.4611 44.8975 20.7551 44.6914 19.1301 44.2852C18.7277 44.1846 18.4836 43.7773 18.5842 43.3755C18.6838 42.9736 19.0978 42.731 19.4933 42.8301C21.0002 43.2065 22.5842 43.3975 24.2023 43.3975C35.1203 43.3975 44.0021 34.5107 44.0021 23.5879C44.0021 21.0728 43.5412 18.6396 42.633 16.354C42.5783 16.2505 42.547 16.1328 42.547 16.0078C42.547 15.5938 42.8781 15.2578 43.2922 15.2578C43.5988 15.2578 43.884 15.4438 43.9982 15.728C44.9963 18.2114 45.5021 20.856 45.5021 23.5879C45.5021 35.3379 35.9474 44.8975 24.2023 44.8975Z" fill="black"/>
<path d="M6.29321 34.3975C6.03149 34.3975 5.77759 34.2608 5.63989 34.0166C3.85571 30.8623 2.91235 27.2564 2.91235 23.5879C2.91235 19.6714 3.98364 15.8467 6.01196 12.5264C6.22583 12.1734 6.68774 12.0606 7.04224 12.2774C7.39575 12.4932 7.50806 12.9551 7.29126 13.3086C5.40845 16.3931 4.41235 19.9478 4.41235 23.5879C4.41235 26.9981 5.28833 30.3486 6.94458 33.2783C7.14868 33.6387 7.02173 34.0962 6.66138 34.3003C6.54517 34.3662 6.41821 34.3975 6.29321 34.3975Z" fill="black"/>
<path d="M24.2022 37.8477C22.3702 37.8477 20.5938 37.5063 18.9219 36.8335C18.5381 36.6787 18.3516 36.2417 18.5069 35.8574C18.6612 35.4722 19.0997 35.2871 19.4825 35.4419C20.9747 36.043 22.5625 36.3477 24.2022 36.3477C31.2325 36.3477 36.9522 30.6235 36.9522 23.5879C36.9522 21.6211 36.4913 19.6553 35.6202 17.9018C35.4356 17.5308 35.587 17.0806 35.9581 16.896C36.3321 16.7109 36.7803 16.8643 36.9639 17.2339C37.9375 19.1938 38.4522 21.3911 38.4522 23.5879C38.4522 31.4507 32.0596 37.8477 24.2022 37.8477Z" fill="black"/>
<path d="M13.4719 32.5229C13.1956 32.5229 12.9534 32.375 12.8235 32.1538C10.9514 29.666 9.96216 26.7065 9.96216 23.5879C9.96216 19.9424 11.3313 16.4814 13.8167 13.8438C16.4944 10.981 20.2805 9.33789 24.2024 9.33789C26.3313 9.33789 28.3772 9.79639 30.2834 10.7002C30.6575 10.8779 30.8176 11.3252 30.6399 11.6992C30.4631 12.0737 30.0159 12.2354 29.6409 12.0557C27.9377 11.2476 26.1077 10.8379 24.2024 10.8379C20.6936 10.8379 17.3069 12.3076 14.9104 14.8701C12.6858 17.231 11.4622 20.3262 11.4622 23.5879C11.4622 26.4038 12.3635 29.0752 14.0686 31.313C14.1682 31.4438 14.2219 31.6035 14.2219 31.7676C14.2219 32.1816 13.886 32.5229 13.4719 32.5229Z" fill="black"/>
<path d="M24.2053 30.4912C20.4026 30.4912 17.3088 27.3955 17.3088 23.5908C17.3088 19.7856 20.4026 16.6899 24.2053 16.6899C28.01 16.6899 31.1057 19.7856 31.1057 23.5908C31.1057 27.3955 28.01 30.4912 24.2053 30.4912ZM24.2053 18.1899C21.2297 18.1899 18.8088 20.6128 18.8088 23.5908C18.8088 26.5688 21.2297 28.9912 24.2053 28.9912C27.1829 28.9912 29.6057 26.5688 29.6057 23.5908C29.6057 20.6128 27.1829 18.1899 24.2053 18.1899Z" fill="black"/>
<path d="M24.2073 24.9575C24.0149 24.9575 23.8235 24.8843 23.677 24.7378L12.5129 13.5728C12.22 13.2798 12.22 12.8052 12.5129 12.5122C12.8059 12.2192 13.2805 12.2192 13.5735 12.5122L24.7375 23.6772C25.0305 23.9702 25.0305 24.4448 24.7375 24.7378C24.5911 24.8843 24.3997 24.9575 24.2073 24.9575Z" fill="black"/>
<path d="M12.7121 14.2539C12.6623 14.2539 12.6115 14.2515 12.5617 14.2466L6.55288 13.6636C6.19741 13.6294 5.86343 13.4712 5.6105 13.2187L0.455226 8.06298C-0.0115708 7.59667 -0.130711 6.90966 0.150539 6.31298C0.432765 5.71581 1.04507 5.37304 1.69546 5.43554L5.7853 5.83251L5.43667 1.69531C5.37222 1.03906 5.71597 0.43261 6.31265 0.150872C6.9103 -0.131355 7.59781 -0.0107491 8.06363 0.455071L13.2189 5.61034C13.4718 5.86279 13.63 6.19775 13.6632 6.55322L14.2462 12.5615C14.2921 13.0215 14.13 13.4736 13.8029 13.8013C13.5109 14.0933 13.1203 14.2539 12.7121 14.2539ZM1.55093 6.9287L6.67105 12.1582L12.7062 12.7534L12.1584 6.67089L7.00308 1.51562L7.32534 5.64062C7.37124 6.10058 7.20913 6.55273 6.88198 6.88036C6.55386 7.20751 6.09683 7.37109 5.64077 7.32568L1.55093 6.9287Z" fill="black"/>
<path d="M38.1272 18.519C33.1008 18.519 29.011 14.5078 29.011 9.57715C29.011 4.64356 33.1008 0.629883 38.1272 0.629883C43.1506 0.629883 47.2375 4.64355 47.2375 9.57715C47.2375 14.5078 43.1506 18.519 38.1272 18.519ZM38.1272 2.12988C33.928 2.12988 30.511 5.4707 30.511 9.57715C30.511 13.6807 33.928 17.019 38.1272 17.019C42.3235 17.019 45.7375 13.6807 45.7375 9.57715C45.7375 5.4707 42.3235 2.12988 38.1272 2.12988Z" fill="black"/>
<path d="M38.1224 18.5176C37.8773 18.5176 37.6341 18.5069 37.4007 18.4844C37.4193 18.4893 37.3646 18.4849 37.3119 18.4805C37.2845 18.4805 37.2064 18.4761 37.179 18.4732C36.9798 18.4507 36.7855 18.4287 36.6019 18.3965L36.1146 18.2964C35.7425 18.2139 35.3597 18.1045 34.9925 17.9746C34.8529 17.9283 34.6888 17.8648 34.5374 17.7886C34.4583 17.7622 34.3236 17.7056 34.1781 17.6382C33.973 17.542 33.7845 17.438 33.596 17.333C33.266 17.145 32.9623 16.9492 32.68 16.7432C32.514 16.6226 32.3607 16.501 32.2054 16.3692C32.0326 16.2217 31.9349 16.003 31.9417 15.7749C32.0091 13.5674 33.307 11.5713 35.3285 10.5664C35.7015 10.3789 36.1498 10.5337 36.3343 10.9038C36.5189 11.2749 36.3675 11.7251 35.9964 11.9092C34.5824 12.6123 33.638 13.9507 33.4671 15.4595C33.4994 15.4839 33.5316 15.5078 33.5648 15.5323C33.8021 15.7061 34.0589 15.8706 34.3138 16.0166C34.4837 16.1104 34.6429 16.1992 34.8128 16.2793C34.9212 16.3296 35.0267 16.3736 35.141 16.4175C35.2962 16.4908 35.3919 16.5269 35.4798 16.5562C35.804 16.6704 36.1244 16.7622 36.4554 16.836L36.8792 16.9224C37.015 16.9458 37.1781 16.9634 37.3402 16.9815C37.3158 16.9781 37.3675 16.98 37.4222 16.9849C37.4456 16.9849 37.5199 16.9888 37.5433 16.9912C37.9154 17.0269 38.3265 17.0269 38.7005 16.9912C38.7064 16.9908 38.8177 16.9849 38.8226 16.9849C38.8763 16.981 38.929 16.9776 38.9818 16.9776C39.054 16.9639 39.2093 16.9458 39.3626 16.919L39.4779 16.8999C39.5218 16.8931 39.5658 16.8877 39.6117 16.875C40.0453 16.7881 40.4076 16.6875 40.7425 16.564C40.8724 16.523 40.9632 16.4888 41.0472 16.4468C41.3724 16.3194 41.6097 16.1944 41.849 16.062C41.9632 16.0074 42.013 15.9742 42.0638 15.9424C42.2972 15.8091 42.4945 15.6743 42.6908 15.5318C42.7083 15.5137 42.7455 15.4825 42.7835 15.4527C42.6058 13.9678 41.6878 12.6455 40.3216 11.9414C40.0365 11.8355 39.8324 11.5606 39.8324 11.2378C39.8324 10.8238 40.1683 10.4878 40.5824 10.4878C40.7093 10.4878 40.888 10.5415 40.9994 10.6031C42.9632 11.6084 44.2347 13.5899 44.3119 15.7715C44.3197 16.0122 44.2123 16.2422 44.0218 16.3902C43.9017 16.4873 43.8275 16.5469 43.764 16.5928C43.721 16.6309 43.6761 16.666 43.6322 16.6992C43.3304 16.9209 43.0863 17.0865 42.8314 17.2305C42.7513 17.2818 42.641 17.3482 42.5179 17.4029C42.2982 17.5279 41.9935 17.688 41.6478 17.8189C41.5609 17.8667 41.3919 17.9322 41.223 17.9844C40.8509 18.1226 40.4115 18.2447 39.9554 18.334C39.9085 18.3492 39.8109 18.3658 39.7113 18.3819C39.4398 18.4283 39.2572 18.4502 39.0755 18.4717L38.932 18.4805C38.8792 18.4844 38.8255 18.4878 38.7718 18.4878C38.6097 18.5069 38.3665 18.5176 38.1224 18.5176Z" fill="black"/>
<path d="M38.1243 13.4561C35.7883 13.4561 33.9075 10.6802 33.9075 8.38184C33.9075 6.09521 35.7991 4.23535 38.1243 4.23535C40.4485 4.23535 42.3401 6.09521 42.3401 8.38184C42.3401 10.6802 40.4592 13.4561 38.1243 13.4561ZM38.1243 5.73535C36.6262 5.73535 35.4075 6.92236 35.4075 8.38184C35.4075 9.94238 36.7249 11.9561 38.1243 11.9561C39.5227 11.9561 40.8401 9.94238 40.8401 8.38184C40.8401 6.92236 39.6213 5.73535 38.1243 5.73535Z" fill="black"/>
<path d="M11.7688 49.0591C6.74634 49.0591 2.6604 44.9751 2.6604 39.9556C2.6604 34.9331 6.74634 30.8467 11.7688 30.8467C16.7883 30.8467 20.8723 34.9331 20.8723 39.9556C20.8723 44.9751 16.7883 49.0591 11.7688 49.0591ZM11.7688 32.3467C7.57349 32.3467 4.1604 35.7603 4.1604 39.9556C4.1604 44.1479 7.57349 47.5591 11.7688 47.5591C15.9612 47.5591 19.3723 44.1479 19.3723 39.9556C19.3723 35.7603 15.9612 32.3467 11.7688 32.3467Z" fill="black"/>
<path d="M11.7718 49.0576C11.5277 49.0576 11.2845 49.0469 11.0511 49.0244C10.7308 49.0039 10.3929 48.959 10.0697 48.8921C9.91051 48.8662 9.72105 48.8247 9.53062 48.7827L8.75523 48.5493C8.64195 48.5117 8.54332 48.4741 8.42906 48.4238C8.25914 48.3662 8.04527 48.2666 7.8314 48.166C7.39586 47.9531 7.01988 47.7344 6.6732 47.4932C6.59215 47.4536 6.46715 47.3609 6.33238 47.252C6.17808 47.1377 6.00328 47.0059 5.84019 46.8638C5.66929 46.7153 5.57554 46.4981 5.58238 46.2725C5.65953 44.0259 6.95836 41.9976 8.97301 40.978C9.3441 40.7915 9.79429 40.94 9.98082 41.3091C10.1683 41.6782 10.0199 42.1299 9.65074 42.3169C8.23375 43.0337 7.28453 44.4072 7.10875 45.96C7.15562 45.9956 7.20347 46.0313 7.25133 46.0664C7.33629 46.1343 7.39293 46.1821 7.46324 46.2207C7.81285 46.4595 8.1234 46.6397 8.48082 46.814C8.63902 46.8887 8.80601 46.9688 8.98179 47.0308C9.10191 47.0816 9.16148 47.1035 9.22984 47.1265L9.86363 47.3203C10.0189 47.3545 10.182 47.3906 10.3451 47.418C10.6302 47.4766 10.8959 47.5117 11.1703 47.5293C11.6039 47.5698 11.9916 47.5576 12.3763 47.5386C12.7875 47.5059 13.2464 47.4287 13.7191 47.3101L13.9681 47.2407C14.1087 47.1958 14.2289 47.1597 14.3421 47.1104C14.3802 47.0938 14.4193 47.0806 14.4603 47.0703C14.4623 47.0693 14.6087 47.0156 14.6107 47.0147C14.7445 46.959 14.9134 46.8843 15.0726 46.8096C15.4164 46.6372 15.7259 46.4556 16.0033 46.2627C16.1214 46.1895 16.1957 46.1372 16.2621 46.0855C16.2748 46.0752 16.2865 46.0664 16.2992 46.0576C16.306 46.0523 16.3128 46.0469 16.3197 46.042C16.3529 46.0176 16.3861 45.9922 16.4183 45.9668C16.2533 44.4097 15.306 43.0327 13.8851 42.3174C13.515 42.1314 13.3656 41.6802 13.5521 41.3106C13.7386 40.94 14.1869 40.7896 14.5589 40.9775C16.5795 41.9942 17.8753 44.0244 17.9418 46.2759C17.9476 46.5025 17.8519 46.7197 17.68 46.8677C17.5189 47.0049 17.3685 47.1333 17.2064 47.2515C17.1996 47.2568 17.1927 47.2622 17.1849 47.2676C17.1839 47.2686 17.183 47.2691 17.182 47.27C17.0687 47.3579 16.9437 47.4463 16.8168 47.522C16.5238 47.7285 16.1527 47.9458 15.7269 48.1587C15.5306 48.2515 15.3402 48.3359 15.1595 48.4107C15.0375 48.4575 14.9603 48.4863 14.89 48.5073C14.7416 48.5684 14.5882 48.6177 14.4388 48.6641C14.4261 48.668 14.349 48.6914 14.3353 48.6948L14.0834 48.7651C13.5306 48.9038 12.9877 48.9946 12.4711 49.0352C12.2269 49.0474 12.0052 49.0576 11.7718 49.0576Z" fill="black"/>
<path d="M11.7659 43.896C9.43188 43.896 7.55298 41.0737 7.55298 38.7368C7.55298 36.4136 9.44263 34.5234 11.7659 34.5234C14.0891 34.5234 15.9788 36.4136 15.9788 38.7368C15.9788 41.0737 14.0999 43.896 11.7659 43.896ZM11.7659 36.0234C10.2698 36.0234 9.05298 37.2407 9.05298 38.7368C9.05298 40.3345 10.3684 42.396 11.7659 42.396C13.1633 42.396 14.4788 40.3345 14.4788 38.7368C14.4788 37.2407 13.262 36.0234 11.7659 36.0234Z" fill="black"/>
</svg>
